#N canvas -451 269 1920 772 12;
#X obj 188 94 bng 15 250 50 0 empty empty empty 17 7 0 10 #fcfcfc #000000
#000000;
#X floatatom 201 162 5 0 0 0 - - - 0;
#X obj 201 240 phasor~;
#X obj 199 510 *~;
#X obj 133 128 Chords_Scales;
#X obj 264 191 * 1.001;
#X floatatom 264 215 5 0 0 0 - - - 0;
#X obj 264 238 phasor~;
#X obj 636 423 vline~, f 13;
#X text 665 82 envelope;
#X obj 198 724 freeverb~;
#X obj 411 480 loadbang;
#X msg 282 578 wet \$1;
#X msg 411 578 roomsize $;
#X floatatom 354 213 5 0 0 0 - - - 0;
#X obj 354 239 phasor~;
#X obj 354 189 * 0.5;
#X floatatom 482 204 5 0 0 0 - - - 0;
#X obj 482 230 phasor~;
#X obj 482 180 * 1.5;
#X obj 1114 275 phasor~;
#X floatatom 1114 173 5 0 0 0 - - - 0;
#X obj 1114 196 mtof;
#X floatatom 1114 220 5 0 0 0 - - - 0;
#X obj 1113 366 bob~, f 13;
#X msg 1201 313 2;
#X floatatom 1157 338 5 0 0 0 - - - 0;
#X floatatom 1201 337 5 0 0 0 - - - 0;
#X obj 1184 262 loadbang;
#X obj 1357 273 * 1.01;
#X obj 1357 305 phasor~;
#X obj 1356 396 bob~, f 13;
#X msg 1157 314 100;
#X msg 411 554 0.8;
#X msg 282 554 0.8;
#X msg 636 109 1 1000 \, 0.7 7600 1000 \, 0 1000 8600;
#X obj 1114 147 - 24;
#X obj 200 347 lop~ 5;
#X obj 294 363 lop~ 5;
#X obj 484 260 lop~ 5;
#X obj 200 549 *~ 0.3;
#X obj 574 920 outlet~;
#X obj 642 919 outlet~;
#X obj 200 787 *~ 0.3;
#X obj 258 786 *~ 0.3;
#X obj 618 637 *~;
#X obj 692 638 *~;
#X obj 124 44 inlet;
#X obj 188 33 r Ambient_Note;
#X obj 79 43 r ID;
#X floatatom 102 90 5 0 0 0 - - - 0;
#X obj 1642 103 inlet;
#X obj 1642 127 switch~;
#X connect 0 0 35 0;
#X connect 1 0 2 0;
#X connect 1 0 5 0;
#X connect 1 0 16 0;
#X connect 1 0 19 0;
#X connect 2 0 37 0;
#X connect 3 0 40 0;
#X connect 4 0 1 0;
#X connect 4 1 36 0;
#X connect 5 0 6 0;
#X connect 6 0 7 0;
#X connect 7 0 37 0;
#X connect 8 0 3 1;
#X connect 8 0 45 1;
#X connect 8 0 46 1;
#X connect 10 1 44 0;
#X connect 11 0 33 0;
#X connect 11 0 34 0;
#X connect 12 0 10 0;
#X connect 13 0 10 0;
#X connect 14 0 15 0;
#X connect 15 0 38 0;
#X connect 16 0 14 0;
#X connect 17 0 18 0;
#X connect 18 0 39 0;
#X connect 19 0 17 0;
#X connect 20 0 24 0;
#X connect 21 0 22 0;
#X connect 22 0 23 0;
#X connect 23 0 20 0;
#X connect 23 0 29 0;
#X connect 24 0 45 0;
#X connect 25 0 27 0;
#X connect 26 0 24 1;
#X connect 26 0 31 1;
#X connect 27 0 24 2;
#X connect 27 0 31 2;
#X connect 28 0 32 0;
#X connect 28 0 25 0;
#X connect 29 0 30 0;
#X connect 30 0 31 0;
#X connect 31 0 46 0;
#X connect 32 0 26 0;
#X connect 33 0 13 0;
#X connect 34 0 12 0;
#X connect 35 0 8 0;
#X connect 36 0 21 0;
#X connect 37 0 3 0;
#X connect 38 0 3 0;
#X connect 39 0 3 0;
#X connect 40 0 10 1;
#X connect 40 0 43 0;
#X connect 43 0 41 0;
#X connect 44 0 42 0;
#X connect 45 0 10 0;
#X connect 46 0 10 1;
#X connect 48 0 0 0;
#X connect 49 0 50 0;
#X connect 50 0 4 0;
#X connect 51 0 52 0;
