#N canvas 143 183 1920 802 12;
#X msg 1087 160 36;
#X msg 1153 158 41;
#X floatatom 1087 213 5 0 0 0 - - - 0;
#X obj 1087 288 phasor~;
#X obj 1087 110 bng 15 250 50 0 empty empty empty 17 7 0 10 #fcfcfc
#000000 #000000;
#X obj 1153 110 bng 15 250 50 0 empty empty empty 17 7 0 10 #fcfcfc
#000000 #000000;
#X obj 1217 111 bng 15 250 50 0 empty empty empty 17 7 0 10 #fcfcfc
#000000 #000000;
#X msg 1217 158 43;
#X msg 1275 157 41;
#X obj 1275 110 bng 15 250 50 0 empty empty empty 17 7 0 10 #fcfcfc
#000000 #000000;
#X obj 1087 238 mtof;
#X floatatom 1087 264 5 0 0 0 - - - 0;
#X text 958 162 sets MIDI notes;
#X text 1098 139 C;
#X text 1167 137 F;
#X text 1284 137 F;
#X text 1228 138 G;
#X obj 1089 387 *~;
#X obj 1642 368 vline~, f 13;
#X msg 1033 238 0;
#X obj 1088 346 bob~, f 13;
#X obj 1147 211 loadbang;
#X floatatom 1220 303 5 0 8 0 - - - 0;
#X msg 1147 303 150;
#X text 951 237 clear fq;
#X text 1266 307 filter resonance;
#X text 1175 303 fq;
#X text 1018 345 low-pass;
#X text 1670 287 envelope;
#X msg 1220 275 3;
#X obj 843 945 outlet~;
#X obj 994 944 outlet~;
#X obj 1335 80 sel 0;
#X obj 1335 110 bng 15 250 50 0 empty empty empty 17 7 0 10 #fcfcfc
#000000 #000000;
#X obj 1389 108 bng 15 250 50 0 empty empty empty 17 7 0 10 #fcfcfc
#000000 #000000;
#X obj 1439 109 bng 15 250 50 0 empty empty empty 17 7 0 10 #fcfcfc
#000000 #000000;
#X obj 1492 110 bng 15 250 50 0 empty empty empty 17 7 0 10 #fcfcfc
#000000 #000000;
#X obj 1547 109 bng 15 250 50 0 empty empty empty 17 7 0 10 #fcfcfc
#000000 #000000;
#X obj 1601 109 bng 15 250 50 0 empty empty empty 17 7 0 10 #fcfcfc
#000000 #000000;
#X obj 1217 80 sel 0;
#X obj 1275 78 sel 0;
#X obj 1389 77 sel 0;
#X obj 1439 78 sel 0;
#X obj 1492 78 sel 0;
#X obj 1547 78 sel 0;
#X obj 1601 77 sel 0;
#X msg 1335 157 36;
#X msg 1389 154 41;
#X msg 1439 153 43;
#X msg 1492 156 41;
#X msg 1547 156 36;
#X msg 1601 158 41;
#X obj 1642 124 bng 15 250 50 0 empty empty empty 17 7 0 10 #fcfcfc
#000000 #000000;
#X obj 1087 80 sel 19;
#X obj 1153 79 sel 20;
#X obj 399 16 inlet;
#X floatatom 1087 41 5 0 0 0 - - - 0;
#X floatatom 94 660 5 0 0 0 - - - 0;
#X obj 94 735 phasor~;
#X obj 94 557 bng 15 250 50 0 empty empty empty 17 7 0 10 #fcfcfc #000000
#000000;
#X obj 160 557 bng 15 250 50 0 empty empty empty 17 7 0 10 #fcfcfc
#000000 #000000;
#X obj 224 558 bng 15 250 50 0 empty empty empty 17 7 0 10 #fcfcfc
#000000 #000000;
#X obj 282 557 bng 15 250 50 0 empty empty empty 17 7 0 10 #fcfcfc
#000000 #000000;
#X obj 94 685 mtof;
#X floatatom 94 711 5 0 0 0 - - - 0;
#X text -35 609 sets MIDI notes;
#X text 105 586 C;
#X text 174 584 F;
#X text 291 584 F;
#X text 235 585 G;
#X obj 96 834 *~;
#X obj 649 815 vline~, f 13;
#X msg 40 685 0;
#X obj 95 793 bob~, f 13;
#X obj 154 658 loadbang;
#X floatatom 227 750 5 0 8 0 - - - 0;
#X text -42 684 clear fq;
#X text 273 754 filter resonance;
#X text 182 750 fq;
#X text 25 792 low-pass;
#X text 677 734 envelope;
#X obj 342 527 sel 0;
#X obj 342 557 bng 15 250 50 0 empty empty empty 17 7 0 10 #fcfcfc
#000000 #000000;
#X obj 396 555 bng 15 250 50 0 empty empty empty 17 7 0 10 #fcfcfc
#000000 #000000;
#X obj 446 556 bng 15 250 50 0 empty empty empty 17 7 0 10 #fcfcfc
#000000 #000000;
#X obj 499 557 bng 15 250 50 0 empty empty empty 17 7 0 10 #fcfcfc
#000000 #000000;
#X obj 554 556 bng 15 250 50 0 empty empty empty 17 7 0 10 #fcfcfc
#000000 #000000;
#X obj 608 556 bng 15 250 50 0 empty empty empty 17 7 0 10 #fcfcfc
#000000 #000000;
#X obj 224 527 sel 0;
#X obj 282 525 sel 0;
#X obj 396 524 sel 0;
#X obj 446 525 sel 0;
#X obj 499 525 sel 0;
#X obj 554 525 sel 0;
#X obj 608 524 sel 0;
#X msg 396 601 41;
#X msg 446 600 43;
#X msg 499 603 41;
#X msg 554 603 36;
#X msg 608 605 41;
#X obj 649 571 bng 15 250 50 0 empty empty empty 17 7 0 10 #fcfcfc
#000000 #000000;
#X floatatom 94 488 5 0 0 0 - - - 0;
#X obj 160 526 sel 0;
#X obj 94 527 sel 21;
#X msg 94 607 48;
#X msg 161 605 53;
#X msg 224 605 55;
#X msg 282 604 53;
#X msg 342 604 48;
#X msg 650 762 0.3 10 \, 0.5 250 10 \, 0 500 260;
#X msg 1642 315 0.7 10 \, 0.5 250 10 \, 0 500 260;
#X msg 154 750 300;
#X msg 227 722 3;
#X obj 761 7 r ID;
#X obj 843 916 *~ 0.6;
#X obj 993 916 *~ 0.4;
#X text 1044 915 wet signal;
#X text 897 916 dry signal;
#X obj 1781 28 inlet;
#X obj 1781 69 switch~;
#X connect 0 0 2 0;
#X connect 1 0 2 0;
#X connect 2 0 10 0;
#X connect 3 0 20 0;
#X connect 4 0 0 0;
#X connect 4 0 52 0;
#X connect 5 0 1 0;
#X connect 5 0 52 0;
#X connect 6 0 7 0;
#X connect 6 0 52 0;
#X connect 7 0 2 0;
#X connect 8 0 2 0;
#X connect 9 0 8 0;
#X connect 9 0 52 0;
#X connect 10 0 11 0;
#X connect 11 0 3 0;
#X connect 17 0 115 0;
#X connect 17 0 114 0;
#X connect 18 0 17 1;
#X connect 19 0 11 0;
#X connect 20 0 17 0;
#X connect 21 0 23 0;
#X connect 21 0 29 0;
#X connect 22 0 20 2;
#X connect 23 0 20 1;
#X connect 29 0 22 0;
#X connect 32 0 33 0;
#X connect 33 0 46 0;
#X connect 33 0 52 0;
#X connect 34 0 47 0;
#X connect 34 0 52 0;
#X connect 35 0 48 0;
#X connect 35 0 52 0;
#X connect 36 0 49 0;
#X connect 36 0 52 0;
#X connect 37 0 50 0;
#X connect 37 0 52 0;
#X connect 38 0 51 0;
#X connect 38 0 52 0;
#X connect 39 0 6 0;
#X connect 40 0 9 0;
#X connect 41 0 34 0;
#X connect 42 0 35 0;
#X connect 43 0 36 0;
#X connect 44 0 37 0;
#X connect 45 0 38 0;
#X connect 46 0 2 0;
#X connect 47 0 2 0;
#X connect 48 0 2 0;
#X connect 49 0 2 0;
#X connect 50 0 2 0;
#X connect 51 0 2 0;
#X connect 52 0 110 0;
#X connect 53 0 4 0;
#X connect 54 0 5 0;
#X connect 56 0 53 0;
#X connect 56 0 54 0;
#X connect 56 0 39 0;
#X connect 56 0 40 0;
#X connect 56 0 32 0;
#X connect 56 0 41 0;
#X connect 56 0 42 0;
#X connect 56 0 43 0;
#X connect 56 0 44 0;
#X connect 56 0 45 0;
#X connect 57 0 63 0;
#X connect 58 0 73 0;
#X connect 59 0 100 0;
#X connect 59 0 104 0;
#X connect 60 0 100 0;
#X connect 60 0 105 0;
#X connect 61 0 106 0;
#X connect 61 0 100 0;
#X connect 62 0 107 0;
#X connect 62 0 100 0;
#X connect 63 0 64 0;
#X connect 64 0 58 0;
#X connect 70 0 114 0;
#X connect 70 0 115 0;
#X connect 71 0 70 1;
#X connect 72 0 64 0;
#X connect 73 0 70 0;
#X connect 74 0 111 0;
#X connect 74 0 112 0;
#X connect 75 0 73 2;
#X connect 81 0 82 0;
#X connect 82 0 108 0;
#X connect 82 0 100 0;
#X connect 83 0 95 0;
#X connect 83 0 100 0;
#X connect 84 0 96 0;
#X connect 84 0 100 0;
#X connect 85 0 97 0;
#X connect 85 0 100 0;
#X connect 86 0 98 0;
#X connect 86 0 100 0;
#X connect 87 0 99 0;
#X connect 87 0 100 0;
#X connect 88 0 61 0;
#X connect 89 0 62 0;
#X connect 90 0 83 0;
#X connect 91 0 84 0;
#X connect 92 0 85 0;
#X connect 93 0 86 0;
#X connect 94 0 87 0;
#X connect 95 0 57 0;
#X connect 96 0 57 0;
#X connect 97 0 57 0;
#X connect 98 0 57 0;
#X connect 99 0 57 0;
#X connect 100 0 109 0;
#X connect 101 0 88 0;
#X connect 101 0 89 0;
#X connect 101 0 81 0;
#X connect 101 0 90 0;
#X connect 101 0 91 0;
#X connect 101 0 92 0;
#X connect 101 0 93 0;
#X connect 101 0 94 0;
#X connect 101 0 102 0;
#X connect 101 0 103 0;
#X connect 102 0 60 0;
#X connect 103 0 59 0;
#X connect 104 0 57 0;
#X connect 105 0 57 0;
#X connect 106 0 57 0;
#X connect 107 0 57 0;
#X connect 108 0 57 0;
#X connect 109 0 71 0;
#X connect 110 0 18 0;
#X connect 111 0 73 1;
#X connect 112 0 75 0;
#X connect 113 0 101 0;
#X connect 113 0 56 0;
#X connect 114 0 30 0;
#X connect 115 0 31 0;
#X connect 118 0 119 0;
