#N canvas 713 244 777 584 12;
#X obj 235 147 inlet;
#X floatatom 235 228 5 0 0 0 - - - 0;
#X msg 114 333 60;
#X floatatom 235 384 5 0 0 0 - - - 0;
#X obj 235 446 mtof;
#X floatatom 235 470 5 0 0 0 - - - 0;
#X obj 235 493 outlet;
#X obj 528 233 notein;
#X floatatom 528 257 5 0 0 0 - - - 0;
#X obj 528 280 mtof;
#X floatatom 528 304 5 0 0 0 - - - 0;
#X obj 356 496 outlet;
#X msg 235 333 67;
#X obj 114 294 sel 1;
#X obj 177 294 sel 16;
#X obj 235 293 sel 24;
#X msg 177 333 65;
#X connect 0 0 1 0;
#X connect 1 0 13 0;
#X connect 1 0 14 0;
#X connect 1 0 15 0;
#X connect 2 0 3 0;
#X connect 3 0 4 0;
#X connect 3 0 11 0;
#X connect 4 0 5 0;
#X connect 5 0 6 0;
#X connect 7 0 8 0;
#X connect 8 0 9 0;
#X connect 9 0 10 0;
#X connect 12 0 3 0;
#X connect 13 0 2 0;
#X connect 14 0 16 0;
#X connect 15 0 12 0;
#X connect 16 0 3 0;
