#N canvas 971 0 939 1016 12;
#X obj 197 330 float;
#X floatatom 197 396 5 0 0 0 - - - 0;
#X obj 258 329 +;
#X obj 197 258 tgl 15 0 empty empty empty 17 7 0 10 #fcfcfc #000000
#000000 0 1;
#X msg 276 281 1;
#X obj 277 37 loadbang;
#X obj 333 447 bng 15 250 50 0 empty empty empty 17 7 0 10 #fcfcfc
#000000 #000000;
#X text 7 282 sends a bang every 300 ms;
#X text 99 329 stores float;
#X text 414 412 sends Bang when float gets to 60;
#X obj 197 471 outlet;
#X obj 510 316 outlet;
#X obj 510 249 tgl 15 0 empty empty empty 17 7 0 10 #fcfcfc #000000
#000000 0 1;
#X obj 197 40 inlet;
#X msg 332 280 1, f 4;
#X text 367 277 resets float to 1;
#X msg 671 73 300;
#X msg 563 73 200;
#X msg 619 72 250;
#X floatatom 563 97 5 0 0 0 - - - 0;
#X floatatom 619 96 5 0 0 0 - - - 0;
#X floatatom 671 97 5 0 0 0 - - - 0;
#X obj 671 120 * 32;
#X floatatom 671 144 5 0 0 0 - - - 0;
#X floatatom 671 97 5 0 0 0 - - - 0;
#X floatatom 671 97 5 0 0 0 - - - 0;
#X obj 619 122 * 32;
#X floatatom 619 146 5 0 0 0 - - - 0;
#X obj 563 124 * 32;
#X floatatom 563 148 5 0 0 0 - - - 0;
#X obj 564 317 s Ambient_Note;
#X floatatom 506 99 5 0 0 0 - - - 0;
#X obj 506 126 * 32;
#X floatatom 506 150 5 0 0 0 - - - 0;
#X msg 506 75 100;
#X obj 79 227 bng 15 250 50 0 empty empty empty 17 7 0 10 #fcfcfc #000000
#000000;
#X obj 332 241 r restart;
#X floatatom 764 106 5 0 0 0 - - - 0;
#X obj 764 129 * 32;
#X floatatom 764 153 5 0 0 0 - - - 0;
#X floatatom 764 106 5 0 0 0 - - - 0;
#X floatatom 764 106 5 0 0 0 - - - 0;
#X msg 764 82 500;
#X floatatom 715 96 5 0 0 0 - - - 0;
#X obj 715 119 * 32;
#X floatatom 715 143 5 0 0 0 - - - 0;
#X floatatom 715 96 5 0 0 0 - - - 0;
#X floatatom 715 96 5 0 0 0 - - - 0;
#X msg 715 72 400;
#X obj 197 281 metro 400;
#X obj 360 414 sel 32;
#X obj 510 274 metro 6400, f 16;
#X connect 0 0 2 0;
#X connect 0 0 1 0;
#X connect 1 0 10 0;
#X connect 1 0 50 0;
#X connect 2 0 0 1;
#X connect 3 0 49 0;
#X connect 4 0 2 1;
#X connect 5 0 4 0;
#X connect 6 0 14 0;
#X connect 12 0 51 0;
#X connect 13 0 3 0;
#X connect 13 0 12 0;
#X connect 14 0 0 1;
#X connect 16 0 21 0;
#X connect 16 0 24 0;
#X connect 16 0 25 0;
#X connect 17 0 19 0;
#X connect 18 0 20 0;
#X connect 19 0 28 0;
#X connect 20 0 26 0;
#X connect 21 0 22 0;
#X connect 22 0 23 0;
#X connect 23 0 51 1;
#X connect 26 0 27 0;
#X connect 27 0 51 1;
#X connect 28 0 29 0;
#X connect 31 0 32 0;
#X connect 32 0 33 0;
#X connect 34 0 31 0;
#X connect 36 0 14 0;
#X connect 37 0 38 0;
#X connect 38 0 39 0;
#X connect 39 0 51 1;
#X connect 42 0 37 0;
#X connect 42 0 40 0;
#X connect 42 0 41 0;
#X connect 43 0 44 0;
#X connect 44 0 45 0;
#X connect 45 0 51 1;
#X connect 48 0 43 0;
#X connect 48 0 46 0;
#X connect 48 0 47 0;
#X connect 49 0 0 0;
#X connect 50 0 6 0;
#X connect 51 0 11 0;
#X connect 51 0 30 0;
