#N canvas 179 193 1920 1026 12;
#X obj 78 203 del 300;
#X obj 78 241 bng 15 250 50 0 empty empty empty 17 7 0 10 #fcfcfc #000000
#000000;
#X obj 16 242 bng 15 250 50 0 empty empty empty 17 7 0 10 #fcfcfc #000000
#000000;
#X obj 145 242 bng 15 250 50 0 empty empty empty 17 7 0 10 #fcfcfc
#000000 #000000;
#X obj 213 243 bng 15 250 50 0 empty empty empty 17 7 0 10 #fcfcfc
#000000 #000000;
#X obj 360 243 bng 15 250 50 0 empty empty empty 17 7 0 10 #fcfcfc
#000000 #000000;
#X obj 279 243 bng 15 250 50 0 empty empty empty 17 7 0 10 #fcfcfc
#000000 #000000;
#X obj 145 204 del 600;
#X obj 213 205 del 900;
#X obj 360 206 del 1500;
#X obj 16 105 r start;
#X obj 16 204 del 0;
#X obj 279 204 del 1200;
#X obj 1419 233 bng 15 250 50 0 empty empty empty 17 7 0 10 #fcfcfc
#000000 #000000;
#X obj 1357 234 bng 15 250 50 0 empty empty empty 17 7 0 10 #fcfcfc
#000000 #000000;
#X obj 1486 234 bng 15 250 50 0 empty empty empty 17 7 0 10 #fcfcfc
#000000 #000000;
#X obj 1554 235 bng 15 250 50 0 empty empty empty 17 7 0 10 #fcfcfc
#000000 #000000;
#X obj 1357 97 r start;
#X obj 1357 197 del 3600;
#X obj 1419 195 del 3900;
#X obj 1486 196 del 4200;
#X obj 1554 197 del 4500;
#X obj 997 238 bng 15 250 50 0 empty empty empty 17 7 0 10 #fcfcfc
#000000 #000000;
#X obj 926 237 bng 15 250 50 0 empty empty empty 17 7 0 10 #fcfcfc
#000000 #000000;
#X obj 926 100 r start;
#X obj 926 200 del 4800;
#X obj 997 200 del 5100;
#X obj 138 406 random 5;
#X obj 138 341 bng 15 250 50 0 empty empty empty 17 7 0 10 #fcfcfc
#000000 #000000;
#X floatatom 138 430 5 0 0 0 - - - 0;
#X obj 50 477 sel 0;
#X obj 104 477 sel 1;
#X obj 163 477 sel 2;
#X obj 217 478 sel 3;
#X obj 272 478 sel 4;
#X floatatom 163 581 5 0 0 0 - - - 0;
#X msg 50 501 48;
#X msg 105 501 50;
#X msg 163 501 52;
#X msg 217 502 55;
#X msg 272 502 57;
#X floatatom 361 573 5 0 0 0 - - - 0;
#X obj 361 465 random 20;
#X text 403 571 Velocity;
#X text 206 580 Midi Note;
#X obj 930 391 random 5;
#X obj 930 326 bng 15 250 50 0 empty empty empty 17 7 0 10 #fcfcfc
#000000 #000000;
#X floatatom 930 415 5 0 0 0 - - - 0;
#X obj 842 462 sel 0;
#X obj 896 462 sel 1;
#X obj 955 462 sel 2;
#X obj 1009 463 sel 3;
#X obj 1064 463 sel 4;
#X floatatom 955 566 5 0 0 0 - - - 0;
#X floatatom 1153 558 5 0 0 0 - - - 0;
#X obj 1153 450 random 20;
#X text 1195 556 Velocity;
#X text 998 565 Midi Note;
#X msg 842 486 72;
#X msg 897 486 74;
#X msg 955 486 76;
#X msg 1009 487 79;
#X msg 1064 487 81;
#X obj 1400 377 random 5;
#X floatatom 1400 401 5 0 0 0 - - - 0;
#X obj 1312 448 sel 0;
#X obj 1366 448 sel 1;
#X obj 1425 448 sel 2;
#X obj 1479 449 sel 3;
#X obj 1534 449 sel 4;
#X floatatom 1425 552 5 0 0 0 - - - 0;
#X floatatom 1623 544 5 0 0 0 - - - 0;
#X obj 1623 436 random 20;
#X text 1665 542 Velocity;
#X text 1468 551 Midi Note;
#X msg 1312 472 72;
#X msg 1367 472 74;
#X msg 1425 472 76;
#X msg 1479 473 79;
#X msg 1534 473 81;
#X obj 1410 322 bng 15 250 50 0 empty empty empty 17 7 0 10 #fcfcfc
#000000 #000000;
#X obj 1153 474 + 20;
#X obj 1623 460 + 1;
#X obj 362 492 + 60;
#X obj 931 849 outlet;
#X obj 1083 847 outlet;
#X obj 1837 31 inlet;
#X obj 1837 70 switch~;
#X connect 0 0 1 0;
#X connect 1 0 28 0;
#X connect 2 0 28 0;
#X connect 3 0 28 0;
#X connect 4 0 28 0;
#X connect 5 0 28 0;
#X connect 6 0 28 0;
#X connect 7 0 3 0;
#X connect 8 0 4 0;
#X connect 9 0 5 0;
#X connect 10 0 11 0;
#X connect 10 0 0 0;
#X connect 10 0 7 0;
#X connect 10 0 8 0;
#X connect 10 0 9 0;
#X connect 10 0 12 0;
#X connect 11 0 2 0;
#X connect 12 0 6 0;
#X connect 13 0 80 0;
#X connect 14 0 80 0;
#X connect 15 0 80 0;
#X connect 16 0 80 0;
#X connect 17 0 18 0;
#X connect 17 0 19 0;
#X connect 17 0 20 0;
#X connect 17 0 21 0;
#X connect 18 0 14 0;
#X connect 19 0 13 0;
#X connect 20 0 15 0;
#X connect 21 0 16 0;
#X connect 22 0 46 0;
#X connect 23 0 46 0;
#X connect 24 0 25 0;
#X connect 24 0 26 0;
#X connect 25 0 23 0;
#X connect 26 0 22 0;
#X connect 27 0 29 0;
#X connect 28 0 27 0;
#X connect 28 0 42 0;
#X connect 29 0 30 0;
#X connect 29 0 31 0;
#X connect 29 0 32 0;
#X connect 29 0 33 0;
#X connect 29 0 34 0;
#X connect 30 0 36 0;
#X connect 31 0 37 0;
#X connect 32 0 38 0;
#X connect 33 0 39 0;
#X connect 34 0 40 0;
#X connect 35 0 84 0;
#X connect 36 0 35 0;
#X connect 37 0 35 0;
#X connect 38 0 35 0;
#X connect 39 0 35 0;
#X connect 40 0 35 0;
#X connect 41 0 85 0;
#X connect 42 0 83 0;
#X connect 45 0 47 0;
#X connect 46 0 45 0;
#X connect 46 0 55 0;
#X connect 47 0 48 0;
#X connect 47 0 49 0;
#X connect 47 0 50 0;
#X connect 47 0 51 0;
#X connect 47 0 52 0;
#X connect 48 0 58 0;
#X connect 49 0 59 0;
#X connect 50 0 60 0;
#X connect 51 0 61 0;
#X connect 52 0 62 0;
#X connect 53 0 84 0;
#X connect 54 0 85 0;
#X connect 55 0 81 0;
#X connect 58 0 53 0;
#X connect 59 0 53 0;
#X connect 60 0 53 0;
#X connect 61 0 53 0;
#X connect 62 0 53 0;
#X connect 63 0 64 0;
#X connect 64 0 65 0;
#X connect 64 0 66 0;
#X connect 64 0 67 0;
#X connect 64 0 68 0;
#X connect 64 0 69 0;
#X connect 65 0 75 0;
#X connect 66 0 76 0;
#X connect 67 0 77 0;
#X connect 68 0 78 0;
#X connect 69 0 79 0;
#X connect 70 0 84 0;
#X connect 71 0 85 0;
#X connect 72 0 82 0;
#X connect 75 0 70 0;
#X connect 76 0 70 0;
#X connect 77 0 70 0;
#X connect 78 0 70 0;
#X connect 79 0 70 0;
#X connect 80 0 63 0;
#X connect 80 0 72 0;
#X connect 81 0 54 0;
#X connect 82 0 71 0;
#X connect 83 0 41 0;
#X connect 86 0 87 0;
