#N canvas 952 0 958 1016 12;
#X obj 59 818 outlet~;
#X obj 522 824 outlet~;
#X obj 57 16 inlet;
#X obj 358 23 r ID;
#X text 573 500 wet signal;
#X text 439 503 dry signal, f 20;
#X obj 1776 17 inlet;
#X obj 1776 58 switch~;
#N canvas 160 160 1078 725 Help 0;
#X obj 22 20 inlet;
#X floatatom 167 265 5 0 0 0 - - - 0;
#X obj 167 340 phasor~;
#X obj 167 162 bng 15 250 50 0 empty empty empty 17 7 0 10 #fcfcfc
#000000 #000000;
#X obj 233 162 bng 15 250 50 0 empty empty empty 17 7 0 10 #fcfcfc
#000000 #000000;
#X obj 297 163 bng 15 250 50 0 empty empty empty 17 7 0 10 #fcfcfc
#000000 #000000;
#X obj 355 162 bng 15 250 50 0 empty empty empty 17 7 0 10 #fcfcfc
#000000 #000000;
#X obj 167 290 mtof;
#X floatatom 167 316 5 0 0 0 - - - 0;
#X text 38 214 sets MIDI notes;
#X text 178 191 C;
#X text 247 189 F;
#X text 364 189 F;
#X text 308 190 G;
#X obj 169 439 *~;
#X obj 722 420 vline~, f 13;
#X msg 113 290 0;
#X obj 168 398 bob~, f 13;
#X obj 227 263 loadbang;
#X floatatom 300 355 5 0 8 0 - - - 0;
#X msg 227 355 150;
#X text 31 289 clear fq;
#X text 346 359 filter resonance;
#X text 255 355 fq;
#X text 98 397 low-pass;
#X text 750 339 envelope;
#X msg 300 327 3;
#X obj 415 132 sel 0;
#X obj 415 162 bng 15 250 50 0 empty empty empty 17 7 0 10 #fcfcfc
#000000 #000000;
#X obj 469 160 bng 15 250 50 0 empty empty empty 17 7 0 10 #fcfcfc
#000000 #000000;
#X obj 519 161 bng 15 250 50 0 empty empty empty 17 7 0 10 #fcfcfc
#000000 #000000;
#X obj 572 162 bng 15 250 50 0 empty empty empty 17 7 0 10 #fcfcfc
#000000 #000000;
#X obj 627 161 bng 15 250 50 0 empty empty empty 17 7 0 10 #fcfcfc
#000000 #000000;
#X obj 681 161 bng 15 250 50 0 empty empty empty 17 7 0 10 #fcfcfc
#000000 #000000;
#X obj 297 132 sel 0;
#X obj 355 130 sel 0;
#X obj 469 129 sel 0;
#X obj 519 130 sel 0;
#X obj 572 130 sel 0;
#X obj 627 130 sel 0;
#X obj 681 129 sel 0;
#X obj 722 176 bng 15 250 50 0 empty empty empty 17 7 0 10 #fcfcfc
#000000 #000000;
#X floatatom 167 93 5 0 0 0 - - - 0;
#X msg 722 367 0.7 10 \, 0.5 250 10 \, 0 500 260;
#X obj 169 510 outlet~;
#X obj 167 132 sel 0;
#X obj 234 131 sel 0;
#X msg 167 212 24;
#X msg 233 210 29;
#X msg 296 210 31;
#X msg 355 209 29;
#X msg 415 209 24;
#X msg 469 206 29;
#X msg 519 205 31;
#X msg 572 208 29;
#X msg 627 208 24;
#X msg 681 210 29;
#X text 809 105 C = 24;
#X text 807 127 D = 26;
#X text 809 150 E = 28;
#X text 811 175 G = 31;
#X text 813 197 A = 33;
#X connect 0 0 42 0;
#X connect 1 0 7 0;
#X connect 2 0 17 0;
#X connect 3 0 47 0;
#X connect 3 0 41 0;
#X connect 4 0 48 0;
#X connect 4 0 41 0;
#X connect 5 0 49 0;
#X connect 5 0 41 0;
#X connect 6 0 50 0;
#X connect 6 0 41 0;
#X connect 7 0 8 0;
#X connect 8 0 2 0;
#X connect 14 0 44 0;
#X connect 15 0 14 1;
#X connect 16 0 8 0;
#X connect 17 0 14 0;
#X connect 18 0 20 0;
#X connect 18 0 26 0;
#X connect 19 0 17 2;
#X connect 20 0 17 1;
#X connect 26 0 19 0;
#X connect 27 0 28 0;
#X connect 28 0 51 0;
#X connect 28 0 41 0;
#X connect 29 0 52 0;
#X connect 29 0 41 0;
#X connect 30 0 53 0;
#X connect 30 0 41 0;
#X connect 31 0 54 0;
#X connect 31 0 41 0;
#X connect 32 0 55 0;
#X connect 32 0 41 0;
#X connect 33 0 56 0;
#X connect 33 0 41 0;
#X connect 34 0 5 0;
#X connect 35 0 6 0;
#X connect 36 0 29 0;
#X connect 37 0 30 0;
#X connect 38 0 31 0;
#X connect 39 0 32 0;
#X connect 40 0 33 0;
#X connect 41 0 43 0;
#X connect 42 0 34 0;
#X connect 42 0 35 0;
#X connect 42 0 27 0;
#X connect 42 0 36 0;
#X connect 42 0 37 0;
#X connect 42 0 38 0;
#X connect 42 0 39 0;
#X connect 42 0 40 0;
#X connect 42 0 45 0;
#X connect 42 0 46 0;
#X connect 43 0 15 0;
#X connect 45 0 3 0;
#X connect 46 0 4 0;
#X connect 47 0 1 0;
#X connect 48 0 1 0;
#X connect 49 0 1 0;
#X connect 50 0 1 0;
#X connect 51 0 1 0;
#X connect 52 0 1 0;
#X connect 53 0 1 0;
#X connect 54 0 1 0;
#X connect 55 0 1 0;
#X connect 56 0 1 0;
#X restore 59 71 pd Help Horizont 1;
#N canvas 952 0 958 1016 Help 0;
#X obj 22 20 inlet;
#X floatatom 179 258 5 0 0 0 - - - 0;
#X obj 179 333 phasor~;
#X obj 179 155 bng 15 250 50 0 empty empty empty 17 7 0 10 #fcfcfc
#000000 #000000;
#X obj 245 155 bng 15 250 50 0 empty empty empty 17 7 0 10 #fcfcfc
#000000 #000000;
#X obj 309 156 bng 15 250 50 0 empty empty empty 17 7 0 10 #fcfcfc
#000000 #000000;
#X msg 309 203 43;
#X msg 367 202 41;
#X obj 367 155 bng 15 250 50 0 empty empty empty 17 7 0 10 #fcfcfc
#000000 #000000;
#X obj 179 283 mtof;
#X floatatom 179 309 5 0 0 0 - - - 0;
#X text 50 207 sets MIDI notes;
#X obj 181 432 *~;
#X obj 734 413 vline~, f 13;
#X msg 125 283 0;
#X obj 180 391 bob~, f 13;
#X obj 239 256 loadbang;
#X floatatom 312 348 5 0 8 0 - - - 0;
#X msg 239 348 150;
#X text 43 282 clear fq;
#X text 358 352 filter resonance;
#X text 267 348 fq;
#X text 110 390 low-pass;
#X text 762 332 envelope;
#X msg 312 320 3;
#X obj 427 125 sel 0;
#X obj 427 155 bng 15 250 50 0 empty empty empty 17 7 0 10 #fcfcfc
#000000 #000000;
#X obj 481 153 bng 15 250 50 0 empty empty empty 17 7 0 10 #fcfcfc
#000000 #000000;
#X obj 531 154 bng 15 250 50 0 empty empty empty 17 7 0 10 #fcfcfc
#000000 #000000;
#X obj 584 155 bng 15 250 50 0 empty empty empty 17 7 0 10 #fcfcfc
#000000 #000000;
#X obj 639 154 bng 15 250 50 0 empty empty empty 17 7 0 10 #fcfcfc
#000000 #000000;
#X obj 693 154 bng 15 250 50 0 empty empty empty 17 7 0 10 #fcfcfc
#000000 #000000;
#X obj 309 125 sel 0;
#X obj 367 123 sel 0;
#X obj 481 122 sel 0;
#X obj 531 123 sel 0;
#X obj 584 123 sel 0;
#X obj 639 123 sel 0;
#X obj 693 122 sel 0;
#X msg 427 202 36;
#X msg 481 199 41;
#X msg 531 198 43;
#X msg 584 201 41;
#X msg 639 201 36;
#X msg 693 203 41;
#X obj 734 169 bng 15 250 50 0 empty empty empty 17 7 0 10 #fcfcfc
#000000 #000000;
#X obj 179 125 sel 19;
#X obj 245 124 sel 20;
#X floatatom 179 86 5 0 0 0 - - - 0;
#X msg 734 360 0.7 10 \, 0.5 250 10 \, 0 500 260;
#X obj 181 503 outlet~;
#X text 809 105 C = 36;
#X text 807 127 D = 38;
#X text 809 150 E = 40;
#X text 811 175 G = 43;
#X text 813 197 A = 45;
#X msg 179 205 43;
#X msg 245 203 38;
#X connect 0 0 48 0;
#X connect 1 0 9 0;
#X connect 2 0 15 0;
#X connect 3 0 56 0;
#X connect 3 0 45 0;
#X connect 4 0 57 0;
#X connect 4 0 45 0;
#X connect 5 0 6 0;
#X connect 5 0 45 0;
#X connect 6 0 1 0;
#X connect 7 0 1 0;
#X connect 8 0 7 0;
#X connect 8 0 45 0;
#X connect 9 0 10 0;
#X connect 10 0 2 0;
#X connect 12 0 50 0;
#X connect 13 0 12 1;
#X connect 14 0 10 0;
#X connect 15 0 12 0;
#X connect 16 0 18 0;
#X connect 16 0 24 0;
#X connect 17 0 15 2;
#X connect 18 0 15 1;
#X connect 24 0 17 0;
#X connect 25 0 26 0;
#X connect 26 0 39 0;
#X connect 26 0 45 0;
#X connect 27 0 40 0;
#X connect 27 0 45 0;
#X connect 28 0 41 0;
#X connect 28 0 45 0;
#X connect 29 0 42 0;
#X connect 29 0 45 0;
#X connect 30 0 43 0;
#X connect 30 0 45 0;
#X connect 31 0 44 0;
#X connect 31 0 45 0;
#X connect 32 0 5 0;
#X connect 33 0 8 0;
#X connect 34 0 27 0;
#X connect 35 0 28 0;
#X connect 36 0 29 0;
#X connect 37 0 30 0;
#X connect 38 0 31 0;
#X connect 39 0 1 0;
#X connect 40 0 1 0;
#X connect 41 0 1 0;
#X connect 42 0 1 0;
#X connect 43 0 1 0;
#X connect 44 0 1 0;
#X connect 45 0 49 0;
#X connect 46 0 3 0;
#X connect 47 0 4 0;
#X connect 48 0 46 0;
#X connect 48 0 47 0;
#X connect 48 0 32 0;
#X connect 48 0 33 0;
#X connect 48 0 25 0;
#X connect 48 0 34 0;
#X connect 48 0 35 0;
#X connect 48 0 36 0;
#X connect 48 0 37 0;
#X connect 48 0 38 0;
#X connect 49 0 13 0;
#X connect 56 0 1 0;
#X connect 57 0 1 0;
#X restore 203 70 pd Help Horizont 2;
#N canvas 952 0 958 1016 Help 0;
#X obj 22 20 inlet;
#X floatatom 162 265 5 0 0 0 - - - 0;
#X obj 162 340 phasor~;
#X obj 162 162 bng 15 250 50 0 empty empty empty 17 7 0 10 #fcfcfc
#000000 #000000;
#X obj 228 162 bng 15 250 50 0 empty empty empty 17 7 0 10 #fcfcfc
#000000 #000000;
#X obj 292 163 bng 15 250 50 0 empty empty empty 17 7 0 10 #fcfcfc
#000000 #000000;
#X obj 350 162 bng 15 250 50 0 empty empty empty 17 7 0 10 #fcfcfc
#000000 #000000;
#X obj 162 290 mtof;
#X floatatom 162 316 5 0 0 0 - - - 0;
#X text 33 214 sets MIDI notes;
#X obj 164 439 *~;
#X obj 717 420 vline~, f 13;
#X msg 108 290 0;
#X obj 163 398 bob~, f 13;
#X obj 222 263 loadbang;
#X floatatom 295 355 5 0 8 0 - - - 0;
#X text 26 289 clear fq;
#X text 341 359 filter resonance;
#X text 250 355 fq;
#X text 93 397 low-pass;
#X text 745 339 envelope;
#X obj 410 132 sel 0;
#X obj 410 162 bng 15 250 50 0 empty empty empty 17 7 0 10 #fcfcfc
#000000 #000000;
#X obj 464 160 bng 15 250 50 0 empty empty empty 17 7 0 10 #fcfcfc
#000000 #000000;
#X obj 514 161 bng 15 250 50 0 empty empty empty 17 7 0 10 #fcfcfc
#000000 #000000;
#X obj 567 162 bng 15 250 50 0 empty empty empty 17 7 0 10 #fcfcfc
#000000 #000000;
#X obj 622 161 bng 15 250 50 0 empty empty empty 17 7 0 10 #fcfcfc
#000000 #000000;
#X obj 676 161 bng 15 250 50 0 empty empty empty 17 7 0 10 #fcfcfc
#000000 #000000;
#X obj 292 132 sel 0;
#X obj 350 130 sel 0;
#X obj 464 129 sel 0;
#X obj 514 130 sel 0;
#X obj 567 130 sel 0;
#X obj 622 130 sel 0;
#X obj 676 129 sel 0;
#X msg 464 206 41;
#X msg 514 205 43;
#X msg 567 208 41;
#X msg 622 208 36;
#X msg 676 210 41;
#X obj 717 176 bng 15 250 50 0 empty empty empty 17 7 0 10 #fcfcfc
#000000 #000000;
#X floatatom 162 93 5 0 0 0 - - - 0;
#X obj 228 131 sel 0;
#X obj 162 132 sel 21;
#X msg 229 210 53;
#X msg 292 210 55;
#X msg 350 209 53;
#X msg 410 209 48;
#X msg 718 367 0.3 10 \, 0.5 250 10 \, 0 500 260;
#X msg 222 355 300;
#X msg 295 327 3;
#X obj 163 508 outlet~;
#X text 809 105 C = 48;
#X text 807 127 D = 50;
#X text 809 150 E = 52;
#X text 811 175 G = 55;
#X text 813 197 A = 57;
#X msg 162 212 50;
#X connect 0 0 41 0;
#X connect 1 0 7 0;
#X connect 2 0 13 0;
#X connect 3 0 40 0;
#X connect 3 0 57 0;
#X connect 4 0 40 0;
#X connect 4 0 44 0;
#X connect 5 0 45 0;
#X connect 5 0 40 0;
#X connect 6 0 46 0;
#X connect 6 0 40 0;
#X connect 7 0 8 0;
#X connect 8 0 2 0;
#X connect 10 0 51 0;
#X connect 11 0 10 1;
#X connect 12 0 8 0;
#X connect 13 0 10 0;
#X connect 14 0 49 0;
#X connect 14 0 50 0;
#X connect 15 0 13 2;
#X connect 21 0 22 0;
#X connect 22 0 47 0;
#X connect 22 0 40 0;
#X connect 23 0 35 0;
#X connect 23 0 40 0;
#X connect 24 0 36 0;
#X connect 24 0 40 0;
#X connect 25 0 37 0;
#X connect 25 0 40 0;
#X connect 26 0 38 0;
#X connect 26 0 40 0;
#X connect 27 0 39 0;
#X connect 27 0 40 0;
#X connect 28 0 5 0;
#X connect 29 0 6 0;
#X connect 30 0 23 0;
#X connect 31 0 24 0;
#X connect 32 0 25 0;
#X connect 33 0 26 0;
#X connect 34 0 27 0;
#X connect 35 0 1 0;
#X connect 36 0 1 0;
#X connect 37 0 1 0;
#X connect 38 0 1 0;
#X connect 39 0 1 0;
#X connect 40 0 48 0;
#X connect 41 0 28 0;
#X connect 41 0 29 0;
#X connect 41 0 21 0;
#X connect 41 0 30 0;
#X connect 41 0 31 0;
#X connect 41 0 32 0;
#X connect 41 0 33 0;
#X connect 41 0 34 0;
#X connect 41 0 42 0;
#X connect 41 0 43 0;
#X connect 42 0 4 0;
#X connect 43 0 3 0;
#X connect 44 0 1 0;
#X connect 45 0 1 0;
#X connect 46 0 1 0;
#X connect 47 0 1 0;
#X connect 48 0 11 0;
#X connect 49 0 13 1;
#X connect 50 0 15 0;
#X connect 57 0 1 0;
#X restore 358 69 pd Help Horizont 3;
#N canvas 954 0 956 1016 Help 0;
#X obj 22 20 inlet;
#X obj 22 509 outlet~;
#X floatatom 167 265 5 0 0 0 - - - 0;
#X obj 167 340 phasor~;
#X obj 167 162 bng 15 250 50 0 empty empty empty 17 7 0 10 #fcfcfc
#000000 #000000;
#X obj 233 162 bng 15 250 50 0 empty empty empty 17 7 0 10 #fcfcfc
#000000 #000000;
#X obj 297 163 bng 15 250 50 0 empty empty empty 17 7 0 10 #fcfcfc
#000000 #000000;
#X obj 355 162 bng 15 250 50 0 empty empty empty 17 7 0 10 #fcfcfc
#000000 #000000;
#X obj 167 290 mtof;
#X floatatom 167 316 5 0 0 0 - - - 0;
#X text 38 214 sets MIDI notes;
#X text 178 191 C;
#X text 247 189 F;
#X text 364 189 F;
#X text 308 190 G;
#X obj 169 439 *~;
#X obj 722 420 vline~, f 13;
#X msg 113 290 0;
#X obj 168 398 bob~, f 13;
#X obj 227 263 loadbang;
#X floatatom 300 355 5 0 8 0 - - - 0;
#X msg 227 355 150;
#X text 31 289 clear fq;
#X text 346 359 filter resonance;
#X text 255 355 fq;
#X text 98 397 low-pass;
#X text 750 339 envelope;
#X msg 300 327 3;
#X obj 415 132 sel 0;
#X obj 415 162 bng 15 250 50 0 empty empty empty 17 7 0 10 #fcfcfc
#000000 #000000;
#X obj 469 160 bng 15 250 50 0 empty empty empty 17 7 0 10 #fcfcfc
#000000 #000000;
#X obj 519 161 bng 15 250 50 0 empty empty empty 17 7 0 10 #fcfcfc
#000000 #000000;
#X obj 572 162 bng 15 250 50 0 empty empty empty 17 7 0 10 #fcfcfc
#000000 #000000;
#X obj 627 161 bng 15 250 50 0 empty empty empty 17 7 0 10 #fcfcfc
#000000 #000000;
#X obj 681 161 bng 15 250 50 0 empty empty empty 17 7 0 10 #fcfcfc
#000000 #000000;
#X obj 297 132 sel 0;
#X obj 355 130 sel 0;
#X obj 469 129 sel 0;
#X obj 519 130 sel 0;
#X obj 572 130 sel 0;
#X obj 627 130 sel 0;
#X obj 681 129 sel 0;
#X obj 722 176 bng 15 250 50 0 empty empty empty 17 7 0 10 #fcfcfc
#000000 #000000;
#X floatatom 167 93 5 0 0 0 - - - 0;
#X msg 722 367 0.7 10 \, 0.5 250 10 \, 0 500 260;
#X obj 167 132 sel 0;
#X obj 234 131 sel 0;
#X msg 167 212 60;
#X msg 233 210 65;
#X msg 296 210 67;
#X msg 355 209 65;
#X msg 415 210 60;
#X msg 469 206 65;
#X msg 519 205 67;
#X msg 572 208 65;
#X msg 627 208 60;
#X msg 681 210 65;
#X connect 0 0 43 0;
#X connect 2 0 8 0;
#X connect 3 0 18 0;
#X connect 4 0 47 0;
#X connect 4 0 42 0;
#X connect 5 0 48 0;
#X connect 5 0 42 0;
#X connect 6 0 49 0;
#X connect 6 0 42 0;
#X connect 7 0 50 0;
#X connect 7 0 42 0;
#X connect 8 0 9 0;
#X connect 9 0 3 0;
#X connect 15 0 1 0;
#X connect 16 0 15 1;
#X connect 17 0 9 0;
#X connect 18 0 15 0;
#X connect 19 0 21 0;
#X connect 19 0 27 0;
#X connect 20 0 18 2;
#X connect 21 0 18 1;
#X connect 27 0 20 0;
#X connect 28 0 29 0;
#X connect 29 0 51 0;
#X connect 29 0 42 0;
#X connect 30 0 52 0;
#X connect 30 0 42 0;
#X connect 31 0 53 0;
#X connect 31 0 42 0;
#X connect 32 0 54 0;
#X connect 32 0 42 0;
#X connect 33 0 55 0;
#X connect 33 0 42 0;
#X connect 34 0 56 0;
#X connect 34 0 42 0;
#X connect 35 0 6 0;
#X connect 36 0 7 0;
#X connect 37 0 30 0;
#X connect 38 0 31 0;
#X connect 39 0 32 0;
#X connect 40 0 33 0;
#X connect 41 0 34 0;
#X connect 42 0 44 0;
#X connect 43 0 35 0;
#X connect 43 0 36 0;
#X connect 43 0 28 0;
#X connect 43 0 37 0;
#X connect 43 0 38 0;
#X connect 43 0 39 0;
#X connect 43 0 40 0;
#X connect 43 0 41 0;
#X connect 43 0 45 0;
#X connect 43 0 46 0;
#X connect 44 0 16 0;
#X connect 45 0 4 0;
#X connect 46 0 5 0;
#X connect 47 0 2 0;
#X connect 48 0 2 0;
#X connect 49 0 2 0;
#X connect 50 0 2 0;
#X connect 51 0 2 0;
#X connect 52 0 2 0;
#X connect 53 0 2 0;
#X connect 54 0 2 0;
#X connect 55 0 2 0;
#X connect 56 0 2 0;
#X restore 522 71 pd Help Horizont 4;
#N canvas 192 192 450 300 L/R 0;
#X floatatom 100 180 5 0 0 0 - - - 0;
#X obj 100 40 r XState;
#X floatatom 100 64 6 0 0 0 - - - 0;
#X obj 100 87 / 960;
#X floatatom 100 111 5 0 0 0 - - - 0;
#X obj 100 145 scale 0.7 1, f 15;
#X floatatom 100 245 5 0 0 0 - - - 0;
#X floatatom 183 288 5 0 0 0 - - - 0;
#X obj 183 263 >= 0;
#X obj 100 328 *;
#X floatatom 100 360 5 0 0 0 - - - 0;
#X obj 101 203 / 2;
#X obj 100 396 expr 1 - $f1;
#X floatatom 100 420 5 0 0 0 - - - 0;
#X floatatom 199 463 5 0 0 0 - - - 0;
#X obj 199 438 >= 0;
#X obj 100 481 *;
#X floatatom 100 505 5 0 0 0 - - - 0;
#X obj 100 544 expr 1 - $f1;
#X floatatom 100 579 5 0 0 0 - - - 0;
#X floatatom 185 622 5 0 0 0 - - - 0;
#X obj 185 597 >= 0;
#X obj 100 640 *;
#X floatatom 100 664 5 0 0 0 - - - 0;
#X obj 100 698 outlet;
#X connect 0 0 11 0;
#X connect 1 0 2 0;
#X connect 2 0 3 0;
#X connect 3 0 4 0;
#X connect 4 0 5 0;
#X connect 5 0 0 0;
#X connect 6 0 8 0;
#X connect 6 0 9 0;
#X connect 7 0 9 1;
#X connect 8 0 7 0;
#X connect 9 0 10 0;
#X connect 10 0 12 0;
#X connect 11 0 6 0;
#X connect 12 0 13 0;
#X connect 13 0 16 0;
#X connect 13 0 15 0;
#X connect 14 0 16 1;
#X connect 15 0 14 0;
#X connect 16 0 17 0;
#X connect 17 0 18 0;
#X connect 18 0 19 0;
#X connect 19 0 22 0;
#X connect 19 0 21 0;
#X connect 20 0 22 1;
#X connect 21 0 20 0;
#X connect 22 0 23 0;
#X connect 23 0 24 0;
#X restore 238 525 pd L/R Balance;
#N canvas 224 224 930 733 O/U 0;
#X floatatom 39 158 5 0 0 0 - - - 0;
#X floatatom 39 42 6 0 0 0 - - - 0;
#X floatatom 39 89 5 0 0 0 - - - 0;
#X obj 39 123 scale 0.7 1, f 15;
#X floatatom 39 223 5 0 0 0 - - - 0;
#X floatatom 122 266 5 0 0 0 - - - 0;
#X obj 122 241 >= 0;
#X obj 39 306 *;
#X floatatom 39 338 5 0 0 0 - - - 0;
#X obj 40 181 / 2;
#X obj 39 374 expr 1 - $f1;
#X floatatom 39 398 5 0 0 0 - - - 0;
#X floatatom 138 441 5 0 0 0 - - - 0;
#X obj 138 416 >= 0;
#X obj 39 459 *;
#X floatatom 39 483 5 0 0 0 - - - 0;
#X obj 39 522 expr 1 - $f1;
#X floatatom 39 557 5 0 0 0 - - - 0;
#X floatatom 124 600 5 0 0 0 - - - 0;
#X obj 124 575 >= 0;
#X obj 39 618 *;
#X floatatom 39 642 5 0 0 0 - - - 0;
#X obj 39 676 outlet;
#X obj 39 18 r YState;
#X obj 39 65 / 540;
#X connect 0 0 9 0;
#X connect 1 0 24 0;
#X connect 2 0 3 0;
#X connect 3 0 0 0;
#X connect 4 0 6 0;
#X connect 4 0 7 0;
#X connect 5 0 7 1;
#X connect 6 0 5 0;
#X connect 7 0 8 0;
#X connect 8 0 10 0;
#X connect 9 0 4 0;
#X connect 10 0 11 0;
#X connect 11 0 14 0;
#X connect 11 0 13 0;
#X connect 12 0 14 1;
#X connect 13 0 12 0;
#X connect 14 0 15 0;
#X connect 15 0 16 0;
#X connect 16 0 17 0;
#X connect 17 0 20 0;
#X connect 17 0 19 0;
#X connect 18 0 20 1;
#X connect 19 0 18 0;
#X connect 20 0 21 0;
#X connect 21 0 22 0;
#X connect 23 0 1 0;
#X connect 24 0 2 0;
#X restore 243 653 pd O/U Balance;
#X floatatom 238 549 5 0 0 0 - - - 0;
#X floatatom 243 677 5 0 0 0 - - - 0;
#X obj 58 764 *~;
#X obj 521 762 *~;
#X obj 522 631 *~;
#X obj 59 606 *~;
#X obj 59 492 *~ 1.2;
#X obj 522 500 *~ 0.6;
#X connect 3 0 8 0;
#X connect 3 0 9 0;
#X connect 3 0 10 0;
#X connect 3 0 11 0;
#X connect 6 0 7 0;
#X connect 8 0 20 0;
#X connect 9 0 20 0;
#X connect 9 0 21 0;
#X connect 10 0 20 0;
#X connect 10 0 21 0;
#X connect 11 0 20 0;
#X connect 11 0 21 0;
#X connect 12 0 14 0;
#X connect 13 0 15 0;
#X connect 14 0 19 1;
#X connect 14 0 18 1;
#X connect 15 0 16 1;
#X connect 15 0 17 1;
#X connect 16 0 0 0;
#X connect 17 0 1 0;
#X connect 18 0 17 0;
#X connect 19 0 16 0;
#X connect 20 0 19 0;
#X connect 21 0 18 0;
