#N canvas 952 0 958 1016 12;
#X obj 514 24 inlet;
#X obj 314 28 r ID;
#X floatatom 314 56 5 0 0 0 - - - 0;
#N canvas 952 0 958 1016 Family 0;
#X obj 21 11 inlet;
#X obj 25 633 outlet;
#X obj 361 630 outlet;
#X text 77 636 Midi Note;
#X text 290 630 Velocity;
#X text 68 12 ID;
#X floatatom 297 348 5 0 0 0 - - - 0;
#X floatatom 420 417 5 0 0 0 - - - 0;
#X text 506 351 Velocity;
#X text 332 351 Midi Note;
#X floatatom 46 85 5 0 0 0 - - - 0;
#X obj 46 186 bng 15 250 50 0 empty empty empty 17 7 0 10 #fcfcfc #000000
#000000;
#X obj 100 185 bng 15 250 50 0 empty empty empty 17 7 0 10 #fcfcfc
#000000 #000000;
#X obj 154 185 bng 15 250 50 0 empty empty empty 17 7 0 10 #fcfcfc
#000000 #000000;
#X obj 213 186 bng 15 250 50 0 empty empty empty 17 7 0 10 #fcfcfc
#000000 #000000;
#X obj 372 189 bng 15 250 50 0 empty empty empty 17 7 0 10 #fcfcfc
#000000 #000000;
#X obj 268 188 bng 15 250 50 0 empty empty empty 17 7 0 10 #fcfcfc
#000000 #000000;
#X obj 318 187 bng 15 250 50 0 empty empty empty 17 7 0 10 #fcfcfc
#000000 #000000;
#X obj 484 191 bng 15 250 50 0 empty empty empty 17 7 0 10 #fcfcfc
#000000 #000000;
#X obj 431 188 bng 15 250 50 0 empty empty empty 17 7 0 10 #fcfcfc
#000000 #000000;
#X obj 540 191 bng 15 250 50 0 empty empty empty 17 7 0 10 #fcfcfc
#000000 #000000;
#X text 16 85 ID;
#X obj 46 149 sel 1;
#X obj 100 149 sel 2;
#X obj 154 149 sel 3;
#X obj 213 150 sel 4;
#X obj 268 150 sel 5;
#X obj 318 150 sel 6;
#X obj 372 150 sel 0;
#X obj 430 150 sel 0;
#X obj 484 149 sel 0;
#X obj 540 147 sel 0;
#X obj 420 350 random 4, f 11;
#X obj 420 379 + 7;
#X obj 720 88 notein;
#X floatatom 720 112 5 0 0 0 - - - 0;
#X text 782 280 C = 48;
#X text 782 304 D = 50;
#X text 784 329 E = 52;
#X text 784 348 G = 55;
#X text 784 371 A = 57;
#X msg 46 235 52;
#X msg 100 233 55;
#X msg 154 231 52;
#X msg 213 231 52;
#X msg 268 231 55;
#X msg 318 230 57;
#X msg 372 233 0;
#X msg 431 229 0;
#X msg 484 230 0;
#X msg 540 231 0;
#X connect 0 0 10 0;
#X connect 6 0 1 0;
#X connect 7 0 2 0;
#X connect 10 0 22 0;
#X connect 10 0 23 0;
#X connect 10 0 24 0;
#X connect 10 0 25 0;
#X connect 10 0 26 0;
#X connect 10 0 27 0;
#X connect 10 0 28 0;
#X connect 10 0 29 0;
#X connect 10 0 30 0;
#X connect 10 0 31 0;
#X connect 11 0 41 0;
#X connect 11 0 32 0;
#X connect 12 0 42 0;
#X connect 12 0 32 0;
#X connect 13 0 43 0;
#X connect 13 0 32 0;
#X connect 14 0 44 0;
#X connect 14 0 32 0;
#X connect 15 0 47 0;
#X connect 15 0 32 0;
#X connect 16 0 45 0;
#X connect 16 0 32 0;
#X connect 17 0 46 0;
#X connect 17 0 32 0;
#X connect 18 0 49 0;
#X connect 18 0 32 0;
#X connect 19 0 48 0;
#X connect 19 0 32 0;
#X connect 20 0 50 0;
#X connect 20 0 32 0;
#X connect 22 0 11 0;
#X connect 23 0 12 0;
#X connect 24 0 13 0;
#X connect 25 0 14 0;
#X connect 26 0 16 0;
#X connect 27 0 17 0;
#X connect 28 0 15 0;
#X connect 29 0 19 0;
#X connect 30 0 18 0;
#X connect 31 0 20 0;
#X connect 32 0 33 0;
#X connect 33 0 7 0;
#X connect 34 0 35 0;
#X connect 41 0 6 0;
#X connect 42 0 6 0;
#X connect 43 0 6 0;
#X connect 44 0 6 0;
#X connect 45 0 6 0;
#X connect 46 0 6 0;
#X connect 47 0 6 0;
#X connect 48 0 6 0;
#X connect 49 0 6 0;
#X connect 50 0 6 0;
#X restore 314 97 pd Family Horizont 1;
#X f 25;
#N canvas 37 160 1001 763 Family 0;
#X obj 61 48 inlet;
#X obj 19 711 outlet;
#X text 105 48 ID;
#X text 72 712 MIDI;
#X obj 374 712 outlet;
#X text 309 711 Velocity;
#X floatatom 312 366 5 0 0 0 - - - 0;
#X floatatom 435 435 5 0 0 0 - - - 0;
#X text 521 369 Velocity;
#X text 347 369 Midi Note;
#X floatatom 61 103 5 0 0 0 - - - 0;
#X obj 61 204 bng 15 250 50 0 empty empty empty 17 7 0 10 #fcfcfc #000000
#000000;
#X obj 115 203 bng 15 250 50 0 empty empty empty 17 7 0 10 #fcfcfc
#000000 #000000;
#X obj 169 203 bng 15 250 50 0 empty empty empty 17 7 0 10 #fcfcfc
#000000 #000000;
#X obj 228 204 bng 15 250 50 0 empty empty empty 17 7 0 10 #fcfcfc
#000000 #000000;
#X obj 387 207 bng 15 250 50 0 empty empty empty 17 7 0 10 #fcfcfc
#000000 #000000;
#X obj 283 206 bng 15 250 50 0 empty empty empty 17 7 0 10 #fcfcfc
#000000 #000000;
#X obj 333 205 bng 15 250 50 0 empty empty empty 17 7 0 10 #fcfcfc
#000000 #000000;
#X obj 499 209 bng 15 250 50 0 empty empty empty 17 7 0 10 #fcfcfc
#000000 #000000;
#X obj 446 206 bng 15 250 50 0 empty empty empty 17 7 0 10 #fcfcfc
#000000 #000000;
#X obj 555 209 bng 15 250 50 0 empty empty empty 17 7 0 10 #fcfcfc
#000000 #000000;
#X text 31 103 ID;
#X obj 169 167 sel 0;
#X obj 228 168 sel 0;
#X obj 283 168 sel 0;
#X obj 333 168 sel 0;
#X obj 387 168 sel 0;
#X obj 445 168 sel 0;
#X obj 499 167 sel 0;
#X obj 555 166 sel 0;
#X msg 61 253 67;
#X msg 115 251 64;
#X msg 169 249 62;
#X msg 228 249 60;
#X msg 283 249 69;
#X msg 333 248 64;
#X msg 387 250 62;
#X msg 447 247 60;
#X msg 499 248 57;
#X msg 555 249 60;
#X obj 435 397 + 5;
#X obj 435 368 random 2, f 11;
#X obj 61 167 sel 0;
#X obj 115 167 sel 0;
#X text 782 280 C = 60;
#X text 782 304 D = 62;
#X text 784 329 E = 64;
#X text 784 348 G = 67;
#X text 784 371 A = 69;
#X obj 819 134 notein;
#X floatatom 819 158 5 0 0 0 - - - 0;
#X connect 0 0 10 0;
#X connect 6 0 1 0;
#X connect 7 0 4 0;
#X connect 10 0 22 0;
#X connect 10 0 23 0;
#X connect 10 0 24 0;
#X connect 10 0 25 0;
#X connect 10 0 26 0;
#X connect 10 0 27 0;
#X connect 10 0 28 0;
#X connect 10 0 29 0;
#X connect 10 0 42 0;
#X connect 10 0 43 0;
#X connect 11 0 30 0;
#X connect 11 0 41 0;
#X connect 12 0 31 0;
#X connect 12 0 41 0;
#X connect 13 0 32 0;
#X connect 13 0 41 0;
#X connect 14 0 33 0;
#X connect 14 0 41 0;
#X connect 15 0 36 0;
#X connect 15 0 41 0;
#X connect 16 0 34 0;
#X connect 16 0 41 0;
#X connect 17 0 35 0;
#X connect 17 0 41 0;
#X connect 18 0 38 0;
#X connect 18 0 41 0;
#X connect 19 0 37 0;
#X connect 19 0 41 0;
#X connect 20 0 39 0;
#X connect 20 0 41 0;
#X connect 22 0 13 0;
#X connect 23 0 14 0;
#X connect 24 0 16 0;
#X connect 25 0 17 0;
#X connect 26 0 15 0;
#X connect 27 0 19 0;
#X connect 28 0 18 0;
#X connect 29 0 20 0;
#X connect 30 0 6 0;
#X connect 31 0 6 0;
#X connect 32 0 6 0;
#X connect 33 0 6 0;
#X connect 34 0 6 0;
#X connect 35 0 6 0;
#X connect 36 0 6 0;
#X connect 37 0 6 0;
#X connect 38 0 6 0;
#X connect 39 0 6 0;
#X connect 40 0 7 0;
#X connect 41 0 40 0;
#X connect 42 0 11 0;
#X connect 43 0 12 0;
#X connect 49 0 50 0;
#X restore 237 131 pd Family Horizont 2;
#X f 33;
#N canvas 1011 192 878 742 Family 0;
#X obj 14 9 inlet;
#X obj 15 699 outlet;
#X text 59 9 ID;
#X text 66 699 MIDI;
#X obj 492 700 outlet;
#X text 425 702 Velocity;
#X floatatom 297 426 5 0 0 0 - - - 0;
#X floatatom 420 495 5 0 0 0 - - - 0;
#X text 506 429 Velocity;
#X text 332 429 Midi Note;
#X floatatom 46 163 5 0 0 0 - - - 0;
#X obj 46 264 bng 15 250 50 0 empty empty empty 17 7 0 10 #fcfcfc #000000
#000000;
#X obj 100 263 bng 15 250 50 0 empty empty empty 17 7 0 10 #fcfcfc
#000000 #000000;
#X obj 154 263 bng 15 250 50 0 empty empty empty 17 7 0 10 #fcfcfc
#000000 #000000;
#X obj 213 264 bng 15 250 50 0 empty empty empty 17 7 0 10 #fcfcfc
#000000 #000000;
#X obj 372 267 bng 15 250 50 0 empty empty empty 17 7 0 10 #fcfcfc
#000000 #000000;
#X obj 268 266 bng 15 250 50 0 empty empty empty 17 7 0 10 #fcfcfc
#000000 #000000;
#X obj 318 265 bng 15 250 50 0 empty empty empty 17 7 0 10 #fcfcfc
#000000 #000000;
#X obj 484 269 bng 15 250 50 0 empty empty empty 17 7 0 10 #fcfcfc
#000000 #000000;
#X obj 431 266 bng 15 250 50 0 empty empty empty 17 7 0 10 #fcfcfc
#000000 #000000;
#X obj 540 269 bng 15 250 50 0 empty empty empty 17 7 0 10 #fcfcfc
#000000 #000000;
#X text 16 163 ID;
#X obj 46 227 sel 17;
#X obj 100 227 sel 18;
#X obj 154 227 sel 0;
#X obj 213 228 sel 0;
#X obj 268 228 sel 0;
#X obj 318 228 sel 0;
#X obj 372 228 sel 0;
#X obj 430 228 sel 0;
#X obj 484 227 sel 0;
#X obj 540 226 sel 0;
#X obj 420 428 random 2, f 11;
#X obj 420 457 + 3;
#X text 784 371 A = 69;
#X text 782 280 C = 72;
#X text 782 304 D = 74;
#X obj 725 97 notein;
#X floatatom 725 121 5 0 0 0 - - - 0;
#X text 784 329 E = 76;
#X text 784 348 G = 79;
#X msg 47 313 76;
#X msg 100 311 76;
#X msg 154 309 0;
#X msg 213 309 0;
#X msg 268 309 0;
#X msg 318 308 0;
#X msg 372 310 0;
#X msg 431 307 0;
#X msg 484 308 0;
#X msg 540 309 0;
#X connect 0 0 10 0;
#X connect 6 0 1 0;
#X connect 7 0 4 0;
#X connect 10 0 23 0;
#X connect 10 0 24 0;
#X connect 10 0 25 0;
#X connect 10 0 26 0;
#X connect 10 0 27 0;
#X connect 10 0 28 0;
#X connect 10 0 29 0;
#X connect 10 0 30 0;
#X connect 10 0 31 0;
#X connect 10 0 22 0;
#X connect 11 0 41 0;
#X connect 11 0 32 0;
#X connect 12 0 42 0;
#X connect 12 0 32 0;
#X connect 13 0 43 0;
#X connect 13 0 32 0;
#X connect 14 0 44 0;
#X connect 14 0 32 0;
#X connect 15 0 47 0;
#X connect 15 0 32 0;
#X connect 16 0 45 0;
#X connect 16 0 32 0;
#X connect 17 0 46 0;
#X connect 17 0 32 0;
#X connect 18 0 49 0;
#X connect 18 0 32 0;
#X connect 19 0 48 0;
#X connect 19 0 32 0;
#X connect 20 0 50 0;
#X connect 20 0 32 0;
#X connect 22 0 11 0;
#X connect 23 0 12 0;
#X connect 24 0 13 0;
#X connect 25 0 14 0;
#X connect 26 0 16 0;
#X connect 27 0 17 0;
#X connect 28 0 15 0;
#X connect 29 0 19 0;
#X connect 30 0 18 0;
#X connect 31 0 20 0;
#X connect 32 0 33 0;
#X connect 33 0 7 0;
#X connect 37 0 38 0;
#X connect 41 0 6 0;
#X connect 42 0 6 0;
#X connect 43 0 6 0;
#X connect 44 0 6 0;
#X connect 45 0 6 0;
#X connect 46 0 6 0;
#X connect 47 0 6 0;
#X connect 48 0 6 0;
#X connect 49 0 6 0;
#X connect 50 0 6 0;
#X restore 171 162 pd Family Horizont 3;
#X f 39;
#N canvas 990 192 883 712 Family 0;
#X obj 18 17 inlet;
#X obj 288 667 outlet;
#X text 60 18 ID;
#X text 339 668 Midi;
#X obj 522 665 outlet;
#X text 456 666 Velocity;
#X floatatom 288 387 5 0 0 0 - - - 0;
#X floatatom 437 452 5 0 0 0 - - - 0;
#X text 523 386 Velocity;
#X text 349 386 Midi Note;
#X floatatom 63 120 5 0 0 0 - - - 0;
#X obj 63 221 bng 15 250 50 0 empty empty empty 17 7 0 10 #fcfcfc #000000
#000000;
#X obj 117 220 bng 15 250 50 0 empty empty empty 17 7 0 10 #fcfcfc
#000000 #000000;
#X obj 171 220 bng 15 250 50 0 empty empty empty 17 7 0 10 #fcfcfc
#000000 #000000;
#X obj 230 221 bng 15 250 50 0 empty empty empty 17 7 0 10 #fcfcfc
#000000 #000000;
#X obj 389 224 bng 15 250 50 0 empty empty empty 17 7 0 10 #fcfcfc
#000000 #000000;
#X obj 285 223 bng 15 250 50 0 empty empty empty 17 7 0 10 #fcfcfc
#000000 #000000;
#X obj 335 222 bng 15 250 50 0 empty empty empty 17 7 0 10 #fcfcfc
#000000 #000000;
#X obj 501 226 bng 15 250 50 0 empty empty empty 17 7 0 10 #fcfcfc
#000000 #000000;
#X obj 448 223 bng 15 250 50 0 empty empty empty 17 7 0 10 #fcfcfc
#000000 #000000;
#X obj 557 226 bng 15 250 50 0 empty empty empty 17 7 0 10 #fcfcfc
#000000 #000000;
#X text 33 120 ID;
#X obj 285 185 sel 0;
#X obj 335 185 sel 0;
#X obj 389 185 sel 0;
#X obj 447 185 sel 0;
#X obj 501 184 sel 0;
#X obj 557 183 sel 0;
#X obj 437 385 random 2, f 11;
#X obj 63 184 sel 13;
#X obj 117 184 sel 14;
#X obj 171 184 sel 15;
#X obj 230 185 sel 16;
#X obj 437 416 + 1;
#X text 782 280 C = 84;
#X text 782 304 D = 86;
#X text 784 329 E = 88;
#X text 784 348 G = 91;
#X text 784 371 A = 93;
#X msg 64 270 86;
#X msg 117 268 86;
#X msg 230 266 84;
#X msg 171 266 84;
#X msg 285 266 0;
#X msg 335 265 0;
#X msg 389 267 0;
#X msg 449 264 0;
#X msg 501 265 0;
#X msg 557 266 0;
#X connect 0 0 10 0;
#X connect 6 0 1 0;
#X connect 7 0 4 0;
#X connect 10 0 22 0;
#X connect 10 0 23 0;
#X connect 10 0 24 0;
#X connect 10 0 25 0;
#X connect 10 0 26 0;
#X connect 10 0 27 0;
#X connect 10 0 29 0;
#X connect 10 0 30 0;
#X connect 10 0 31 0;
#X connect 10 0 32 0;
#X connect 11 0 39 0;
#X connect 11 0 28 0;
#X connect 12 0 40 0;
#X connect 12 0 28 0;
#X connect 13 0 42 0;
#X connect 13 0 28 0;
#X connect 14 0 41 0;
#X connect 14 0 28 0;
#X connect 15 0 45 0;
#X connect 15 0 28 0;
#X connect 16 0 43 0;
#X connect 16 0 28 0;
#X connect 17 0 44 0;
#X connect 17 0 28 0;
#X connect 18 0 47 0;
#X connect 18 0 28 0;
#X connect 19 0 46 0;
#X connect 19 0 28 0;
#X connect 20 0 48 0;
#X connect 20 0 28 0;
#X connect 22 0 16 0;
#X connect 23 0 17 0;
#X connect 24 0 15 0;
#X connect 25 0 19 0;
#X connect 26 0 18 0;
#X connect 27 0 20 0;
#X connect 28 0 33 0;
#X connect 29 0 11 0;
#X connect 30 0 12 0;
#X connect 31 0 13 0;
#X connect 32 0 14 0;
#X connect 33 0 7 0;
#X connect 39 0 6 0;
#X connect 40 0 6 0;
#X connect 41 0 6 0;
#X connect 42 0 6 0;
#X connect 43 0 6 0;
#X connect 44 0 6 0;
#X connect 45 0 6 0;
#X connect 46 0 6 0;
#X connect 47 0 6 0;
#X connect 48 0 6 0;
#X restore 70 197 pd Family Horizont 4;
#X f 51;
#X obj 237 296 Piano, f 36;
#X obj 235 617 outlet~;
#X obj 484 614 outlet~;
#X obj 598 24 inlet;
#X obj 598 88 switch~;
#X obj 661 25 tgl 15 0 empty empty empty 17 7 0 10 #fcfcfc #000000
#000000 0 1;
#N canvas 160 160 1530 681 L/R 0;
#X floatatom 100 180 5 0 0 0 - - - 0;
#X obj 100 40 r XState;
#X floatatom 100 64 6 0 0 0 - - - 0;
#X obj 100 87 / 960;
#X floatatom 100 111 5 0 0 0 - - - 0;
#X obj 100 145 scale 0.7 1, f 15;
#X floatatom 100 245 5 0 0 0 - - - 0;
#X floatatom 183 288 5 0 0 0 - - - 0;
#X obj 183 263 >= 0;
#X obj 100 328 *;
#X floatatom 100 360 5 0 0 0 - - - 0;
#X obj 101 203 / 2;
#X obj 100 396 expr 1 - $f1;
#X floatatom 100 420 5 0 0 0 - - - 0;
#X floatatom 199 463 5 0 0 0 - - - 0;
#X obj 199 438 >= 0;
#X obj 100 481 *;
#X floatatom 100 505 5 0 0 0 - - - 0;
#X obj 100 544 expr 1 - $f1;
#X floatatom 100 579 5 0 0 0 - - - 0;
#X floatatom 185 622 5 0 0 0 - - - 0;
#X obj 185 597 >= 0;
#X obj 100 640 *;
#X floatatom 100 664 5 0 0 0 - - - 0;
#X obj 100 698 outlet;
#X connect 0 0 11 0;
#X connect 1 0 2 0;
#X connect 2 0 3 0;
#X connect 3 0 4 0;
#X connect 4 0 5 0;
#X connect 5 0 0 0;
#X connect 6 0 8 0;
#X connect 6 0 9 0;
#X connect 7 0 9 1;
#X connect 8 0 7 0;
#X connect 9 0 10 0;
#X connect 10 0 12 0;
#X connect 11 0 6 0;
#X connect 12 0 13 0;
#X connect 13 0 16 0;
#X connect 13 0 15 0;
#X connect 14 0 16 1;
#X connect 15 0 14 0;
#X connect 16 0 17 0;
#X connect 17 0 18 0;
#X connect 18 0 19 0;
#X connect 19 0 22 0;
#X connect 19 0 21 0;
#X connect 20 0 22 1;
#X connect 21 0 20 0;
#X connect 22 0 23 0;
#X connect 23 0 24 0;
#X restore 334 331 pd L/R Balance;
#X floatatom 334 362 5 0 0 0 - - - 0;
#N canvas 32 32 1048 853 O/U 0;
#X floatatom 39 158 5 0 0 0 - - - 0;
#X floatatom 39 42 6 0 0 0 - - - 0;
#X floatatom 39 89 5 0 0 0 - - - 0;
#X obj 39 123 scale 0.7 1, f 15;
#X floatatom 39 223 5 0 0 0 - - - 0;
#X floatatom 122 266 5 0 0 0 - - - 0;
#X obj 122 241 >= 0;
#X obj 39 306 *;
#X floatatom 39 338 5 0 0 0 - - - 0;
#X obj 40 181 / 2;
#X obj 39 374 expr 1 - $f1;
#X floatatom 39 398 5 0 0 0 - - - 0;
#X floatatom 138 441 5 0 0 0 - - - 0;
#X obj 138 416 >= 0;
#X obj 39 459 *;
#X floatatom 39 483 5 0 0 0 - - - 0;
#X obj 39 676 outlet;
#X obj 39 18 r YState;
#X obj 39 65 / 540;
#X connect 0 0 9 0;
#X connect 1 0 18 0;
#X connect 2 0 3 0;
#X connect 3 0 0 0;
#X connect 4 0 6 0;
#X connect 4 0 7 0;
#X connect 5 0 7 1;
#X connect 6 0 5 0;
#X connect 7 0 8 0;
#X connect 8 0 10 0;
#X connect 9 0 4 0;
#X connect 10 0 11 0;
#X connect 11 0 14 0;
#X connect 11 0 13 0;
#X connect 12 0 14 1;
#X connect 13 0 12 0;
#X connect 14 0 15 0;
#X connect 15 0 16 0;
#X connect 17 0 1 0;
#X connect 18 0 2 0;
#X restore 327 443 pd O/U Balance;
#X floatatom 327 467 5 0 0 0 - - - 0;
#X obj 235 430 *~;
#X obj 484 433 *~;
#X obj 236 506 *~;
#X obj 485 508 *~;
#X connect 1 0 2 0;
#X connect 2 0 3 0;
#X connect 2 0 4 0;
#X connect 2 0 5 0;
#X connect 2 0 6 0;
#X connect 3 0 7 0;
#X connect 3 1 7 1;
#X connect 4 0 7 0;
#X connect 4 1 7 1;
#X connect 5 0 7 0;
#X connect 5 1 7 1;
#X connect 6 0 7 0;
#X connect 6 1 7 1;
#X connect 7 0 17 0;
#X connect 7 1 18 0;
#X connect 10 0 11 0;
#X connect 12 0 11 0;
#X connect 13 0 14 0;
#X connect 14 0 17 1;
#X connect 14 0 18 1;
#X connect 15 0 16 0;
#X connect 16 0 19 1;
#X connect 16 0 20 1;
#X connect 17 0 19 0;
#X connect 18 0 20 0;
#X connect 19 0 8 0;
#X connect 20 0 9 0;
