#N canvas 127 174 958 1016 12;
#X obj 430 21 inlet;
#X obj 147 25 r ID;
#X floatatom 147 53 5 0 0 0 - - - 0;
#X obj 430 69 switch~;
#X obj 71 24 inlet;
#X obj 56 308 outlet~;
#X obj 278 307 outlet~;
#X text 118 307 dry output;
#X text 336 308 wet output;
#X obj 57 222 Marimba, f 46;
#X obj 57 273 *~ 0.5;
#X obj 279 274 *~ 0.3;
#N canvas -8 0 958 1016 Friends 0;
#X obj 21 19 inlet;
#X obj 24 583 outlet;
#X obj 217 585 outlet;
#X text 76 582 MIDI outlet;
#X text 267 587 Velocity Outlet;
#X floatatom 373 369 5 0 0 0 - - - 0;
#X floatatom 495 438 5 0 0 0 - - - 0;
#X text 582 372 Velocity;
#X text 408 372 Midi Note;
#X floatatom 122 106 5 0 0 0 - - - 0;
#X obj 122 207 bng 15 250 50 0 empty empty empty 17 7 0 10 #fcfcfc
#000000 #000000;
#X obj 176 206 bng 15 250 50 0 empty empty empty 17 7 0 10 #fcfcfc
#000000 #000000;
#X obj 230 206 bng 15 250 50 0 empty empty empty 17 7 0 10 #fcfcfc
#000000 #000000;
#X obj 289 207 bng 15 250 50 0 empty empty empty 17 7 0 10 #fcfcfc
#000000 #000000;
#X obj 448 210 bng 15 250 50 0 empty empty empty 17 7 0 10 #fcfcfc
#000000 #000000;
#X obj 344 209 bng 15 250 50 0 empty empty empty 17 7 0 10 #fcfcfc
#000000 #000000;
#X obj 394 208 bng 15 250 50 0 empty empty empty 17 7 0 10 #fcfcfc
#000000 #000000;
#X obj 560 212 bng 15 250 50 0 empty empty empty 17 7 0 10 #fcfcfc
#000000 #000000;
#X obj 507 209 bng 15 250 50 0 empty empty empty 17 7 0 10 #fcfcfc
#000000 #000000;
#X obj 616 212 bng 15 250 50 0 empty empty empty 17 7 0 10 #fcfcfc
#000000 #000000;
#X text 92 106 ID;
#X obj 506 171 sel 0;
#X obj 560 170 sel 0;
#X obj 616 169 sel 0;
#X msg 122 256 67;
#X msg 176 254 64;
#X msg 230 252 62;
#X msg 289 252 60;
#X msg 344 252 69;
#X msg 394 251 64;
#X msg 560 251 57;
#X msg 616 252 60;
#X msg 448 253 1;
#X obj 63 201 bng 15 250 50 0 empty empty empty 17 7 0 10 #fcfcfc #000000
#000000;
#X msg 63 246 1;
#X obj 495 398 + 50;
#X obj 495 370 random 10, f 11;
#X obj 63 169 sel ß;
#X obj 230 170 sel 0;
#X obj 176 169 sel 0;
#X obj 122 170 sel 0;
#X obj 289 171 sel 0;
#X obj 344 171 sel 0;
#X obj 394 171 sel 0;
#X obj 450 170 sel 0;
#X msg 508 250 62;
#X connect 0 0 9 0;
#X connect 5 0 1 0;
#X connect 6 0 2 0;
#X connect 9 0 21 0;
#X connect 9 0 22 0;
#X connect 9 0 23 0;
#X connect 9 0 37 0;
#X connect 9 0 38 0;
#X connect 9 0 39 0;
#X connect 9 0 40 0;
#X connect 9 0 41 0;
#X connect 9 0 42 0;
#X connect 9 0 43 0;
#X connect 9 0 44 0;
#X connect 10 0 24 0;
#X connect 10 0 36 0;
#X connect 11 0 25 0;
#X connect 11 0 36 0;
#X connect 12 0 26 0;
#X connect 12 0 36 0;
#X connect 13 0 27 0;
#X connect 13 0 36 0;
#X connect 14 0 32 0;
#X connect 14 0 36 0;
#X connect 15 0 28 0;
#X connect 15 0 36 0;
#X connect 16 0 29 0;
#X connect 16 0 36 0;
#X connect 17 0 30 0;
#X connect 17 0 36 0;
#X connect 18 0 45 0;
#X connect 18 0 36 0;
#X connect 19 0 31 0;
#X connect 19 0 36 0;
#X connect 21 0 18 0;
#X connect 22 0 17 0;
#X connect 23 0 19 0;
#X connect 24 0 5 0;
#X connect 25 0 5 0;
#X connect 26 0 5 0;
#X connect 27 0 5 0;
#X connect 28 0 5 0;
#X connect 29 0 5 0;
#X connect 30 0 5 0;
#X connect 31 0 5 0;
#X connect 32 0 5 0;
#X connect 33 0 34 0;
#X connect 33 0 36 0;
#X connect 34 0 5 0;
#X connect 35 0 6 0;
#X connect 36 0 35 0;
#X connect 37 0 33 0;
#X connect 38 0 12 0;
#X connect 39 0 11 0;
#X connect 40 0 10 0;
#X connect 41 0 13 0;
#X connect 42 0 15 0;
#X connect 43 0 16 0;
#X connect 44 0 14 0;
#X connect 45 0 5 0;
#X restore 124 125 pd Friends Horizont 2;
#X f 27;
#N canvas -8 0 1920 1026 Friends 0;
#X obj 21 19 inlet;
#X obj 24 583 outlet;
#X obj 217 585 outlet;
#X text 76 582 MIDI outlet;
#X text 267 587 Velocity Outlet;
#X floatatom 373 369 5 0 0 0 - - - 0;
#X floatatom 495 438 5 0 0 0 - - - 0;
#X text 582 372 Velocity;
#X text 408 372 Midi Note;
#X floatatom 122 106 5 0 0 0 - - - 0;
#X obj 122 207 bng 15 250 50 0 empty empty empty 17 7 0 10 #fcfcfc
#000000 #000000;
#X obj 176 206 bng 15 250 50 0 empty empty empty 17 7 0 10 #fcfcfc
#000000 #000000;
#X obj 230 206 bng 15 250 50 0 empty empty empty 17 7 0 10 #fcfcfc
#000000 #000000;
#X obj 289 207 bng 15 250 50 0 empty empty empty 17 7 0 10 #fcfcfc
#000000 #000000;
#X obj 448 210 bng 15 250 50 0 empty empty empty 17 7 0 10 #fcfcfc
#000000 #000000;
#X obj 344 209 bng 15 250 50 0 empty empty empty 17 7 0 10 #fcfcfc
#000000 #000000;
#X obj 394 208 bng 15 250 50 0 empty empty empty 17 7 0 10 #fcfcfc
#000000 #000000;
#X obj 560 212 bng 15 250 50 0 empty empty empty 17 7 0 10 #fcfcfc
#000000 #000000;
#X obj 507 209 bng 15 250 50 0 empty empty empty 17 7 0 10 #fcfcfc
#000000 #000000;
#X obj 616 212 bng 15 250 50 0 empty empty empty 17 7 0 10 #fcfcfc
#000000 #000000;
#X text 92 106 ID;
#X obj 506 171 sel 0;
#X obj 560 170 sel 0;
#X obj 616 169 sel 0;
#X msg 448 253 1;
#X obj 63 201 bng 15 250 50 0 empty empty empty 17 7 0 10 #fcfcfc #000000
#000000;
#X msg 63 246 1;
#X obj 495 398 + 50;
#X obj 495 370 random 10, f 11;
#X msg 122 256 79;
#X msg 176 254 76;
#X msg 230 252 74;
#X msg 289 252 72;
#X msg 344 252 81;
#X msg 394 251 76;
#X msg 560 251 69;
#X msg 616 252 72;
#X obj 63 169 sel 0;
#X obj 122 170 sel 0;
#X obj 176 170 sel 0;
#X obj 230 170 sel 0;
#X obj 289 171 sel 0;
#X obj 345 171 sel 0;
#X obj 394 171 sel 0;
#X obj 448 171 sel 0;
#X msg 507 250 74;
#X connect 0 0 9 0;
#X connect 5 0 1 0;
#X connect 6 0 2 0;
#X connect 9 0 21 0;
#X connect 9 0 22 0;
#X connect 9 0 23 0;
#X connect 9 0 37 0;
#X connect 9 0 38 0;
#X connect 9 0 39 0;
#X connect 9 0 40 0;
#X connect 9 0 41 0;
#X connect 9 0 42 0;
#X connect 9 0 43 0;
#X connect 9 0 44 0;
#X connect 10 0 29 0;
#X connect 10 0 28 0;
#X connect 11 0 30 0;
#X connect 11 0 28 0;
#X connect 12 0 31 0;
#X connect 12 0 28 0;
#X connect 13 0 32 0;
#X connect 13 0 28 0;
#X connect 14 0 24 0;
#X connect 14 0 28 0;
#X connect 15 0 33 0;
#X connect 15 0 28 0;
#X connect 16 0 34 0;
#X connect 16 0 28 0;
#X connect 17 0 35 0;
#X connect 17 0 28 0;
#X connect 18 0 45 0;
#X connect 18 0 28 0;
#X connect 19 0 36 0;
#X connect 19 0 28 0;
#X connect 21 0 18 0;
#X connect 22 0 17 0;
#X connect 23 0 19 0;
#X connect 24 0 5 0;
#X connect 25 0 26 0;
#X connect 25 0 28 0;
#X connect 26 0 5 0;
#X connect 27 0 6 0;
#X connect 28 0 27 0;
#X connect 29 0 5 0;
#X connect 30 0 5 0;
#X connect 31 0 5 0;
#X connect 32 0 5 0;
#X connect 33 0 5 0;
#X connect 34 0 5 0;
#X connect 35 0 5 0;
#X connect 36 0 5 0;
#X connect 37 0 25 0;
#X connect 38 0 10 0;
#X connect 39 0 11 0;
#X connect 40 0 12 0;
#X connect 41 0 13 0;
#X connect 42 0 15 0;
#X connect 43 0 16 0;
#X connect 44 0 14 0;
#X connect 45 0 5 0;
#X restore 97 148 pd Friends Horizont 3;
#N canvas -8 0 958 1016 Friends 0;
#X obj 21 19 inlet;
#X obj 24 583 outlet;
#X obj 217 585 outlet;
#X text 76 582 MIDI outlet;
#X text 267 587 Velocity Outlet;
#X floatatom 366 385 5 0 0 0 - - - 0;
#X floatatom 489 454 5 0 0 0 - - - 0;
#X text 575 388 Velocity;
#X text 401 388 Midi Note;
#X floatatom 115 122 5 0 0 0 - - - 0;
#X obj 115 223 bng 15 250 50 0 empty empty empty 17 7 0 10 #fcfcfc
#000000 #000000;
#X obj 169 222 bng 15 250 50 0 empty empty empty 17 7 0 10 #fcfcfc
#000000 #000000;
#X obj 223 222 bng 15 250 50 0 empty empty empty 17 7 0 10 #fcfcfc
#000000 #000000;
#X obj 282 223 bng 15 250 50 0 empty empty empty 17 7 0 10 #fcfcfc
#000000 #000000;
#X obj 441 226 bng 15 250 50 0 empty empty empty 17 7 0 10 #fcfcfc
#000000 #000000;
#X obj 337 225 bng 15 250 50 0 empty empty empty 17 7 0 10 #fcfcfc
#000000 #000000;
#X obj 387 224 bng 15 250 50 0 empty empty empty 17 7 0 10 #fcfcfc
#000000 #000000;
#X obj 553 228 bng 15 250 50 0 empty empty empty 17 7 0 10 #fcfcfc
#000000 #000000;
#X obj 500 225 bng 15 250 50 0 empty empty empty 17 7 0 10 #fcfcfc
#000000 #000000;
#X obj 609 228 bng 15 250 50 0 empty empty empty 17 7 0 10 #fcfcfc
#000000 #000000;
#X text 85 122 ID;
#X obj 442 187 sel 0;
#X obj 499 187 sel 0;
#X obj 553 186 sel 0;
#X obj 609 185 sel 0;
#X obj 223 186 sel 0;
#X obj 282 187 sel 0;
#X obj 337 187 sel 0;
#X obj 388 187 sel 0;
#X msg 115 272 91;
#X msg 223 268 86;
#X msg 282 268 84;
#X msg 337 268 93;
#X msg 387 267 88;
#X msg 441 269 86;
#X msg 501 266 84;
#X msg 553 267 81;
#X msg 609 268 84;
#X obj 115 186 sel 28;
#X obj 169 186 sel 29;
#X msg 169 270 1;
#X obj 46 186 sel 27;
#X obj 46 219 bng 15 250 50 0 empty empty empty 17 7 0 10 #fcfcfc #000000
#000000;
#X msg 46 268 1;
#X obj 489 387 random 1, f 11;
#X obj 489 417 + 30;
#X connect 0 0 9 0;
#X connect 5 0 1 0;
#X connect 6 0 2 0;
#X connect 9 0 21 0;
#X connect 9 0 22 0;
#X connect 9 0 23 0;
#X connect 9 0 24 0;
#X connect 9 0 25 0;
#X connect 9 0 26 0;
#X connect 9 0 27 0;
#X connect 9 0 28 0;
#X connect 9 0 38 0;
#X connect 9 0 39 0;
#X connect 9 0 41 0;
#X connect 10 0 29 0;
#X connect 10 0 44 0;
#X connect 11 0 40 0;
#X connect 11 0 44 0;
#X connect 12 0 30 0;
#X connect 12 0 44 0;
#X connect 13 0 31 0;
#X connect 13 0 44 0;
#X connect 14 0 34 0;
#X connect 14 0 44 0;
#X connect 15 0 32 0;
#X connect 15 0 44 0;
#X connect 16 0 33 0;
#X connect 16 0 44 0;
#X connect 17 0 36 0;
#X connect 17 0 44 0;
#X connect 18 0 35 0;
#X connect 18 0 44 0;
#X connect 19 0 37 0;
#X connect 19 0 44 0;
#X connect 21 0 14 0;
#X connect 22 0 18 0;
#X connect 23 0 17 0;
#X connect 24 0 19 0;
#X connect 25 0 12 0;
#X connect 26 0 13 0;
#X connect 27 0 15 0;
#X connect 28 0 16 0;
#X connect 29 0 5 0;
#X connect 30 0 5 0;
#X connect 31 0 5 0;
#X connect 32 0 5 0;
#X connect 33 0 5 0;
#X connect 34 0 5 0;
#X connect 35 0 5 0;
#X connect 36 0 5 0;
#X connect 37 0 5 0;
#X connect 38 0 10 0;
#X connect 39 0 11 0;
#X connect 40 0 5 0;
#X connect 41 0 42 0;
#X connect 42 0 43 0;
#X connect 42 0 44 0;
#X connect 43 0 5 0;
#X connect 44 0 45 0;
#X connect 45 0 6 0;
#X restore 57 180 pd Friends Horizont 4;
#N canvas 490 46 958 1016 Friends 0;
#X obj 21 19 inlet;
#X obj 24 583 outlet;
#X obj 217 585 outlet;
#X text 76 582 MIDI outlet;
#X text 267 587 Velocity Outlet;
#X floatatom 373 369 5 0 0 0 - - - 0;
#X floatatom 495 438 5 0 0 0 - - - 0;
#X text 582 372 Velocity;
#X text 408 372 Midi Note;
#X floatatom 122 106 5 0 0 0 - - - 0;
#X obj 122 207 bng 15 250 50 0 empty empty empty 17 7 0 10 #fcfcfc
#000000 #000000;
#X obj 176 206 bng 15 250 50 0 empty empty empty 17 7 0 10 #fcfcfc
#000000 #000000;
#X obj 230 206 bng 15 250 50 0 empty empty empty 17 7 0 10 #fcfcfc
#000000 #000000;
#X obj 289 207 bng 15 250 50 0 empty empty empty 17 7 0 10 #fcfcfc
#000000 #000000;
#X obj 448 210 bng 15 250 50 0 empty empty empty 17 7 0 10 #fcfcfc
#000000 #000000;
#X obj 344 209 bng 15 250 50 0 empty empty empty 17 7 0 10 #fcfcfc
#000000 #000000;
#X obj 394 208 bng 15 250 50 0 empty empty empty 17 7 0 10 #fcfcfc
#000000 #000000;
#X obj 560 212 bng 15 250 50 0 empty empty empty 17 7 0 10 #fcfcfc
#000000 #000000;
#X obj 507 209 bng 15 250 50 0 empty empty empty 17 7 0 10 #fcfcfc
#000000 #000000;
#X obj 616 212 bng 15 250 50 0 empty empty empty 17 7 0 10 #fcfcfc
#000000 #000000;
#X text 92 106 ID;
#X obj 506 171 sel 0;
#X obj 560 170 sel 0;
#X obj 616 169 sel 0;
#X obj 122 170 sel 7;
#X obj 176 170 sel 8;
#X obj 230 170 sel 9;
#X obj 289 171 sel 10;
#X obj 344 171 sel 11;
#X obj 394 171 sel 12;
#X obj 448 171 sel 13;
#X msg 448 253 1;
#X obj 63 169 sel 6;
#X obj 63 201 bng 15 250 50 0 empty empty empty 17 7 0 10 #fcfcfc #000000
#000000;
#X msg 63 246 1;
#X obj 495 398 + 50;
#X obj 495 370 random 10, f 11;
#X msg 176 254 52;
#X msg 230 252 50;
#X msg 289 252 48;
#X msg 344 252 57;
#X msg 394 251 52;
#X msg 560 251 45;
#X msg 616 252 48;
#X msg 122 256 55;
#X msg 508 250 50;
#X connect 0 0 9 0;
#X connect 5 0 1 0;
#X connect 6 0 2 0;
#X connect 9 0 21 0;
#X connect 9 0 22 0;
#X connect 9 0 23 0;
#X connect 9 0 24 0;
#X connect 9 0 25 0;
#X connect 9 0 26 0;
#X connect 9 0 27 0;
#X connect 9 0 28 0;
#X connect 9 0 29 0;
#X connect 9 0 30 0;
#X connect 9 0 32 0;
#X connect 10 0 44 0;
#X connect 10 0 36 0;
#X connect 11 0 37 0;
#X connect 11 0 36 0;
#X connect 12 0 38 0;
#X connect 12 0 36 0;
#X connect 13 0 39 0;
#X connect 13 0 36 0;
#X connect 14 0 31 0;
#X connect 14 0 36 0;
#X connect 15 0 40 0;
#X connect 15 0 36 0;
#X connect 16 0 41 0;
#X connect 16 0 36 0;
#X connect 17 0 42 0;
#X connect 17 0 36 0;
#X connect 18 0 45 0;
#X connect 18 0 36 0;
#X connect 19 0 43 0;
#X connect 19 0 36 0;
#X connect 21 0 18 0;
#X connect 22 0 17 0;
#X connect 23 0 19 0;
#X connect 24 0 10 0;
#X connect 25 0 11 0;
#X connect 26 0 12 0;
#X connect 27 0 13 0;
#X connect 28 0 15 0;
#X connect 29 0 16 0;
#X connect 30 0 14 0;
#X connect 31 0 5 0;
#X connect 32 0 33 0;
#X connect 33 0 34 0;
#X connect 33 0 36 0;
#X connect 34 0 5 0;
#X connect 35 0 6 0;
#X connect 36 0 35 0;
#X connect 37 0 5 0;
#X connect 38 0 5 0;
#X connect 39 0 5 0;
#X connect 40 0 5 0;
#X connect 41 0 5 0;
#X connect 42 0 5 0;
#X connect 43 0 5 0;
#X connect 44 0 5 0;
#X connect 45 0 5 0;
#X restore 147 102 pd Friends Horizont 1;
#X f 33;
#X connect 0 0 3 0;
#X connect 1 0 2 0;
#X connect 2 0 12 0;
#X connect 2 0 14 0;
#X connect 2 0 15 0;
#X connect 2 0 13 0;
#X connect 9 0 10 0;
#X connect 9 0 11 0;
#X connect 10 0 5 0;
#X connect 11 0 6 0;
#X connect 12 0 9 0;
#X connect 12 1 9 1;
#X connect 13 0 9 0;
#X connect 13 1 9 1;
#X connect 14 0 9 0;
#X connect 14 1 9 1;
#X connect 15 0 9 0;
#X connect 15 1 9 1;
