#N canvas 197 49 1920 1026 12;
#X obj 1837 31 inlet;
#X obj 1837 70 switch~;
#X obj 101 10 inlet;
#X obj 182 13 r ID;
#X floatatom 182 41 5 0 0 0 - - - 0;
#N canvas 128 128 1192 835 Colleagues 0;
#X obj 95 38 inlet;
#X obj 39 784 outlet;
#X obj 267 786 outlet;
#X text 90 785 Midi Outlet;
#X text 321 787 Velocity Outlet;
#X floatatom 352 366 5 0 0 0 - - - 0;
#X floatatom 475 435 5 0 0 0 - - - 0;
#X text 561 369 Velocity;
#X text 387 369 Midi Note;
#X floatatom 101 103 5 0 0 0 - - - 0;
#X obj 101 204 bng 15 250 50 0 empty empty empty 17 7 0 10 #fcfcfc
#000000 #000000;
#X obj 155 203 bng 15 250 50 0 empty empty empty 17 7 0 10 #fcfcfc
#000000 #000000;
#X obj 209 203 bng 15 250 50 0 empty empty empty 17 7 0 10 #fcfcfc
#000000 #000000;
#X obj 268 204 bng 15 250 50 0 empty empty empty 17 7 0 10 #fcfcfc
#000000 #000000;
#X obj 427 207 bng 15 250 50 0 empty empty empty 17 7 0 10 #fcfcfc
#000000 #000000;
#X obj 323 206 bng 15 250 50 0 empty empty empty 17 7 0 10 #fcfcfc
#000000 #000000;
#X obj 373 205 bng 15 250 50 0 empty empty empty 17 7 0 10 #fcfcfc
#000000 #000000;
#X obj 539 209 bng 15 250 50 0 empty empty empty 17 7 0 10 #fcfcfc
#000000 #000000;
#X obj 486 206 bng 15 250 50 0 empty empty empty 17 7 0 10 #fcfcfc
#000000 #000000;
#X obj 595 209 bng 15 250 50 0 empty empty empty 17 7 0 10 #fcfcfc
#000000 #000000;
#X text 71 103 ID;
#X obj 427 168 sel 0;
#X obj 485 168 sel 0;
#X obj 539 167 sel 0;
#X obj 595 165 sel 0;
#X obj 209 167 sel 0;
#X obj 268 168 sel 0;
#X obj 323 168 sel 0;
#X obj 373 168 sel 0;
#X obj 475 397 + 120;
#X obj 475 368 random 7, f 11;
#X obj 101 167 sel 0;
#X obj 152 166 sel 0;
#X msg 102 253 72;
#X msg 156 251 67;
#X msg 209 249 65;
#X msg 268 249 64;
#X msg 323 249 72;
#X msg 373 248 67;
#X msg 427 250 65;
#X msg 486 247 64;
#X msg 539 248 65;
#X msg 595 249 67;
#X connect 0 0 9 0;
#X connect 5 0 1 0;
#X connect 6 0 2 0;
#X connect 9 0 21 0;
#X connect 9 0 22 0;
#X connect 9 0 23 0;
#X connect 9 0 24 0;
#X connect 9 0 25 0;
#X connect 9 0 26 0;
#X connect 9 0 27 0;
#X connect 9 0 28 0;
#X connect 9 0 31 0;
#X connect 9 0 32 0;
#X connect 10 0 33 0;
#X connect 10 0 30 0;
#X connect 11 0 34 0;
#X connect 11 0 30 0;
#X connect 12 0 35 0;
#X connect 12 0 30 0;
#X connect 13 0 36 0;
#X connect 13 0 30 0;
#X connect 14 0 39 0;
#X connect 14 0 30 0;
#X connect 15 0 37 0;
#X connect 15 0 30 0;
#X connect 16 0 38 0;
#X connect 16 0 30 0;
#X connect 17 0 41 0;
#X connect 17 0 30 0;
#X connect 18 0 40 0;
#X connect 18 0 30 0;
#X connect 19 0 42 0;
#X connect 19 0 30 0;
#X connect 21 0 14 0;
#X connect 22 0 18 0;
#X connect 23 0 17 0;
#X connect 24 0 19 0;
#X connect 25 0 12 0;
#X connect 26 0 13 0;
#X connect 27 0 15 0;
#X connect 28 0 16 0;
#X connect 29 0 6 0;
#X connect 30 0 29 0;
#X connect 31 0 10 0;
#X connect 32 0 11 0;
#X connect 33 0 5 0;
#X connect 34 0 5 0;
#X connect 35 0 5 0;
#X connect 36 0 5 0;
#X connect 37 0 5 0;
#X connect 38 0 5 0;
#X connect 39 0 5 0;
#X connect 40 0 5 0;
#X connect 41 0 5 0;
#X connect 42 0 5 0;
#X restore 182 96 pd Colleagues Horizont 1;
#N canvas 128 128 1192 835 Colleagues 0;
#X obj 95 38 inlet;
#X obj 39 784 outlet;
#X obj 267 786 outlet;
#X text 90 785 Midi Outlet;
#X text 321 787 Velocity Outlet;
#X floatatom 352 373 5 0 0 0 - - - 0;
#X floatatom 475 442 5 0 0 0 - - - 0;
#X text 561 376 Velocity;
#X text 387 376 Midi Note;
#X floatatom 101 110 5 0 0 0 - - - 0;
#X obj 101 211 bng 15 250 50 0 empty empty empty 17 7 0 10 #fcfcfc
#000000 #000000;
#X obj 155 210 bng 15 250 50 0 empty empty empty 17 7 0 10 #fcfcfc
#000000 #000000;
#X obj 209 210 bng 15 250 50 0 empty empty empty 17 7 0 10 #fcfcfc
#000000 #000000;
#X obj 268 211 bng 15 250 50 0 empty empty empty 17 7 0 10 #fcfcfc
#000000 #000000;
#X obj 427 214 bng 15 250 50 0 empty empty empty 17 7 0 10 #fcfcfc
#000000 #000000;
#X obj 323 213 bng 15 250 50 0 empty empty empty 17 7 0 10 #fcfcfc
#000000 #000000;
#X obj 373 212 bng 15 250 50 0 empty empty empty 17 7 0 10 #fcfcfc
#000000 #000000;
#X obj 539 216 bng 15 250 50 0 empty empty empty 17 7 0 10 #fcfcfc
#000000 #000000;
#X obj 486 213 bng 15 250 50 0 empty empty empty 17 7 0 10 #fcfcfc
#000000 #000000;
#X obj 595 216 bng 15 250 50 0 empty empty empty 17 7 0 10 #fcfcfc
#000000 #000000;
#X text 71 110 ID;
#X obj 323 175 sel 0;
#X obj 373 175 sel 0;
#X obj 427 175 sel 0;
#X obj 485 175 sel 0;
#X obj 539 174 sel 0;
#X obj 595 173 sel 0;
#X obj 101 174 sel 22;
#X obj 155 174 sel 23;
#X obj 209 174 sel 24;
#X obj 268 175 sel 26;
#X obj 475 407 + 120;
#X obj 475 373 random 7, f 11;
#X msg 101 260 84;
#X msg 155 258 79;
#X msg 209 256 77;
#X msg 268 256 76;
#X msg 323 256 84;
#X msg 373 255 79;
#X msg 427 257 77;
#X msg 487 254 76;
#X msg 539 255 77;
#X msg 595 256 79;
#X connect 0 0 9 0;
#X connect 5 0 1 0;
#X connect 6 0 2 0;
#X connect 9 0 21 0;
#X connect 9 0 22 0;
#X connect 9 0 23 0;
#X connect 9 0 24 0;
#X connect 9 0 25 0;
#X connect 9 0 26 0;
#X connect 9 0 27 0;
#X connect 9 0 28 0;
#X connect 9 0 29 0;
#X connect 9 0 30 0;
#X connect 10 0 33 0;
#X connect 10 0 32 0;
#X connect 11 0 34 0;
#X connect 11 0 32 0;
#X connect 12 0 35 0;
#X connect 12 0 32 0;
#X connect 13 0 36 0;
#X connect 13 0 32 0;
#X connect 14 0 39 0;
#X connect 14 0 32 0;
#X connect 15 0 37 0;
#X connect 15 0 32 0;
#X connect 16 0 38 0;
#X connect 16 0 32 0;
#X connect 17 0 41 0;
#X connect 17 0 32 0;
#X connect 18 0 40 0;
#X connect 18 0 32 0;
#X connect 19 0 42 0;
#X connect 19 0 32 0;
#X connect 21 0 15 0;
#X connect 22 0 16 0;
#X connect 23 0 14 0;
#X connect 24 0 18 0;
#X connect 25 0 17 0;
#X connect 26 0 19 0;
#X connect 27 0 10 0;
#X connect 28 0 11 0;
#X connect 29 0 12 0;
#X connect 30 0 13 0;
#X connect 31 0 6 0;
#X connect 32 0 31 0;
#X connect 33 0 5 0;
#X connect 34 0 5 0;
#X connect 35 0 5 0;
#X connect 36 0 5 0;
#X connect 37 0 5 0;
#X connect 38 0 5 0;
#X connect 39 0 5 0;
#X connect 40 0 5 0;
#X connect 41 0 5 0;
#X connect 42 0 5 0;
#X restore 158 124 pd Colleagues Horizont 2;
#N canvas 128 128 1192 835 Colleagues 0;
#X obj 95 38 inlet;
#X obj 39 784 outlet;
#X obj 267 786 outlet;
#X text 90 785 Midi Outlet;
#X text 321 787 Velocity Outlet;
#X floatatom 343 420 5 0 0 0 - - - 0;
#X floatatom 466 489 5 0 0 0 - - - 0;
#X text 552 423 Velocity;
#X text 378 423 Midi Note;
#X floatatom 92 157 5 0 0 0 - - - 0;
#X obj 92 258 bng 15 250 50 0 empty empty empty 17 7 0 10 #fcfcfc #000000
#000000;
#X obj 146 257 bng 15 250 50 0 empty empty empty 17 7 0 10 #fcfcfc
#000000 #000000;
#X obj 200 257 bng 15 250 50 0 empty empty empty 17 7 0 10 #fcfcfc
#000000 #000000;
#X obj 259 258 bng 15 250 50 0 empty empty empty 17 7 0 10 #fcfcfc
#000000 #000000;
#X obj 418 261 bng 15 250 50 0 empty empty empty 17 7 0 10 #fcfcfc
#000000 #000000;
#X obj 314 260 bng 15 250 50 0 empty empty empty 17 7 0 10 #fcfcfc
#000000 #000000;
#X obj 364 259 bng 15 250 50 0 empty empty empty 17 7 0 10 #fcfcfc
#000000 #000000;
#X obj 530 263 bng 15 250 50 0 empty empty empty 17 7 0 10 #fcfcfc
#000000 #000000;
#X obj 477 260 bng 15 250 50 0 empty empty empty 17 7 0 10 #fcfcfc
#000000 #000000;
#X obj 586 263 bng 15 250 50 0 empty empty empty 17 7 0 10 #fcfcfc
#000000 #000000;
#X text 62 157 ID;
#X obj 200 221 sel 0;
#X obj 259 222 sel 0;
#X obj 314 222 sel 0;
#X obj 364 222 sel 0;
#X obj 418 222 sel 0;
#X obj 476 222 sel 0;
#X obj 530 221 sel 0;
#X obj 586 220 sel 0;
#X obj 92 222 sel 25;
#X obj 146 221 sel 27;
#X obj 466 422 random 10, f 11;
#X obj 466 449 + 70;
#X msg 94 307 96;
#X msg 146 305 91;
#X msg 200 303 89;
#X msg 259 303 88;
#X msg 314 303 96;
#X msg 364 302 91;
#X msg 418 304 89;
#X msg 478 301 88;
#X msg 529 302 89;
#X msg 586 303 91;
#X connect 0 0 9 0;
#X connect 5 0 1 0;
#X connect 6 0 2 0;
#X connect 9 0 21 0;
#X connect 9 0 22 0;
#X connect 9 0 23 0;
#X connect 9 0 24 0;
#X connect 9 0 25 0;
#X connect 9 0 26 0;
#X connect 9 0 27 0;
#X connect 9 0 28 0;
#X connect 9 0 29 0;
#X connect 9 0 30 0;
#X connect 10 0 31 0;
#X connect 10 0 33 0;
#X connect 11 0 34 0;
#X connect 11 0 31 0;
#X connect 12 0 35 0;
#X connect 12 0 31 0;
#X connect 13 0 36 0;
#X connect 13 0 31 0;
#X connect 14 0 39 0;
#X connect 14 0 31 0;
#X connect 15 0 37 0;
#X connect 15 0 31 0;
#X connect 16 0 38 0;
#X connect 16 0 31 0;
#X connect 17 0 41 0;
#X connect 17 0 31 0;
#X connect 18 0 40 0;
#X connect 18 0 31 0;
#X connect 19 0 42 0;
#X connect 19 0 31 0;
#X connect 21 0 12 0;
#X connect 22 0 13 0;
#X connect 23 0 15 0;
#X connect 24 0 16 0;
#X connect 25 0 14 0;
#X connect 26 0 18 0;
#X connect 27 0 17 0;
#X connect 28 0 19 0;
#X connect 29 0 10 0;
#X connect 30 0 11 0;
#X connect 31 0 32 0;
#X connect 32 0 6 0;
#X connect 33 0 5 0;
#X connect 34 0 5 0;
#X connect 35 0 5 0;
#X connect 36 0 5 0;
#X connect 37 0 5 0;
#X connect 38 0 5 0;
#X connect 39 0 5 0;
#X connect 40 0 5 0;
#X connect 41 0 5 0;
#X connect 42 0 5 0;
#X restore 121 155 pd Colleagues Horizont 3;
#N canvas 128 128 1192 835 Colleagues 0;
#X obj 95 38 inlet;
#X obj 39 784 outlet;
#X obj 267 786 outlet;
#X text 90 785 Midi Outlet;
#X text 321 787 Velocity Outlet;
#X floatatom 350 382 5 0 0 0 - - - 0;
#X floatatom 473 451 5 0 0 0 - - - 0;
#X text 559 385 Velocity;
#X text 385 385 Midi Note;
#X floatatom 99 119 5 0 0 0 - - - 0;
#X obj 99 220 bng 15 250 50 0 empty empty empty 17 7 0 10 #fcfcfc #000000
#000000;
#X obj 153 219 bng 15 250 50 0 empty empty empty 17 7 0 10 #fcfcfc
#000000 #000000;
#X obj 207 219 bng 15 250 50 0 empty empty empty 17 7 0 10 #fcfcfc
#000000 #000000;
#X obj 266 220 bng 15 250 50 0 empty empty empty 17 7 0 10 #fcfcfc
#000000 #000000;
#X obj 425 223 bng 15 250 50 0 empty empty empty 17 7 0 10 #fcfcfc
#000000 #000000;
#X obj 321 222 bng 15 250 50 0 empty empty empty 17 7 0 10 #fcfcfc
#000000 #000000;
#X obj 371 221 bng 15 250 50 0 empty empty empty 17 7 0 10 #fcfcfc
#000000 #000000;
#X obj 537 225 bng 15 250 50 0 empty empty empty 17 7 0 10 #fcfcfc
#000000 #000000;
#X obj 484 222 bng 15 250 50 0 empty empty empty 17 7 0 10 #fcfcfc
#000000 #000000;
#X obj 593 225 bng 15 250 50 0 empty empty empty 17 7 0 10 #fcfcfc
#000000 #000000;
#X text 69 119 ID;
#X obj 321 184 sel 0;
#X obj 371 184 sel 0;
#X obj 425 184 sel 0;
#X obj 483 184 sel 0;
#X obj 537 183 sel 0;
#X obj 593 182 sel 0;
#X obj 207 183 sel 0;
#X obj 266 184 sel 0;
#X obj 473 384 random 10, f 11;
#X obj 153 183 sel 0;
#X msg 99 268 108;
#X msg 153 267 103;
#X msg 207 265 101;
#X msg 266 265 100;
#X msg 321 265 108;
#X msg 371 264 103;
#X msg 425 266 101;
#X msg 485 263 100;
#X msg 537 264 101;
#X msg 593 265 103;
#X obj 473 414 + 50;
#X obj 100 183 sel 28;
#X connect 0 0 9 0;
#X connect 5 0 1 0;
#X connect 6 0 2 0;
#X connect 9 0 21 0;
#X connect 9 0 22 0;
#X connect 9 0 23 0;
#X connect 9 0 24 0;
#X connect 9 0 25 0;
#X connect 9 0 26 0;
#X connect 9 0 27 0;
#X connect 9 0 28 0;
#X connect 9 0 30 0;
#X connect 9 0 42 0;
#X connect 10 0 31 0;
#X connect 10 0 29 0;
#X connect 11 0 32 0;
#X connect 11 0 29 0;
#X connect 12 0 33 0;
#X connect 12 0 29 0;
#X connect 13 0 34 0;
#X connect 13 0 29 0;
#X connect 14 0 37 0;
#X connect 14 0 29 0;
#X connect 15 0 35 0;
#X connect 15 0 29 0;
#X connect 16 0 36 0;
#X connect 16 0 29 0;
#X connect 17 0 39 0;
#X connect 17 0 29 0;
#X connect 18 0 38 0;
#X connect 18 0 29 0;
#X connect 19 0 40 0;
#X connect 19 0 29 0;
#X connect 21 0 15 0;
#X connect 22 0 16 0;
#X connect 23 0 14 0;
#X connect 24 0 18 0;
#X connect 25 0 17 0;
#X connect 26 0 19 0;
#X connect 27 0 12 0;
#X connect 28 0 13 0;
#X connect 29 0 41 0;
#X connect 30 0 11 0;
#X connect 31 0 5 0;
#X connect 32 0 5 0;
#X connect 33 0 5 0;
#X connect 34 0 5 0;
#X connect 35 0 5 0;
#X connect 36 0 5 0;
#X connect 37 0 5 0;
#X connect 38 0 5 0;
#X connect 39 0 5 0;
#X connect 40 0 5 0;
#X connect 41 0 6 0;
#X connect 42 0 10 0;
#X restore 73 184 pd Colleagues Horizont 4;
#X text 134 324 Dry Outlet;
#X text 412 318 Wet Outlet;
#X obj 73 239 Strings, f 40;
#X obj 72 324 outlet~;
#X obj 352 317 outlet~;
#X obj 73 283 *~ 0.5;
#X obj 351 281 *~ 0.3;
#X connect 0 0 1 0;
#X connect 3 0 4 0;
#X connect 4 0 5 0;
#X connect 4 0 6 0;
#X connect 4 0 7 0;
#X connect 4 0 8 0;
#X connect 5 0 11 0;
#X connect 5 1 11 1;
#X connect 6 0 11 0;
#X connect 6 1 11 1;
#X connect 7 0 11 0;
#X connect 7 1 11 1;
#X connect 8 0 11 0;
#X connect 8 1 11 1;
#X connect 11 0 14 0;
#X connect 11 1 15 0;
#X connect 14 0 12 0;
#X connect 15 0 13 0;
