#N canvas 1202 18 958 1016 12;
#X obj 37 157 mousestate, f 19;
#X msg 37 90 poll;
#X obj 89 90 tgl 15 0 empty empty empty 17 7 0 10 #fcfcfc #000000 #000000
0 1;
#X floatatom 80 235 5 0 0 0 - - - 0;
#X floatatom 124 235 5 0 0 0 - - - 0;
#X floatatom 37 235 5 0 0 0 - - - 0;
#X obj 89 110 metro 100;
#X obj 80 285 s XState;
#X obj 159 285 s YState;
#X obj 89 57 loadbang;
#X connect 0 0 5 0;
#X connect 0 1 3 0;
#X connect 0 2 4 0;
#X connect 1 0 0 0;
#X connect 2 0 6 0;
#X connect 3 0 7 0;
#X connect 4 0 8 0;
#X connect 6 0 0 0;
#X connect 9 0 2 0;
