#N canvas -146 79 1920 1026 12;
#X obj 941 14 r \$0-poly;
#X obj 277 420 expr~ tanh($v1);
#X obj 277 441 hip~ 3;
#X obj 941 35 route 1;
#X obj 329 233 tgl 15 0 empty empty empty 17 7 0 10 #fcfcfc #000000
#000000 0 1;
#X obj 329 253 s pdl;
#X obj 329 190 ctlin 64;
#X obj 329 211 == 127;
#X obj 209 415 env~;
#X obj 209 436 - 100;
#X obj 210 464 vu 15 120 empty empty -1 -8 0 10 #404040 #000000 1 0
;
#X obj 377 420 expr~ tanh($v1);
#X obj 277 357 catch~ \$0-L;
#X obj 377 357 catch~ \$0-R;
#X obj 941 77 throw~ \$0-L;
#X obj 941 97 throw~ \$0-R;
#X obj 1031 14 r \$0-poly;
#X obj 1031 35 route 1;
#X obj 1031 77 throw~ \$0-L;
#X obj 1031 97 throw~ \$0-R;
#X obj 941 124 r \$0-poly;
#X obj 941 187 throw~ \$0-L;
#X obj 941 207 throw~ \$0-R;
#X obj 1031 124 r \$0-poly;
#X obj 1031 187 throw~ \$0-L;
#X obj 1031 207 throw~ \$0-R;
#X obj 941 145 route 2;
#X obj 1031 145 route 2;
#X obj 941 234 r \$0-poly;
#X obj 941 297 throw~ \$0-L;
#X obj 941 317 throw~ \$0-R;
#X obj 1031 234 r \$0-poly;
#X obj 1031 297 throw~ \$0-L;
#X obj 1031 317 throw~ \$0-R;
#X obj 941 344 r \$0-poly;
#X obj 941 407 throw~ \$0-L;
#X obj 941 427 throw~ \$0-R;
#X obj 1031 344 r \$0-poly;
#X obj 1031 407 throw~ \$0-L;
#X obj 1031 427 throw~ \$0-R;
#X obj 941 255 route 3;
#X obj 1031 255 route 3;
#X obj 941 365 route 4;
#X obj 1031 365 route 4;
#X obj 941 454 r \$0-poly;
#X obj 941 517 throw~ \$0-L;
#X obj 941 537 throw~ \$0-R;
#X obj 1031 454 r \$0-poly;
#X obj 1031 517 throw~ \$0-L;
#X obj 1031 537 throw~ \$0-R;
#X obj 941 564 r \$0-poly;
#X obj 941 627 throw~ \$0-L;
#X obj 941 647 throw~ \$0-R;
#X obj 1031 564 r \$0-poly;
#X obj 1031 627 throw~ \$0-L;
#X obj 1031 647 throw~ \$0-R;
#X obj 941 674 r \$0-poly;
#X obj 941 737 throw~ \$0-L;
#X obj 941 757 throw~ \$0-R;
#X obj 1031 674 r \$0-poly;
#X obj 1031 737 throw~ \$0-L;
#X obj 1031 757 throw~ \$0-R;
#X obj 941 784 r \$0-poly;
#X obj 941 847 throw~ \$0-L;
#X obj 941 867 throw~ \$0-R;
#X obj 1031 784 r \$0-poly;
#X obj 1031 847 throw~ \$0-L;
#X obj 1031 867 throw~ \$0-R;
#X obj 941 475 route 5;
#X obj 1031 475 route 5;
#X obj 941 585 route 6;
#X obj 1031 585 route 6;
#X obj 941 695 route 7;
#X obj 1031 695 route 7;
#X obj 941 805 route 8;
#X obj 1031 805 route 8;
#X obj 1131 14 r \$0-poly;
#X obj 1131 77 throw~ \$0-L;
#X obj 1131 97 throw~ \$0-R;
#X obj 1221 14 r \$0-poly;
#X obj 1221 77 throw~ \$0-L;
#X obj 1221 97 throw~ \$0-R;
#X obj 1131 124 r \$0-poly;
#X obj 1131 187 throw~ \$0-L;
#X obj 1131 207 throw~ \$0-R;
#X obj 1221 124 r \$0-poly;
#X obj 1221 187 throw~ \$0-L;
#X obj 1221 207 throw~ \$0-R;
#X obj 1131 234 r \$0-poly;
#X obj 1131 297 throw~ \$0-L;
#X obj 1131 317 throw~ \$0-R;
#X obj 1221 234 r \$0-poly;
#X obj 1221 297 throw~ \$0-L;
#X obj 1221 317 throw~ \$0-R;
#X obj 1131 344 r \$0-poly;
#X obj 1131 407 throw~ \$0-L;
#X obj 1131 427 throw~ \$0-R;
#X obj 1221 344 r \$0-poly;
#X obj 1221 407 throw~ \$0-L;
#X obj 1221 427 throw~ \$0-R;
#X obj 1131 454 r \$0-poly;
#X obj 1131 517 throw~ \$0-L;
#X obj 1131 537 throw~ \$0-R;
#X obj 1221 454 r \$0-poly;
#X obj 1221 517 throw~ \$0-L;
#X obj 1221 537 throw~ \$0-R;
#X obj 1131 564 r \$0-poly;
#X obj 1131 627 throw~ \$0-L;
#X obj 1131 647 throw~ \$0-R;
#X obj 1221 564 r \$0-poly;
#X obj 1221 627 throw~ \$0-L;
#X obj 1221 647 throw~ \$0-R;
#X obj 1131 674 r \$0-poly;
#X obj 1131 737 throw~ \$0-L;
#X obj 1131 757 throw~ \$0-R;
#X obj 1221 674 r \$0-poly;
#X obj 1221 737 throw~ \$0-L;
#X obj 1221 757 throw~ \$0-R;
#X obj 1131 784 r \$0-poly;
#X obj 1131 847 throw~ \$0-L;
#X obj 1131 867 throw~ \$0-R;
#X obj 1221 784 r \$0-poly;
#X obj 1221 847 throw~ \$0-L;
#X obj 1221 867 throw~ \$0-R;
#X obj 1131 35 route 9;
#X obj 1221 35 route 9;
#X obj 1131 145 route 10;
#X obj 1221 145 route 10;
#X obj 1131 255 route 11;
#X obj 1221 255 route 11;
#X obj 1131 365 route 12;
#X obj 1221 365 route 12;
#X obj 1131 475 route 13;
#X obj 1221 475 route 13;
#X obj 1131 585 route 14;
#X obj 1221 585 route 14;
#X obj 1131 695 route 15;
#X obj 1221 695 route 15;
#X obj 1131 805 route 16;
#X obj 1221 805 route 16;
#X obj 391 196 loadbang;
#X msg 391 217 0;
#X obj 941 56 piano~ 1456 1;
#X obj 941 166 piano~ 1456 1;
#X obj 941 276 piano~ 1456 1;
#X obj 941 386 piano~ 1456 1;
#X obj 941 496 piano~ 1456 1;
#X obj 941 606 piano~ 1456 1;
#X obj 941 716 piano~ 1456 1;
#X obj 941 826 piano~ 1456 1;
#X obj 1031 56 piano~ 420 2;
#X obj 1031 166 piano~ 420 2;
#X obj 1031 276 piano~ 420 2;
#X obj 1031 386 piano~ 420 2;
#X obj 1031 496 piano~ 420 2;
#X obj 1031 606 piano~ 420 2;
#X obj 1031 716 piano~ 420 2;
#X obj 1031 826 piano~ 420 2;
#X obj 1221 56 piano~ 420 2;
#X obj 1221 166 piano~ 420 2;
#X obj 1221 276 piano~ 420 2;
#X obj 1221 386 piano~ 420 2;
#X obj 1221 496 piano~ 420 2;
#X obj 1221 606 piano~ 420 2;
#X obj 1221 716 piano~ 420 2;
#X obj 1221 826 piano~ 420 2;
#X obj 1131 56 piano~ 1456 1;
#X obj 1131 166 piano~ 1456 1;
#X obj 1131 276 piano~ 1456 1;
#X obj 1131 386 piano~ 1456 1;
#X obj 1131 496 piano~ 1456 1;
#X obj 1131 606 piano~ 1456 1;
#X obj 1131 716 piano~ 1456 1;
#X obj 1131 826 piano~ 1456 1;
#X obj 204 257 loadbang;
#X obj 204 299 array set \$0-scale;
#X obj 204 320 array define \$0-scale;
#X obj 279 117 vsl 17 127 1 127 0 1 empty empty VELOCITY 0 -9 0 10
#fcfcfc #000000 #000000 0 1;
#X obj 279 252 nbx 3 17 1 127 0 0 empty empty empty 0 -8 0 10 #fcfcfc
#000000 #000000 0 256;
#X obj 22 139 unpack f f;
#X obj 279 274 v \$0-vel;
#X obj 169 174 v \$0-vel;
#X obj 169 153 sel 127;
#X obj 22 202 % 5;
#X obj 22 223 tabread \$0-scale;
#X obj 22 244 +;
#X obj 132 209 div 5;
#X obj 132 230 * 12;
#X obj 22 181 t f f;
#X obj 124 369 pack f f f;
#X obj 124 417 s \$0-poly;
#X obj 22 160 + 5;
#X msg 204 278 0 2 5 7 9;
#X obj 124 276 notein;
#X obj 22 97 r \$0-key;
#N canvas 240 74 187 73 keyboard 0;
#N canvas 4 23 491 309 z-m 0;
#X obj 32 120 t b b;
#X msg 51 142 stop;
#X obj 51 164 del 50;
#X msg 51 186 0;
#X obj 32 208 change;
#X obj 32 32 key;
#X obj 32 76 keyup;
#X obj 32 98 sel 122;
#X obj 32 54 sel 122;
#X obj 92 120 t b b;
#X msg 111 142 stop;
#X obj 111 164 del 50;
#X msg 111 186 0;
#X obj 92 208 change;
#X obj 92 32 key;
#X obj 92 76 keyup;
#X obj 152 120 t b b;
#X msg 171 142 stop;
#X obj 171 164 del 50;
#X msg 171 186 0;
#X obj 152 208 change;
#X obj 152 32 key;
#X obj 152 76 keyup;
#X obj 212 120 t b b;
#X msg 231 142 stop;
#X obj 231 164 del 50;
#X msg 231 186 0;
#X obj 212 208 change;
#X obj 212 32 key;
#X obj 212 76 keyup;
#X obj 92 98 sel 120;
#X obj 92 54 sel 120;
#X obj 152 98 sel 99;
#X obj 152 54 sel 99;
#X obj 212 98 sel 118;
#X obj 212 54 sel 118;
#X msg 32 230 1 \$1;
#X obj 272 120 t b b;
#X msg 291 142 stop;
#X obj 291 164 del 50;
#X msg 291 186 0;
#X obj 272 208 change;
#X obj 272 32 key;
#X obj 272 76 keyup;
#X obj 272 98 sel 98;
#X obj 272 54 sel 98;
#X obj 332 120 t b b;
#X msg 351 142 stop;
#X obj 351 164 del 50;
#X msg 351 186 0;
#X obj 332 208 change;
#X obj 332 32 key;
#X obj 332 76 keyup;
#X obj 332 98 sel 110;
#X obj 332 54 sel 110;
#X obj 392 120 t b b;
#X msg 411 142 stop;
#X obj 411 164 del 50;
#X msg 411 186 0;
#X obj 392 208 change;
#X obj 392 32 key;
#X obj 392 76 keyup;
#X obj 392 98 sel 109;
#X obj 392 54 sel 109;
#X msg 92 230 2 \$1;
#X msg 152 230 3 \$1;
#X msg 212 230 4 \$1;
#X msg 272 230 5 \$1;
#X msg 332 230 6 \$1;
#X msg 392 230 7 \$1;
#X msg 32 186 127;
#X msg 92 186 127;
#X msg 152 186 127;
#X msg 212 186 127;
#X msg 272 186 127;
#X msg 332 186 127;
#X msg 392 186 127;
#X obj 32 252 s \$0-key;
#X obj 92 252 s \$0-key;
#X obj 152 252 s \$0-key;
#X obj 212 252 s \$0-key;
#X obj 272 252 s \$0-key;
#X obj 332 252 s \$0-key;
#X obj 392 252 s \$0-key;
#X connect 0 0 70 0;
#X connect 0 1 1 0;
#X connect 1 0 2 0;
#X connect 2 0 3 0;
#X connect 3 0 4 0;
#X connect 4 0 36 0;
#X connect 5 0 8 0;
#X connect 6 0 7 0;
#X connect 7 0 2 0;
#X connect 8 0 0 0;
#X connect 9 0 71 0;
#X connect 9 1 10 0;
#X connect 10 0 11 0;
#X connect 11 0 12 0;
#X connect 12 0 13 0;
#X connect 13 0 64 0;
#X connect 14 0 31 0;
#X connect 15 0 30 0;
#X connect 16 0 72 0;
#X connect 16 1 17 0;
#X connect 17 0 18 0;
#X connect 18 0 19 0;
#X connect 19 0 20 0;
#X connect 20 0 65 0;
#X connect 21 0 33 0;
#X connect 22 0 32 0;
#X connect 23 0 73 0;
#X connect 23 1 24 0;
#X connect 24 0 25 0;
#X connect 25 0 26 0;
#X connect 26 0 27 0;
#X connect 27 0 66 0;
#X connect 28 0 35 0;
#X connect 29 0 34 0;
#X connect 30 0 11 0;
#X connect 31 0 9 0;
#X connect 32 0 18 0;
#X connect 33 0 16 0;
#X connect 34 0 25 0;
#X connect 35 0 23 0;
#X connect 36 0 77 0;
#X connect 37 0 74 0;
#X connect 37 1 38 0;
#X connect 38 0 39 0;
#X connect 39 0 40 0;
#X connect 40 0 41 0;
#X connect 41 0 67 0;
#X connect 42 0 45 0;
#X connect 43 0 44 0;
#X connect 44 0 39 0;
#X connect 45 0 37 0;
#X connect 46 0 75 0;
#X connect 46 1 47 0;
#X connect 47 0 48 0;
#X connect 48 0 49 0;
#X connect 49 0 50 0;
#X connect 50 0 68 0;
#X connect 51 0 54 0;
#X connect 52 0 53 0;
#X connect 53 0 48 0;
#X connect 54 0 46 0;
#X connect 55 0 76 0;
#X connect 55 1 56 0;
#X connect 56 0 57 0;
#X connect 57 0 58 0;
#X connect 58 0 59 0;
#X connect 59 0 69 0;
#X connect 60 0 63 0;
#X connect 61 0 62 0;
#X connect 62 0 57 0;
#X connect 63 0 55 0;
#X connect 64 0 78 0;
#X connect 65 0 79 0;
#X connect 66 0 80 0;
#X connect 67 0 81 0;
#X connect 68 0 82 0;
#X connect 69 0 83 0;
#X connect 70 0 4 0;
#X connect 71 0 13 0;
#X connect 72 0 20 0;
#X connect 73 0 27 0;
#X connect 74 0 41 0;
#X connect 75 0 50 0;
#X connect 76 0 59 0;
#X restore 12 72 pd z-m;
#N canvas 4 23 718 321 a-ñ 0;
#X obj 32 120 t b b;
#X msg 51 142 stop;
#X obj 51 164 del 50;
#X msg 51 186 0;
#X obj 32 208 change;
#X obj 32 32 key;
#X obj 32 76 keyup;
#X obj 92 120 t b b;
#X msg 111 142 stop;
#X obj 111 164 del 50;
#X msg 111 186 0;
#X obj 92 208 change;
#X obj 92 32 key;
#X obj 92 76 keyup;
#X obj 152 120 t b b;
#X msg 171 142 stop;
#X obj 171 164 del 50;
#X msg 171 186 0;
#X obj 152 208 change;
#X obj 152 32 key;
#X obj 152 76 keyup;
#X obj 212 120 t b b;
#X msg 231 142 stop;
#X obj 231 164 del 50;
#X msg 231 186 0;
#X obj 212 208 change;
#X obj 212 32 key;
#X obj 212 76 keyup;
#X obj 272 120 t b b;
#X msg 291 142 stop;
#X obj 291 164 del 50;
#X msg 291 186 0;
#X obj 272 208 change;
#X obj 272 32 key;
#X obj 272 76 keyup;
#X obj 332 120 t b b;
#X msg 351 142 stop;
#X obj 351 164 del 50;
#X msg 351 186 0;
#X obj 332 208 change;
#X obj 332 32 key;
#X obj 332 76 keyup;
#X obj 392 120 t b b;
#X msg 411 142 stop;
#X obj 411 164 del 50;
#X msg 411 186 0;
#X obj 392 208 change;
#X obj 392 32 key;
#X obj 392 76 keyup;
#X obj 32 54 sel 97;
#X obj 32 98 sel 97;
#X obj 92 54 sel 115;
#X obj 152 54 sel 100;
#X obj 212 54 sel 102;
#X obj 272 54 sel 103;
#X obj 332 54 sel 104;
#X obj 392 54 sel 106;
#X obj 452 120 t b b;
#X msg 471 142 stop;
#X obj 471 164 del 50;
#X msg 471 186 0;
#X obj 452 208 change;
#X obj 452 32 key;
#X obj 452 76 keyup;
#X obj 512 120 t b b;
#X msg 531 142 stop;
#X obj 531 164 del 50;
#X msg 531 186 0;
#X obj 512 208 change;
#X obj 512 32 key;
#X obj 512 76 keyup;
#X obj 512 54 sel 108;
#X obj 452 54 sel 107;
#X obj 572 120 t b b;
#X msg 591 142 stop;
#X obj 591 164 del 50;
#X msg 591 186 0;
#X obj 572 208 change;
#X obj 572 32 key;
#X obj 572 76 keyup;
#X obj 572 54 sel 241;
#X obj 92 98 sel 115;
#X obj 152 98 sel 100;
#X obj 212 98 sel 102;
#X obj 272 98 sel 103;
#X obj 332 98 sel 104;
#X obj 392 98 sel 106;
#X obj 452 98 sel 107;
#X obj 512 98 sel 108;
#X obj 572 98 sel 241;
#X msg 32 230 8 \$1;
#X msg 92 230 9 \$1;
#X msg 152 230 10 \$1;
#X msg 212 230 11 \$1;
#X msg 272 230 12 \$1;
#X msg 332 230 13 \$1;
#X msg 392 230 14 \$1;
#X msg 452 230 15 \$1;
#X msg 512 230 16 \$1;
#X msg 572 230 17 \$1;
#X msg 32 186 127;
#X msg 92 186 127;
#X msg 152 186 127;
#X msg 212 186 127;
#X msg 272 186 127;
#X msg 332 186 127;
#X msg 392 186 127;
#X msg 452 186 127;
#X msg 512 186 127;
#X msg 572 186 127;
#X obj 32 252 s \$0-key;
#X obj 92 252 s \$0-key;
#X obj 152 252 s \$0-key;
#X obj 212 252 s \$0-key;
#X obj 272 252 s \$0-key;
#X obj 332 252 s \$0-key;
#X obj 392 252 s \$0-key;
#X obj 452 252 s \$0-key;
#X obj 512 252 s \$0-key;
#X obj 572 252 s \$0-key;
#X connect 0 0 100 0;
#X connect 0 1 1 0;
#X connect 1 0 2 0;
#X connect 2 0 3 0;
#X connect 3 0 4 0;
#X connect 4 0 90 0;
#X connect 5 0 49 0;
#X connect 6 0 50 0;
#X connect 7 0 101 0;
#X connect 7 1 8 0;
#X connect 8 0 9 0;
#X connect 9 0 10 0;
#X connect 10 0 11 0;
#X connect 11 0 91 0;
#X connect 12 0 51 0;
#X connect 13 0 81 0;
#X connect 14 0 102 0;
#X connect 14 1 15 0;
#X connect 15 0 16 0;
#X connect 16 0 17 0;
#X connect 17 0 18 0;
#X connect 18 0 92 0;
#X connect 19 0 52 0;
#X connect 20 0 82 0;
#X connect 21 0 103 0;
#X connect 21 1 22 0;
#X connect 22 0 23 0;
#X connect 23 0 24 0;
#X connect 24 0 25 0;
#X connect 25 0 93 0;
#X connect 26 0 53 0;
#X connect 27 0 83 0;
#X connect 28 0 104 0;
#X connect 28 1 29 0;
#X connect 29 0 30 0;
#X connect 30 0 31 0;
#X connect 31 0 32 0;
#X connect 32 0 94 0;
#X connect 33 0 54 0;
#X connect 34 0 84 0;
#X connect 35 0 105 0;
#X connect 35 1 36 0;
#X connect 36 0 37 0;
#X connect 37 0 38 0;
#X connect 38 0 39 0;
#X connect 39 0 95 0;
#X connect 40 0 55 0;
#X connect 41 0 85 0;
#X connect 42 0 106 0;
#X connect 42 1 43 0;
#X connect 43 0 44 0;
#X connect 44 0 45 0;
#X connect 45 0 46 0;
#X connect 46 0 96 0;
#X connect 47 0 56 0;
#X connect 48 0 86 0;
#X connect 49 0 0 0;
#X connect 50 0 2 0;
#X connect 51 0 7 0;
#X connect 52 0 14 0;
#X connect 53 0 21 0;
#X connect 54 0 28 0;
#X connect 55 0 35 0;
#X connect 56 0 42 0;
#X connect 57 0 107 0;
#X connect 57 1 58 0;
#X connect 58 0 59 0;
#X connect 59 0 60 0;
#X connect 60 0 61 0;
#X connect 61 0 97 0;
#X connect 62 0 72 0;
#X connect 63 0 87 0;
#X connect 64 0 108 0;
#X connect 64 1 65 0;
#X connect 65 0 66 0;
#X connect 66 0 67 0;
#X connect 67 0 68 0;
#X connect 68 0 98 0;
#X connect 69 0 71 0;
#X connect 70 0 88 0;
#X connect 71 0 64 0;
#X connect 72 0 57 0;
#X connect 73 0 109 0;
#X connect 73 1 74 0;
#X connect 74 0 75 0;
#X connect 75 0 76 0;
#X connect 76 0 77 0;
#X connect 77 0 99 0;
#X connect 78 0 80 0;
#X connect 79 0 89 0;
#X connect 80 0 73 0;
#X connect 81 0 9 0;
#X connect 82 0 16 0;
#X connect 83 0 23 0;
#X connect 84 0 30 0;
#X connect 85 0 37 0;
#X connect 86 0 44 0;
#X connect 87 0 59 0;
#X connect 88 0 66 0;
#X connect 89 0 75 0;
#X connect 90 0 110 0;
#X connect 91 0 111 0;
#X connect 92 0 112 0;
#X connect 93 0 113 0;
#X connect 94 0 114 0;
#X connect 95 0 115 0;
#X connect 96 0 116 0;
#X connect 97 0 117 0;
#X connect 98 0 118 0;
#X connect 99 0 119 0;
#X connect 100 0 4 0;
#X connect 101 0 11 0;
#X connect 102 0 18 0;
#X connect 103 0 25 0;
#X connect 104 0 32 0;
#X connect 105 0 39 0;
#X connect 106 0 46 0;
#X connect 107 0 61 0;
#X connect 108 0 68 0;
#X connect 109 0 77 0;
#X restore 12 52 pd a-ñ;
#N canvas 4 23 718 321 q-p 0;
#X obj 32 120 t b b;
#X msg 51 142 stop;
#X obj 51 164 del 50;
#X msg 51 186 0;
#X obj 32 208 change;
#X obj 32 32 key;
#X obj 32 76 keyup;
#X obj 92 120 t b b;
#X msg 111 142 stop;
#X obj 111 164 del 50;
#X msg 111 186 0;
#X obj 92 208 change;
#X obj 92 32 key;
#X obj 92 76 keyup;
#X obj 152 120 t b b;
#X msg 171 142 stop;
#X obj 171 164 del 50;
#X msg 171 186 0;
#X obj 152 208 change;
#X obj 152 32 key;
#X obj 152 76 keyup;
#X obj 212 120 t b b;
#X msg 231 142 stop;
#X obj 231 164 del 50;
#X msg 231 186 0;
#X obj 212 208 change;
#X obj 212 32 key;
#X obj 212 76 keyup;
#X obj 272 120 t b b;
#X msg 291 142 stop;
#X obj 291 164 del 50;
#X msg 291 186 0;
#X obj 272 208 change;
#X obj 272 32 key;
#X obj 272 76 keyup;
#X obj 332 120 t b b;
#X msg 351 142 stop;
#X obj 351 164 del 50;
#X msg 351 186 0;
#X obj 332 208 change;
#X obj 332 32 key;
#X obj 332 76 keyup;
#X obj 392 120 t b b;
#X msg 411 142 stop;
#X obj 411 164 del 50;
#X msg 411 186 0;
#X obj 392 208 change;
#X obj 392 32 key;
#X obj 392 76 keyup;
#X obj 452 120 t b b;
#X msg 471 142 stop;
#X obj 471 164 del 50;
#X msg 471 186 0;
#X obj 452 208 change;
#X obj 452 32 key;
#X obj 452 76 keyup;
#X obj 512 120 t b b;
#X msg 531 142 stop;
#X obj 531 164 del 50;
#X msg 531 186 0;
#X obj 512 208 change;
#X obj 512 32 key;
#X obj 512 76 keyup;
#X obj 572 120 t b b;
#X msg 591 142 stop;
#X obj 591 164 del 50;
#X msg 591 186 0;
#X obj 572 208 change;
#X obj 572 32 key;
#X obj 572 76 keyup;
#X obj 32 54 sel 113;
#X obj 92 54 sel 119;
#X obj 152 54 sel 101;
#X obj 212 54 sel 114;
#X obj 272 54 sel 116;
#X obj 332 54 sel 121;
#X obj 392 54 sel 117;
#X obj 452 54 sel 105;
#X obj 512 54 sel 111;
#X obj 572 54 sel 112;
#X obj 32 98 sel 113;
#X obj 92 98 sel 119;
#X obj 152 98 sel 101;
#X obj 212 98 sel 114;
#X obj 272 98 sel 116;
#X obj 332 98 sel 121;
#X obj 392 98 sel 117;
#X obj 452 98 sel 105;
#X obj 512 98 sel 111;
#X obj 572 98 sel 112;
#X msg 32 230 18 \$1;
#X msg 92 230 19 \$1;
#X msg 152 230 20 \$1;
#X msg 212 230 21 \$1;
#X msg 272 230 22 \$1;
#X msg 332 230 23 \$1;
#X msg 392 230 24 \$1;
#X msg 452 230 25 \$1;
#X msg 512 230 26 \$1;
#X msg 572 230 27 \$1;
#X msg 32 186 127;
#X msg 92 186 127;
#X msg 152 186 127;
#X msg 212 186 127;
#X msg 272 186 127;
#X msg 332 186 127;
#X msg 392 186 127;
#X msg 452 186 127;
#X msg 512 186 127;
#X msg 572 186 127;
#X obj 32 252 s \$0-key;
#X obj 92 252 s \$0-key;
#X obj 152 252 s \$0-key;
#X obj 212 252 s \$0-key;
#X obj 272 252 s \$0-key;
#X obj 332 252 s \$0-key;
#X obj 392 252 s \$0-key;
#X obj 452 252 s \$0-key;
#X obj 512 252 s \$0-key;
#X obj 572 252 s \$0-key;
#X connect 0 0 100 0;
#X connect 0 1 1 0;
#X connect 1 0 2 0;
#X connect 2 0 3 0;
#X connect 3 0 4 0;
#X connect 4 0 90 0;
#X connect 5 0 70 0;
#X connect 6 0 80 0;
#X connect 7 0 101 0;
#X connect 7 1 8 0;
#X connect 8 0 9 0;
#X connect 9 0 10 0;
#X connect 10 0 11 0;
#X connect 11 0 91 0;
#X connect 12 0 71 0;
#X connect 13 0 81 0;
#X connect 14 0 102 0;
#X connect 14 1 15 0;
#X connect 15 0 16 0;
#X connect 16 0 17 0;
#X connect 17 0 18 0;
#X connect 18 0 92 0;
#X connect 19 0 72 0;
#X connect 20 0 82 0;
#X connect 21 0 103 0;
#X connect 21 1 22 0;
#X connect 22 0 23 0;
#X connect 23 0 24 0;
#X connect 24 0 25 0;
#X connect 25 0 93 0;
#X connect 26 0 73 0;
#X connect 27 0 83 0;
#X connect 28 0 104 0;
#X connect 28 1 29 0;
#X connect 29 0 30 0;
#X connect 30 0 31 0;
#X connect 31 0 32 0;
#X connect 32 0 94 0;
#X connect 33 0 74 0;
#X connect 34 0 84 0;
#X connect 35 0 105 0;
#X connect 35 1 36 0;
#X connect 36 0 37 0;
#X connect 37 0 38 0;
#X connect 38 0 39 0;
#X connect 39 0 95 0;
#X connect 40 0 75 0;
#X connect 41 0 85 0;
#X connect 42 0 106 0;
#X connect 42 1 43 0;
#X connect 43 0 44 0;
#X connect 44 0 45 0;
#X connect 45 0 46 0;
#X connect 46 0 96 0;
#X connect 47 0 76 0;
#X connect 48 0 86 0;
#X connect 49 0 107 0;
#X connect 49 1 50 0;
#X connect 50 0 51 0;
#X connect 51 0 52 0;
#X connect 52 0 53 0;
#X connect 53 0 97 0;
#X connect 54 0 77 0;
#X connect 55 0 87 0;
#X connect 56 0 108 0;
#X connect 56 1 57 0;
#X connect 57 0 58 0;
#X connect 58 0 59 0;
#X connect 59 0 60 0;
#X connect 60 0 98 0;
#X connect 61 0 78 0;
#X connect 62 0 88 0;
#X connect 63 0 109 0;
#X connect 63 1 64 0;
#X connect 64 0 65 0;
#X connect 65 0 66 0;
#X connect 66 0 67 0;
#X connect 67 0 99 0;
#X connect 68 0 79 0;
#X connect 69 0 89 0;
#X connect 70 0 0 0;
#X connect 71 0 7 0;
#X connect 72 0 14 0;
#X connect 73 0 21 0;
#X connect 74 0 28 0;
#X connect 75 0 35 0;
#X connect 76 0 42 0;
#X connect 77 0 49 0;
#X connect 78 0 56 0;
#X connect 79 0 63 0;
#X connect 80 0 2 0;
#X connect 81 0 9 0;
#X connect 82 0 16 0;
#X connect 83 0 23 0;
#X connect 84 0 30 0;
#X connect 85 0 37 0;
#X connect 86 0 44 0;
#X connect 87 0 51 0;
#X connect 88 0 58 0;
#X connect 89 0 65 0;
#X connect 90 0 110 0;
#X connect 91 0 111 0;
#X connect 92 0 112 0;
#X connect 93 0 113 0;
#X connect 94 0 114 0;
#X connect 95 0 115 0;
#X connect 96 0 116 0;
#X connect 97 0 117 0;
#X connect 98 0 118 0;
#X connect 99 0 119 0;
#X connect 100 0 4 0;
#X connect 101 0 11 0;
#X connect 102 0 18 0;
#X connect 103 0 25 0;
#X connect 104 0 32 0;
#X connect 105 0 39 0;
#X connect 106 0 46 0;
#X connect 107 0 53 0;
#X connect 108 0 60 0;
#X connect 109 0 67 0;
#X restore 12 32 pd q-p;
#N canvas 4 23 718 321 1-0 0;
#X obj 32 120 t b b;
#X msg 51 142 stop;
#X obj 51 164 del 50;
#X msg 51 186 0;
#X obj 32 208 change;
#X obj 32 32 key;
#X obj 32 76 keyup;
#X obj 92 120 t b b;
#X msg 111 142 stop;
#X obj 111 164 del 50;
#X msg 111 186 0;
#X obj 92 208 change;
#X obj 92 32 key;
#X obj 92 76 keyup;
#X obj 152 120 t b b;
#X msg 171 142 stop;
#X obj 171 164 del 50;
#X msg 171 186 0;
#X obj 152 208 change;
#X obj 152 32 key;
#X obj 152 76 keyup;
#X obj 212 120 t b b;
#X msg 231 142 stop;
#X obj 231 164 del 50;
#X msg 231 186 0;
#X obj 212 208 change;
#X obj 212 32 key;
#X obj 212 76 keyup;
#X obj 272 120 t b b;
#X msg 291 142 stop;
#X obj 291 164 del 50;
#X msg 291 186 0;
#X obj 272 208 change;
#X obj 272 32 key;
#X obj 272 76 keyup;
#X obj 332 120 t b b;
#X msg 351 142 stop;
#X obj 351 164 del 50;
#X msg 351 186 0;
#X obj 332 208 change;
#X obj 332 32 key;
#X obj 332 76 keyup;
#X obj 392 120 t b b;
#X msg 411 142 stop;
#X obj 411 164 del 50;
#X msg 411 186 0;
#X obj 392 208 change;
#X obj 392 32 key;
#X obj 392 76 keyup;
#X obj 452 120 t b b;
#X msg 471 142 stop;
#X obj 471 164 del 50;
#X msg 471 186 0;
#X obj 452 208 change;
#X obj 452 32 key;
#X obj 452 76 keyup;
#X obj 512 120 t b b;
#X msg 531 142 stop;
#X obj 531 164 del 50;
#X msg 531 186 0;
#X obj 512 208 change;
#X obj 512 32 key;
#X obj 512 76 keyup;
#X obj 572 120 t b b;
#X msg 591 142 stop;
#X obj 591 164 del 50;
#X msg 591 186 0;
#X obj 572 208 change;
#X obj 572 32 key;
#X obj 572 76 keyup;
#X obj 32 54 sel 49;
#X obj 92 54 sel 50;
#X obj 152 54 sel 51;
#X obj 212 54 sel 52;
#X obj 272 54 sel 53;
#X obj 332 54 sel 54;
#X obj 392 54 sel 55;
#X obj 452 54 sel 56;
#X obj 512 54 sel 57;
#X obj 572 54 sel 48;
#X obj 32 98 sel 49;
#X obj 92 98 sel 50;
#X obj 152 98 sel 51;
#X obj 212 98 sel 52;
#X obj 272 98 sel 53;
#X obj 332 98 sel 54;
#X obj 392 98 sel 55;
#X obj 452 98 sel 56;
#X obj 512 98 sel 57;
#X obj 572 98 sel 48;
#X msg 32 230 28 \$1;
#X msg 92 230 29 \$1;
#X msg 152 230 30 \$1;
#X msg 212 230 31 \$1;
#X msg 272 230 32 \$1;
#X msg 332 230 33 \$1;
#X msg 392 230 34 \$1;
#X msg 452 230 35 \$1;
#X msg 512 230 36 \$1;
#X msg 572 230 37 \$1;
#X msg 32 186 127;
#X msg 92 186 127;
#X msg 152 186 127;
#X msg 212 186 127;
#X msg 272 186 127;
#X msg 332 186 127;
#X msg 392 186 127;
#X msg 452 186 127;
#X msg 512 186 127;
#X msg 572 186 127;
#X obj 32 252 s \$0-key;
#X obj 92 252 s \$0-key;
#X obj 152 252 s \$0-key;
#X obj 212 252 s \$0-key;
#X obj 272 252 s \$0-key;
#X obj 332 252 s \$0-key;
#X obj 392 252 s \$0-key;
#X obj 452 252 s \$0-key;
#X obj 512 252 s \$0-key;
#X obj 572 252 s \$0-key;
#X connect 0 0 100 0;
#X connect 0 1 1 0;
#X connect 1 0 2 0;
#X connect 2 0 3 0;
#X connect 3 0 4 0;
#X connect 4 0 90 0;
#X connect 5 0 70 0;
#X connect 6 0 80 0;
#X connect 7 0 101 0;
#X connect 7 1 8 0;
#X connect 8 0 9 0;
#X connect 9 0 10 0;
#X connect 10 0 11 0;
#X connect 11 0 91 0;
#X connect 12 0 71 0;
#X connect 13 0 81 0;
#X connect 14 0 102 0;
#X connect 14 1 15 0;
#X connect 15 0 16 0;
#X connect 16 0 17 0;
#X connect 17 0 18 0;
#X connect 18 0 92 0;
#X connect 19 0 72 0;
#X connect 20 0 82 0;
#X connect 21 0 103 0;
#X connect 21 1 22 0;
#X connect 22 0 23 0;
#X connect 23 0 24 0;
#X connect 24 0 25 0;
#X connect 25 0 93 0;
#X connect 26 0 73 0;
#X connect 27 0 83 0;
#X connect 28 0 104 0;
#X connect 28 1 29 0;
#X connect 29 0 30 0;
#X connect 30 0 31 0;
#X connect 31 0 32 0;
#X connect 32 0 94 0;
#X connect 33 0 74 0;
#X connect 34 0 84 0;
#X connect 35 0 105 0;
#X connect 35 1 36 0;
#X connect 36 0 37 0;
#X connect 37 0 38 0;
#X connect 38 0 39 0;
#X connect 39 0 95 0;
#X connect 40 0 75 0;
#X connect 41 0 85 0;
#X connect 42 0 106 0;
#X connect 42 1 43 0;
#X connect 43 0 44 0;
#X connect 44 0 45 0;
#X connect 45 0 46 0;
#X connect 46 0 96 0;
#X connect 47 0 76 0;
#X connect 48 0 86 0;
#X connect 49 0 107 0;
#X connect 49 1 50 0;
#X connect 50 0 51 0;
#X connect 51 0 52 0;
#X connect 52 0 53 0;
#X connect 53 0 97 0;
#X connect 54 0 77 0;
#X connect 55 0 87 0;
#X connect 56 0 108 0;
#X connect 56 1 57 0;
#X connect 57 0 58 0;
#X connect 58 0 59 0;
#X connect 59 0 60 0;
#X connect 60 0 98 0;
#X connect 61 0 78 0;
#X connect 62 0 88 0;
#X connect 63 0 109 0;
#X connect 63 1 64 0;
#X connect 64 0 65 0;
#X connect 65 0 66 0;
#X connect 66 0 67 0;
#X connect 67 0 99 0;
#X connect 68 0 79 0;
#X connect 69 0 89 0;
#X connect 70 0 0 0;
#X connect 71 0 7 0;
#X connect 72 0 14 0;
#X connect 73 0 21 0;
#X connect 74 0 28 0;
#X connect 75 0 35 0;
#X connect 76 0 42 0;
#X connect 77 0 49 0;
#X connect 78 0 56 0;
#X connect 79 0 63 0;
#X connect 80 0 2 0;
#X connect 81 0 9 0;
#X connect 82 0 16 0;
#X connect 83 0 23 0;
#X connect 84 0 30 0;
#X connect 85 0 37 0;
#X connect 86 0 44 0;
#X connect 87 0 51 0;
#X connect 88 0 58 0;
#X connect 89 0 65 0;
#X connect 90 0 110 0;
#X connect 91 0 111 0;
#X connect 92 0 112 0;
#X connect 93 0 113 0;
#X connect 94 0 114 0;
#X connect 95 0 115 0;
#X connect 96 0 116 0;
#X connect 97 0 117 0;
#X connect 98 0 118 0;
#X connect 99 0 119 0;
#X connect 100 0 4 0;
#X connect 101 0 11 0;
#X connect 102 0 18 0;
#X connect 103 0 25 0;
#X connect 104 0 32 0;
#X connect 105 0 39 0;
#X connect 106 0 46 0;
#X connect 107 0 53 0;
#X connect 108 0 60 0;
#X connect 109 0 67 0;
#X restore 12 12 pd 1-0;
#X restore 22 77 pd keyboard;
#X obj 22 118 spigot;
#X obj 84 101 tgl 17 0 empty empty KEYBOARD 20 8 0 10 #fcfcfc #000000
#000000 0 1;
#X obj 164 40 tgl 17 0 empty empty PLAY_SCALE 20 8 0 10 #fcfcfc #000000
#000000 0 1;
#X obj 164 62 metro 250;
#X msg 164 125 \$1 127 \, \$1 0;
#X obj 164 83 random 15;
#X obj 164 104 + 15;
#X text 39 727 Activate the KEYBOARD tgl to play the instrument with
your computer keyboard.;
#X text 49 597 [piano~];
#X text 59 612 A synthesized piano instrument using karplus-strong.
;
#X text 49 637 INLET 1: MIDI note / velocity;
#X text 49 658 ARGUMENT 1:;
#X text 59 674 Noise seed number;
#X text 49 693 ARGUMENT 1:;
#X text 59 709 Random tuning seed number;
#X text 42 796 Email: mianmogra94@gmail.com;
#X text 42 811 GitHub: github.com/MikeMorenoAudio;
#X text 42 836 Facebook: fb.com/MikeMorenoAudio;
#X text 42 866 WordPress: mikemorenoaudio.wordpress.com;
#X text 42 881 PatchStorage: patchstorage.com/author/mianmogra;
#X text 42 781 Miguel Moreno 2019;
#X text 42 851 Youtube: youtube.com/c/mikemorenoaudio;
#X text 42 761 [piano~] version 2;
#X text 329 169 SUSTAIN PEDAL;
#X obj 277 399 hip~ 100;
#X obj 377 399 hip~ 100;
#X obj 124 322 poly 16 1;
#X floatatom 39 347 5 0 0 0 - - - 0;
#X floatatom 37 388 5 0 0 0 - - - 0;
#X floatatom 33 431 5 0 0 0 - - - 0;
#X obj 1493 80 r pianoMidi;
#X obj 1586 80 r pianoVel;
#X floatatom 1493 104 5 0 0 0 - - - 0;
#X floatatom 1586 104 5 0 0 0 - - - 0;
#X obj 276 489 dac~ 1;
#X obj 562 253 inlet;
#X obj 691 290 inlet;
#X obj 526 761 outlet~;
#X text 609 253 Midi Inlet;
#X text 741 286 Velocity Inlet;
#X obj 624 762 outlet~;
#X floatatom 562 277 5 0 0 0 - - - 0;
#X floatatom 691 314 5 0 0 0 - - - 0;
#X obj 377 441 hip~ 100;
#X floatatom 718 151 5 0 0 0 - - - 0;
#X obj 718 101 loadbang;
#X floatatom 602 204 5 0 0 0 - - - 0;
#X floatatom 602 66 5 0 0 0 - - - 0;
#X floatatom 660 67 5 0 0 0 - - - 0;
#X floatatom 718 208 5 0 0 0 - - - 0;
#X obj 277 378 /~ 12;
#X obj 377 378 /~ 12;
#X obj 602 180 makenote 1 150, f 17;
#X obj 691 444 bng 15 250 50 0 empty empty empty 17 7 0 10 #fcfcfc
#000000 #000000;
#X obj 691 597 vline~, f 13;
#X text 705 514 envelope;
#X obj 553 617 *~;
#X msg 718 127 150;
#X msg 691 544 1 10 \, 0.7 150 \, 0 1200 210;
#X obj 525 701 *~ 5;
#X obj 625 700 *~ 3;
#X connect 0 0 3 0;
#X connect 1 0 2 0;
#X connect 3 0 142 0;
#X connect 4 0 5 0;
#X connect 6 0 7 0;
#X connect 7 0 4 0;
#X connect 8 0 9 0;
#X connect 9 0 10 0;
#X connect 11 0 239 0;
#X connect 12 0 246 0;
#X connect 13 0 247 0;
#X connect 16 0 17 0;
#X connect 17 0 150 0;
#X connect 20 0 26 0;
#X connect 23 0 27 0;
#X connect 26 0 143 0;
#X connect 27 0 151 0;
#X connect 28 0 40 0;
#X connect 31 0 41 0;
#X connect 34 0 42 0;
#X connect 37 0 43 0;
#X connect 40 0 144 0;
#X connect 41 0 152 0;
#X connect 42 0 145 0;
#X connect 43 0 153 0;
#X connect 44 0 68 0;
#X connect 47 0 69 0;
#X connect 50 0 70 0;
#X connect 53 0 71 0;
#X connect 56 0 72 0;
#X connect 59 0 73 0;
#X connect 62 0 74 0;
#X connect 65 0 75 0;
#X connect 68 0 146 0;
#X connect 69 0 154 0;
#X connect 70 0 147 0;
#X connect 71 0 155 0;
#X connect 72 0 148 0;
#X connect 73 0 156 0;
#X connect 74 0 149 0;
#X connect 75 0 157 0;
#X connect 76 0 124 0;
#X connect 79 0 125 0;
#X connect 82 0 126 0;
#X connect 85 0 127 0;
#X connect 88 0 128 0;
#X connect 91 0 129 0;
#X connect 94 0 130 0;
#X connect 97 0 131 0;
#X connect 100 0 132 0;
#X connect 103 0 133 0;
#X connect 106 0 134 0;
#X connect 109 0 135 0;
#X connect 112 0 136 0;
#X connect 115 0 137 0;
#X connect 118 0 138 0;
#X connect 121 0 139 0;
#X connect 124 0 166 0;
#X connect 125 0 158 0;
#X connect 126 0 167 0;
#X connect 127 0 159 0;
#X connect 128 0 168 0;
#X connect 129 0 160 0;
#X connect 130 0 169 0;
#X connect 131 0 161 0;
#X connect 132 0 170 0;
#X connect 133 0 162 0;
#X connect 134 0 171 0;
#X connect 135 0 163 0;
#X connect 136 0 172 0;
#X connect 137 0 164 0;
#X connect 138 0 173 0;
#X connect 139 0 165 0;
#X connect 140 0 141 0;
#X connect 141 0 4 0;
#X connect 142 0 14 0;
#X connect 142 1 15 0;
#X connect 143 0 21 0;
#X connect 143 1 22 0;
#X connect 144 0 29 0;
#X connect 144 1 30 0;
#X connect 145 0 35 0;
#X connect 145 1 36 0;
#X connect 146 0 45 0;
#X connect 146 1 46 0;
#X connect 147 0 51 0;
#X connect 147 1 52 0;
#X connect 148 0 57 0;
#X connect 148 1 58 0;
#X connect 149 0 63 0;
#X connect 149 1 64 0;
#X connect 150 0 18 0;
#X connect 150 1 19 0;
#X connect 151 0 24 0;
#X connect 151 1 25 0;
#X connect 152 0 32 0;
#X connect 152 1 33 0;
#X connect 153 0 38 0;
#X connect 153 1 39 0;
#X connect 154 0 48 0;
#X connect 154 1 49 0;
#X connect 155 0 54 0;
#X connect 155 1 55 0;
#X connect 156 0 60 0;
#X connect 156 1 61 0;
#X connect 157 0 66 0;
#X connect 157 1 67 0;
#X connect 158 0 80 0;
#X connect 158 1 81 0;
#X connect 159 0 86 0;
#X connect 159 1 87 0;
#X connect 160 0 92 0;
#X connect 160 1 93 0;
#X connect 161 0 98 0;
#X connect 161 1 99 0;
#X connect 162 0 104 0;
#X connect 162 1 105 0;
#X connect 163 0 110 0;
#X connect 163 1 111 0;
#X connect 164 0 116 0;
#X connect 164 1 117 0;
#X connect 165 0 122 0;
#X connect 165 1 123 0;
#X connect 166 0 77 0;
#X connect 166 1 78 0;
#X connect 167 0 83 0;
#X connect 167 1 84 0;
#X connect 168 0 89 0;
#X connect 168 1 90 0;
#X connect 169 0 95 0;
#X connect 169 1 96 0;
#X connect 170 0 101 0;
#X connect 170 1 102 0;
#X connect 171 0 107 0;
#X connect 171 1 108 0;
#X connect 172 0 113 0;
#X connect 172 1 114 0;
#X connect 173 0 119 0;
#X connect 173 1 120 0;
#X connect 174 0 192 0;
#X connect 177 0 178 0;
#X connect 178 0 180 0;
#X connect 179 0 191 0;
#X connect 179 1 182 0;
#X connect 181 0 222 1;
#X connect 182 0 181 0;
#X connect 182 1 222 1;
#X connect 183 0 184 0;
#X connect 184 0 185 0;
#X connect 185 0 222 0;
#X connect 186 0 187 0;
#X connect 187 0 185 1;
#X connect 188 0 183 0;
#X connect 188 1 186 0;
#X connect 189 0 190 0;
#X connect 191 0 188 0;
#X connect 192 0 175 0;
#X connect 193 0 222 0;
#X connect 193 1 222 1;
#X connect 194 0 196 0;
#X connect 196 0 179 0;
#X connect 197 0 196 1;
#X connect 198 0 199 0;
#X connect 199 0 201 0;
#X connect 200 0 179 0;
#X connect 201 0 202 0;
#X connect 202 0 200 0;
#X connect 220 0 1 0;
#X connect 220 0 8 0;
#X connect 221 0 11 0;
#X connect 221 0 8 0;
#X connect 222 0 189 0;
#X connect 222 0 223 0;
#X connect 222 1 189 1;
#X connect 222 1 224 0;
#X connect 222 2 189 2;
#X connect 222 2 225 0;
#X connect 226 0 228 0;
#X connect 227 0 229 0;
#X connect 231 0 237 0;
#X connect 231 0 243 0;
#X connect 232 0 238 0;
#X connect 232 0 244 0;
#X connect 238 0 249 0;
#X connect 239 0 252 0;
#X connect 240 0 248 2;
#X connect 241 0 253 0;
#X connect 242 0 222 0;
#X connect 243 0 248 0;
#X connect 244 0 248 1;
#X connect 245 0 222 1;
#X connect 246 0 220 0;
#X connect 247 0 221 0;
#X connect 248 0 242 0;
#X connect 248 1 245 0;
#X connect 249 0 254 0;
#X connect 250 0 252 1;
#X connect 252 0 255 0;
#X connect 252 0 256 0;
#X connect 253 0 240 0;
#X connect 254 0 250 0;
#X connect 255 0 233 0;
#X connect 256 0 236 0;
