#N canvas 964 52 1009 1026 12;
#X obj 60 81 Clock, f 12;
#X obj 940 400 Ambience, f 9;
#X floatatom 60 138 5 0 0 0 - - - 0;
#X text 32 139 ID;
#X obj 60 47 r start;
#X obj 60 176 s ID;
#X obj 1281 256 tgl 15 0 empty empty empty 17 7 0 10 #feffc6 #000000
#000000 0 1;
#X obj 1281 226 loadbang;
#X obj 666 678 tgl 15 0 empty empty empty 17 7 0 10 #feffc6 #000000
#000000 0 1;
#X obj 666 643 loadbang;
#X text 691 678 Sektor on/off;
#X text 1301 258 Sektor on/off;
#X obj 1292 688 tgl 15 0 empty empty empty 17 7 0 10 #feffc6 #000000
#000000 0 1;
#X obj 1292 656 loadbang;
#X text 1317 689 Sektor on/off;
#X obj 628 239 tgl 15 0 empty empty empty 17 7 0 10 #feffc6 #000000
#000000 0 1;
#X obj 628 212 loadbang;
#X text 645 239 Sektor on/off;
#X text 577 683 Marimba;
#X text 560 247 Strings;
#X text 1238 689 Bass;
#X text 1224 240 Piano;
#X obj 1000 343 tgl 30 0 empty empty empty 17 7 0 10 #feffc6 #000000
#000000 0 1;
#X obj 1000 319 loadbang;
#X obj 60 207 Koordinaten;
#X text 1203 670 - 18 Peak;
#X text 1204 262 -25 Peak;
#X text 562 661 - 32 Peak;
#X text 552 227 -18 Peak;
#X obj 952 480 tgl 30 0 empty empty empty 17 7 0 10 #c6ffc7 #000000
#000000 0 1;
#X obj 1530 509 s start;
#X obj 1530 466 tgl 30 0 empty empty empty 17 7 0 10 #c6ffc7 #000000
#000000 0 1;
#X obj 1528 381 bng 30 250 50 0 empty empty empty 17 7 0 10 #e3c6ff
#000000 #000000;
#X obj 1528 423 s restart;
#X obj 1526 301 r ID;
#X floatatom 1526 329 5 0 0 0 - - - 0;
#N canvas 457 23 1920 1026 output 0;
#X msg 214 752 start;
#X msg 214 781 stop;
#X text 10 744 starts the recording process;
#X text 74 780 stops the recording;
#X obj 175 823 writesf~ 2, f 9;
#N canvas 1068 246 450 593 reverb 0;
#X obj 37 67 inlet~;
#X obj 98 68 inlet~;
#X obj 37 446 outlet~;
#X obj 99 445 outlet~;
#X obj 328 133 loadbang;
#X msg 199 189 wet \$1;
#X msg 328 189 roomsize $;
#X obj 38 283 freeverb~;
#X msg 199 165 0.9;
#X msg 328 165 0.5;
#X connect 0 0 7 0;
#X connect 1 0 7 1;
#X connect 4 0 9 0;
#X connect 4 0 8 0;
#X connect 5 0 7 0;
#X connect 6 0 7 0;
#X connect 7 0 2 0;
#X connect 7 1 3 0;
#X connect 8 0 5 0;
#X connect 9 0 6 0;
#X restore 176 355 pd reverb;
#X f 38;
#X obj 34 530 dac~ 1;
#X obj 310 546 dac~ 2;
#X obj 371 599 inlet;
#X obj 371 644 tgl 15 0 empty empty empty 17 7 0 10 #fcfcfc #000000
#000000 0 1;
#X obj 371 691 sel 1;
#X obj 371 738 bng 15 250 50 0 empty empty empty 17 7 0 10 #fcfcfc
#000000 #000000;
#X obj 424 690 sel 0;
#X obj 424 739 bng 15 250 50 0 empty empty empty 17 7 0 10 #fcfcfc
#000000 #000000;
#X obj 96 804 inlet;
#X obj 45 220 r~ ColleaguesDry;
#X obj 176 220 r~ ColleaguesWet;
#X obj 324 220 r~ HelpDry;
#X obj 440 219 r~ HelpWet;
#X obj 33 160 r~ FriendsDry;
#X obj 157 161 r~ FriendsWet;
#X obj 309 165 r~ FamilyDry;
#X obj 411 166 r~ FamilyWet;
#X obj 74 355 r~ AmbienceL;
#X obj 455 355 r~ AmbienceR;
#X connect 0 0 4 0;
#X connect 1 0 4 0;
#X connect 5 0 6 0;
#X connect 5 0 4 0;
#X connect 5 1 7 0;
#X connect 5 1 4 1;
#X connect 8 0 9 0;
#X connect 9 0 10 0;
#X connect 9 0 12 0;
#X connect 10 0 11 0;
#X connect 11 0 0 0;
#X connect 12 0 13 0;
#X connect 13 0 1 0;
#X connect 14 0 4 0;
#X connect 15 0 6 0;
#X connect 16 0 5 0;
#X connect 17 0 7 0;
#X connect 18 0 5 1;
#X connect 19 0 6 0;
#X connect 20 0 5 0;
#X connect 21 0 7 0;
#X connect 22 0 5 1;
#X connect 23 0 6 0;
#X connect 24 0 7 0;
#X restore 864 913 pd output;
#X f 13;
#N canvas -8 0 955 1016 Friends 0;
#X obj 1837 31 inlet;
#X obj 1837 70 switch~;
#X obj 101 10 inlet;
#X obj 182 13 r ID;
#X floatatom 182 41 5 0 0 0 - - - 0;
#X text 133 585 Dry Outlet;
#X text 413 578 Wet Outlet;
#X obj 73 239 Strings, f 40;
#X obj 71 585 outlet~;
#X obj 353 578 outlet~;
#N canvas -8 0 958 1016 Friends 0;
#X obj 95 38 inlet;
#X obj 39 784 outlet;
#X obj 267 786 outlet;
#X text 90 785 Midi Outlet;
#X text 321 787 Velocity Outlet;
#X floatatom 352 366 5 0 0 0 - - - 0;
#X floatatom 475 435 5 0 0 0 - - - 0;
#X text 561 369 Velocity;
#X text 387 369 Midi Note;
#X floatatom 101 103 5 0 0 0 - - - 0;
#X obj 101 204 bng 15 250 50 0 empty empty empty 17 7 0 10 #fcfcfc
#000000 #000000;
#X obj 155 203 bng 15 250 50 0 empty empty empty 17 7 0 10 #fcfcfc
#000000 #000000;
#X obj 209 203 bng 15 250 50 0 empty empty empty 17 7 0 10 #fcfcfc
#000000 #000000;
#X obj 268 204 bng 15 250 50 0 empty empty empty 17 7 0 10 #fcfcfc
#000000 #000000;
#X obj 427 207 bng 15 250 50 0 empty empty empty 17 7 0 10 #fcfcfc
#000000 #000000;
#X obj 323 206 bng 15 250 50 0 empty empty empty 17 7 0 10 #fcfcfc
#000000 #000000;
#X obj 373 205 bng 15 250 50 0 empty empty empty 17 7 0 10 #fcfcfc
#000000 #000000;
#X obj 539 209 bng 15 250 50 0 empty empty empty 17 7 0 10 #fcfcfc
#000000 #000000;
#X obj 486 206 bng 15 250 50 0 empty empty empty 17 7 0 10 #fcfcfc
#000000 #000000;
#X obj 595 209 bng 15 250 50 0 empty empty empty 17 7 0 10 #fcfcfc
#000000 #000000;
#X text 71 103 ID;
#X obj 427 168 sel 0;
#X obj 485 168 sel 0;
#X obj 539 167 sel 0;
#X obj 595 165 sel 0;
#X obj 475 397 + 120;
#X obj 475 368 random 7, f 11;
#X obj 783 524 notein;
#X floatatom 783 548 5 0 0 0 - - - 0;
#X text 791 255 C = 60;
#X text 791 279 D = 62;
#X text 793 304 E = 64;
#X text 793 323 G = 67;
#X text 793 346 A = 69;
#X msg 427 250 0;
#X msg 486 247 0;
#X msg 539 248 0;
#X msg 595 249 0;
#X obj 101 167 sel 13;
#X obj 152 166 sel 14;
#X obj 209 167 sel 15;
#X obj 268 168 sel 16;
#X obj 323 168 sel 17;
#X obj 373 168 sel 18;
#X msg 102 253 60;
#X msg 156 251 67;
#X msg 209 249 62;
#X msg 268 249 67;
#X msg 323 249 67;
#X msg 375 249 67;
#X connect 5 0 1 0;
#X connect 6 0 2 0;
#X connect 9 0 21 0;
#X connect 9 0 22 0;
#X connect 9 0 23 0;
#X connect 9 0 24 0;
#X connect 9 0 38 0;
#X connect 9 0 39 0;
#X connect 9 0 40 0;
#X connect 9 0 41 0;
#X connect 9 0 42 0;
#X connect 9 0 43 0;
#X connect 10 0 44 0;
#X connect 10 0 26 0;
#X connect 11 0 45 0;
#X connect 11 0 26 0;
#X connect 12 0 46 0;
#X connect 12 0 26 0;
#X connect 13 0 47 0;
#X connect 13 0 26 0;
#X connect 14 0 34 0;
#X connect 14 0 26 0;
#X connect 15 0 48 0;
#X connect 15 0 26 0;
#X connect 16 0 49 0;
#X connect 16 0 26 0;
#X connect 17 0 36 0;
#X connect 17 0 26 0;
#X connect 18 0 35 0;
#X connect 18 0 26 0;
#X connect 19 0 37 0;
#X connect 19 0 26 0;
#X connect 21 0 14 0;
#X connect 22 0 18 0;
#X connect 23 0 17 0;
#X connect 24 0 19 0;
#X connect 25 0 6 0;
#X connect 26 0 25 0;
#X connect 27 0 28 0;
#X connect 34 0 5 0;
#X connect 35 0 5 0;
#X connect 36 0 5 0;
#X connect 37 0 5 0;
#X connect 38 0 10 0;
#X connect 39 0 11 0;
#X connect 40 0 12 0;
#X connect 41 0 13 0;
#X connect 42 0 15 0;
#X connect 43 0 16 0;
#X connect 44 0 5 0;
#X connect 45 0 5 0;
#X connect 46 0 5 0;
#X connect 47 0 5 0;
#X connect 48 0 5 0;
#X connect 49 0 5 0;
#X restore 182 95 pd Friends Horizont 1;
#N canvas -8 0 958 1016 Friends 0;
#X obj 96 32 inlet;
#X obj 39 784 outlet;
#X obj 267 786 outlet;
#X text 90 785 Midi Outlet;
#X text 321 787 Velocity Outlet;
#X floatatom 352 373 5 0 0 0 - - - 0;
#X floatatom 475 442 5 0 0 0 - - - 0;
#X text 561 376 Velocity;
#X text 387 376 Midi Note;
#X floatatom 96 70 5 0 0 0 - - - 0;
#X obj 143 209 bng 15 250 50 0 empty empty empty 17 7 0 10 #fcfcfc
#000000 #000000;
#X obj 197 208 bng 15 250 50 0 empty empty empty 17 7 0 10 #fcfcfc
#000000 #000000;
#X obj 251 208 bng 15 250 50 0 empty empty empty 17 7 0 10 #fcfcfc
#000000 #000000;
#X obj 310 209 bng 15 250 50 0 empty empty empty 17 7 0 10 #fcfcfc
#000000 #000000;
#X obj 469 212 bng 15 250 50 0 empty empty empty 17 7 0 10 #fcfcfc
#000000 #000000;
#X obj 365 211 bng 15 250 50 0 empty empty empty 17 7 0 10 #fcfcfc
#000000 #000000;
#X obj 415 210 bng 15 250 50 0 empty empty empty 17 7 0 10 #fcfcfc
#000000 #000000;
#X obj 581 214 bng 15 250 50 0 empty empty empty 17 7 0 10 #fcfcfc
#000000 #000000;
#X obj 528 211 bng 15 250 50 0 empty empty empty 17 7 0 10 #fcfcfc
#000000 #000000;
#X obj 637 214 bng 15 250 50 0 empty empty empty 17 7 0 10 #fcfcfc
#000000 #000000;
#X text 71 110 ID;
#X obj 475 373 random 7, f 11;
#X obj 90 210 bng 15 250 50 0 empty empty empty 17 7 0 10 #fcfcfc #000000
#000000;
#X obj 475 407 + 100;
#X text 791 255 C = 72;
#X text 791 279 D = 74;
#X text 793 304 E = 76;
#X text 793 323 G = 79;
#X text 793 346 A = 81;
#X text 17 294 reset;
#X obj 695 211 bng 15 250 50 0 empty empty empty 17 7 0 10 #fcfcfc
#000000 #000000;
#X obj 751 211 bng 15 250 50 0 empty empty empty 17 7 0 10 #fcfcfc
#000000 #000000;
#X obj 25 206 bng 15 250 50 0 empty empty empty 17 7 0 10 #fcfcfc #000000
#000000;
#X msg 26 266 1;
#X msg 365 254 79;
#X msg 415 253 81;
#X msg 469 255 79;
#X msg 529 252 81;
#X msg 581 253 81;
#X msg 637 254 74;
#X msg 693 252 79;
#X msg 749 253 76;
#X obj 90 173 sel 9;
#X obj 143 172 sel 10;
#X obj 197 172 sel 11;
#X obj 251 172 sel 12;
#X obj 310 172 sel 13;
#X obj 365 173 sel 14;
#X obj 415 173 sel 0;
#X obj 469 173 sel 0;
#X obj 527 173 sel 0;
#X obj 581 172 sel 0;
#X obj 637 171 sel 0;
#X obj 694 171 sel 0;
#X obj 751 172 sel 0;
#X obj 25 169 sel 8;
#X msg 90 259 72;
#X msg 143 258 79;
#X msg 197 257 72;
#X msg 251 254 72;
#X msg 310 254 79;
#X connect 0 0 9 0;
#X connect 5 0 1 0;
#X connect 6 0 2 0;
#X connect 9 0 42 0;
#X connect 9 0 43 0;
#X connect 9 0 44 0;
#X connect 9 0 45 0;
#X connect 9 0 46 0;
#X connect 9 0 47 0;
#X connect 9 0 48 0;
#X connect 9 0 49 0;
#X connect 9 0 50 0;
#X connect 9 0 51 0;
#X connect 9 0 52 0;
#X connect 9 0 53 0;
#X connect 9 0 54 0;
#X connect 9 0 55 0;
#X connect 10 0 57 0;
#X connect 10 0 21 0;
#X connect 11 0 58 0;
#X connect 11 0 21 0;
#X connect 12 0 59 0;
#X connect 12 0 21 0;
#X connect 13 0 60 0;
#X connect 13 0 21 0;
#X connect 14 0 36 0;
#X connect 14 0 21 0;
#X connect 15 0 34 0;
#X connect 15 0 21 0;
#X connect 16 0 35 0;
#X connect 16 0 21 0;
#X connect 17 0 38 0;
#X connect 17 0 21 0;
#X connect 18 0 37 0;
#X connect 18 0 21 0;
#X connect 19 0 39 0;
#X connect 19 0 21 0;
#X connect 21 0 23 0;
#X connect 22 0 56 0;
#X connect 22 0 21 0;
#X connect 23 0 6 0;
#X connect 30 0 40 0;
#X connect 30 0 21 0;
#X connect 31 0 41 0;
#X connect 31 0 21 0;
#X connect 32 0 33 0;
#X connect 33 0 5 0;
#X connect 34 0 5 0;
#X connect 35 0 5 0;
#X connect 36 0 5 0;
#X connect 37 0 5 0;
#X connect 38 0 5 0;
#X connect 39 0 5 0;
#X connect 40 0 5 0;
#X connect 41 0 5 0;
#X connect 42 0 22 0;
#X connect 43 0 10 0;
#X connect 44 0 11 0;
#X connect 45 0 12 0;
#X connect 46 0 13 0;
#X connect 47 0 15 0;
#X connect 48 0 16 0;
#X connect 49 0 14 0;
#X connect 50 0 18 0;
#X connect 51 0 17 0;
#X connect 52 0 19 0;
#X connect 53 0 30 0;
#X connect 54 0 31 0;
#X connect 55 0 32 0;
#X connect 56 0 5 0;
#X connect 57 0 5 0;
#X connect 58 0 5 0;
#X connect 59 0 5 0;
#X connect 60 0 5 0;
#X restore 158 125 pd Friends Horizont 2;
#N canvas 21 66 958 1016 Friends 0;
#X obj 95 38 inlet;
#X obj 39 784 outlet;
#X obj 267 786 outlet;
#X text 90 785 Midi Outlet;
#X text 321 787 Velocity Outlet;
#X floatatom 343 420 5 0 0 0 - - - 0;
#X floatatom 466 489 5 0 0 0 - - - 0;
#X text 552 423 Velocity;
#X text 378 423 Midi Note;
#X floatatom 92 157 5 0 0 0 - - - 0;
#X obj 92 258 bng 15 250 50 0 empty empty empty 17 7 0 10 #fcfcfc #000000
#000000;
#X obj 146 257 bng 15 250 50 0 empty empty empty 17 7 0 10 #fcfcfc
#000000 #000000;
#X obj 200 257 bng 15 250 50 0 empty empty empty 17 7 0 10 #fcfcfc
#000000 #000000;
#X obj 259 258 bng 15 250 50 0 empty empty empty 17 7 0 10 #fcfcfc
#000000 #000000;
#X obj 418 261 bng 15 250 50 0 empty empty empty 17 7 0 10 #fcfcfc
#000000 #000000;
#X obj 314 260 bng 15 250 50 0 empty empty empty 17 7 0 10 #fcfcfc
#000000 #000000;
#X obj 364 259 bng 15 250 50 0 empty empty empty 17 7 0 10 #fcfcfc
#000000 #000000;
#X obj 530 263 bng 15 250 50 0 empty empty empty 17 7 0 10 #fcfcfc
#000000 #000000;
#X obj 477 260 bng 15 250 50 0 empty empty empty 17 7 0 10 #fcfcfc
#000000 #000000;
#X obj 586 263 bng 15 250 50 0 empty empty empty 17 7 0 10 #fcfcfc
#000000 #000000;
#X text 62 157 ID;
#X obj 364 222 sel 0;
#X obj 418 222 sel 0;
#X obj 476 222 sel 0;
#X obj 530 221 sel 0;
#X obj 586 220 sel 0;
#X obj 466 422 random 10, f 11;
#X obj 466 449 + 70;
#X text 791 255 C = 84;
#X text 791 279 D = 86;
#X text 793 304 E = 88;
#X text 793 323 G = 91;
#X text 793 346 A = 93;
#X msg 364 302 0;
#X msg 418 304 0;
#X msg 478 301 0;
#X msg 529 302 0;
#X msg 586 303 0;
#X obj 92 222 sel 24;
#X obj 146 221 sel 25;
#X obj 200 221 sel 26;
#X obj 259 222 sel 27;
#X obj 314 222 sel 28;
#X msg 94 307 86;
#X msg 145 305 86;
#X msg 201 303 84;
#X msg 259 304 84;
#X msg 314 303 84;
#X connect 0 0 9 0;
#X connect 5 0 1 0;
#X connect 6 0 2 0;
#X connect 9 0 21 0;
#X connect 9 0 22 0;
#X connect 9 0 23 0;
#X connect 9 0 24 0;
#X connect 9 0 25 0;
#X connect 9 0 38 0;
#X connect 9 0 39 0;
#X connect 9 0 40 0;
#X connect 9 0 41 0;
#X connect 9 0 42 0;
#X connect 10 0 26 0;
#X connect 10 0 43 0;
#X connect 11 0 44 0;
#X connect 11 0 26 0;
#X connect 12 0 45 0;
#X connect 12 0 26 0;
#X connect 13 0 46 0;
#X connect 13 0 26 0;
#X connect 14 0 34 0;
#X connect 14 0 26 0;
#X connect 15 0 47 0;
#X connect 15 0 26 0;
#X connect 16 0 33 0;
#X connect 16 0 26 0;
#X connect 17 0 36 0;
#X connect 17 0 26 0;
#X connect 18 0 35 0;
#X connect 18 0 26 0;
#X connect 19 0 37 0;
#X connect 19 0 26 0;
#X connect 21 0 16 0;
#X connect 22 0 14 0;
#X connect 23 0 18 0;
#X connect 24 0 17 0;
#X connect 25 0 19 0;
#X connect 26 0 27 0;
#X connect 27 0 6 0;
#X connect 33 0 5 0;
#X connect 34 0 5 0;
#X connect 35 0 5 0;
#X connect 36 0 5 0;
#X connect 37 0 5 0;
#X connect 38 0 10 0;
#X connect 39 0 11 0;
#X connect 40 0 12 0;
#X connect 41 0 13 0;
#X connect 42 0 15 0;
#X connect 43 0 5 0;
#X connect 44 0 5 0;
#X connect 45 0 5 0;
#X connect 46 0 5 0;
#X connect 47 0 5 0;
#X restore 121 155 pd Friends Horizont 3;
#N canvas 952 0 958 1016 Friends 0;
#X obj 95 38 inlet;
#X obj 39 784 outlet;
#X obj 267 786 outlet;
#X text 90 785 Midi Outlet;
#X text 321 787 Velocity Outlet;
#X floatatom 350 382 5 0 0 0 - - - 0;
#X floatatom 473 451 5 0 0 0 - - - 0;
#X text 559 385 Velocity;
#X text 385 385 Midi Note;
#X floatatom 99 119 5 0 0 0 - - - 0;
#X obj 99 220 bng 15 250 50 0 empty empty empty 17 7 0 10 #fcfcfc #000000
#000000;
#X obj 153 219 bng 15 250 50 0 empty empty empty 17 7 0 10 #fcfcfc
#000000 #000000;
#X obj 207 219 bng 15 250 50 0 empty empty empty 17 7 0 10 #fcfcfc
#000000 #000000;
#X obj 266 220 bng 15 250 50 0 empty empty empty 17 7 0 10 #fcfcfc
#000000 #000000;
#X obj 425 223 bng 15 250 50 0 empty empty empty 17 7 0 10 #fcfcfc
#000000 #000000;
#X obj 321 222 bng 15 250 50 0 empty empty empty 17 7 0 10 #fcfcfc
#000000 #000000;
#X obj 371 221 bng 15 250 50 0 empty empty empty 17 7 0 10 #fcfcfc
#000000 #000000;
#X obj 537 225 bng 15 250 50 0 empty empty empty 17 7 0 10 #fcfcfc
#000000 #000000;
#X obj 484 222 bng 15 250 50 0 empty empty empty 17 7 0 10 #fcfcfc
#000000 #000000;
#X obj 593 225 bng 15 250 50 0 empty empty empty 17 7 0 10 #fcfcfc
#000000 #000000;
#X text 69 119 ID;
#X obj 321 184 sel 0;
#X obj 371 184 sel 0;
#X obj 425 184 sel 0;
#X obj 483 184 sel 0;
#X obj 537 183 sel 0;
#X obj 593 182 sel 0;
#X obj 207 183 sel 0;
#X obj 266 184 sel 0;
#X obj 473 384 random 10, f 11;
#X obj 153 183 sel 0;
#X msg 207 265 98;
#X msg 266 265 96;
#X msg 153 267 100;
#X msg 321 265 105;
#X msg 372 263 100;
#X msg 425 266 98;
#X msg 485 263 96;
#X msg 537 264 93;
#X msg 593 265 96;
#X obj 32 220 bng 15 250 50 0 empty empty empty 17 7 0 10 #fcfcfc #000000
#000000;
#X msg 32 268 1;
#X obj 473 415 + 30;
#X text 791 255 C = 96;
#X text 791 279 D = 98;
#X text 793 304 E = 100;
#X text 793 323 G = 103;
#X text 793 346 A = 105;
#X text 24 296 reset;
#X msg 99 268 98;
#X obj 33 183 sel 0;
#X obj 100 183 sel 0;
#X connect 5 0 1 0;
#X connect 6 0 2 0;
#X connect 9 0 21 0;
#X connect 9 0 22 0;
#X connect 9 0 23 0;
#X connect 9 0 24 0;
#X connect 9 0 25 0;
#X connect 9 0 26 0;
#X connect 9 0 27 0;
#X connect 9 0 28 0;
#X connect 9 0 30 0;
#X connect 9 0 50 0;
#X connect 9 0 51 0;
#X connect 10 0 49 0;
#X connect 10 0 29 0;
#X connect 11 0 33 0;
#X connect 11 0 29 0;
#X connect 12 0 31 0;
#X connect 12 0 29 0;
#X connect 13 0 32 0;
#X connect 13 0 29 0;
#X connect 14 0 36 0;
#X connect 14 0 29 0;
#X connect 15 0 34 0;
#X connect 15 0 29 0;
#X connect 16 0 35 0;
#X connect 16 0 29 0;
#X connect 17 0 38 0;
#X connect 17 0 29 0;
#X connect 18 0 37 0;
#X connect 18 0 29 0;
#X connect 19 0 39 0;
#X connect 19 0 29 0;
#X connect 21 0 15 0;
#X connect 22 0 16 0;
#X connect 23 0 14 0;
#X connect 24 0 18 0;
#X connect 25 0 17 0;
#X connect 26 0 19 0;
#X connect 27 0 12 0;
#X connect 28 0 13 0;
#X connect 29 0 42 0;
#X connect 30 0 11 0;
#X connect 31 0 5 0;
#X connect 32 0 5 0;
#X connect 33 0 5 0;
#X connect 34 0 5 0;
#X connect 35 0 5 0;
#X connect 36 0 5 0;
#X connect 37 0 5 0;
#X connect 38 0 5 0;
#X connect 39 0 5 0;
#X connect 40 0 41 0;
#X connect 40 0 29 0;
#X connect 41 0 5 0;
#X connect 42 0 6 0;
#X connect 49 0 5 0;
#X connect 50 0 40 0;
#X connect 51 0 10 0;
#X restore 73 184 pd Friends Horizont 4;
#N canvas 385 276 921 696 L/R 0;
#X floatatom 66 169 5 0 0 0 - - - 0;
#X obj 66 29 r XState;
#X floatatom 66 53 6 0 0 0 - - - 0;
#X obj 66 76 / 960;
#X floatatom 66 100 5 0 0 0 - - - 0;
#X obj 66 134 scale 0.7 1, f 15;
#X floatatom 66 234 5 0 0 0 - - - 0;
#X floatatom 149 327 5 0 0 0 - - - 0;
#X obj 149 302 >= 0;
#X obj 66 367 *;
#X floatatom 66 399 5 0 0 0 - - - 0;
#X obj 67 192 / 2;
#X obj 66 435 expr 1 - $f1;
#X floatatom 66 459 5 0 0 0 - - - 0;
#X floatatom 166 547 5 0 0 0 - - - 0;
#X obj 166 522 >= 0;
#X obj 67 565 *;
#X floatatom 67 589 5 0 0 0 - - - 0;
#X obj 67 638 outlet;
#X connect 0 0 11 0;
#X connect 1 0 2 0;
#X connect 2 0 3 0;
#X connect 3 0 4 0;
#X connect 4 0 5 0;
#X connect 5 0 0 0;
#X connect 6 0 8 0;
#X connect 6 0 9 0;
#X connect 7 0 9 1;
#X connect 8 0 7 0;
#X connect 9 0 10 0;
#X connect 10 0 12 0;
#X connect 11 0 6 0;
#X connect 12 0 13 0;
#X connect 13 0 16 0;
#X connect 13 0 15 0;
#X connect 14 0 16 1;
#X connect 15 0 14 0;
#X connect 16 0 17 0;
#X connect 17 0 18 0;
#X restore 206 276 pd L/R Balance;
#X floatatom 206 300 5 0 0 0 - - - 0;
#N canvas 32 32 808 691 O/U 0;
#X floatatom 39 158 5 0 0 0 - - - 0;
#X floatatom 39 42 6 0 0 0 - - - 0;
#X floatatom 39 89 5 0 0 0 - - - 0;
#X obj 39 123 scale 0.7 1, f 15;
#X floatatom 39 223 5 0 0 0 - - - 0;
#X floatatom 122 266 5 0 0 0 - - - 0;
#X obj 122 241 >= 0;
#X obj 39 306 *;
#X floatatom 39 338 5 0 0 0 - - - 0;
#X obj 40 181 / 2;
#X obj 39 374 expr 1 - $f1;
#X floatatom 39 398 5 0 0 0 - - - 0;
#X floatatom 138 441 5 0 0 0 - - - 0;
#X obj 138 416 >= 0;
#X obj 39 459 *;
#X floatatom 39 483 5 0 0 0 - - - 0;
#X obj 39 676 outlet;
#X obj 39 18 r YState;
#X obj 39 65 / 540;
#X connect 0 0 9 0;
#X connect 1 0 18 0;
#X connect 2 0 3 0;
#X connect 3 0 0 0;
#X connect 4 0 6 0;
#X connect 4 0 7 0;
#X connect 5 0 7 1;
#X connect 6 0 5 0;
#X connect 7 0 8 0;
#X connect 8 0 10 0;
#X connect 9 0 4 0;
#X connect 10 0 11 0;
#X connect 11 0 14 0;
#X connect 11 0 13 0;
#X connect 12 0 14 1;
#X connect 13 0 12 0;
#X connect 14 0 15 0;
#X connect 15 0 16 0;
#X connect 17 0 1 0;
#X connect 18 0 2 0;
#X restore 203 367 pd O/U Balance;
#X floatatom 203 391 5 0 0 0 - - - 0;
#X obj 72 342 *~;
#X obj 70 408 *~;
#X obj 351 331 *~;
#X obj 351 413 *~;
#X obj 72 546 *~ 2.5;
#X obj 353 541 *~ 1.8;
#X connect 0 0 1 0;
#X connect 3 0 4 0;
#X connect 4 0 10 0;
#X connect 4 0 11 0;
#X connect 4 0 12 0;
#X connect 4 0 13 0;
#X connect 7 0 18 0;
#X connect 7 1 20 0;
#X connect 10 0 7 0;
#X connect 10 1 7 1;
#X connect 11 0 7 0;
#X connect 11 1 7 1;
#X connect 12 0 7 0;
#X connect 12 1 7 1;
#X connect 13 0 7 0;
#X connect 13 1 7 1;
#X connect 14 0 15 0;
#X connect 15 0 18 1;
#X connect 15 0 20 1;
#X connect 16 0 17 0;
#X connect 17 0 19 1;
#X connect 17 0 21 1;
#X connect 18 0 19 0;
#X connect 19 0 22 0;
#X connect 20 0 21 0;
#X connect 21 0 23 0;
#X connect 22 0 8 0;
#X connect 23 0 9 0;
#X restore 561 272 pd Friends;
#N canvas -8 0 958 1016 Family 0;
#X obj 514 24 inlet;
#X obj 314 28 r ID;
#X floatatom 314 56 5 0 0 0 - - - 0;
#N canvas -8 0 958 1016 Family 0;
#X obj 21 11 inlet;
#X obj 25 633 outlet;
#X obj 361 630 outlet;
#X text 77 636 Midi Note;
#X text 290 630 Velocity;
#X text 68 12 ID;
#X floatatom 297 348 5 0 0 0 - - - 0;
#X floatatom 420 417 5 0 0 0 - - - 0;
#X text 506 351 Velocity;
#X text 332 351 Midi Note;
#X floatatom 46 85 5 0 0 0 - - - 0;
#X obj 46 186 bng 15 250 50 0 empty empty empty 17 7 0 10 #fcfcfc #000000
#000000;
#X obj 100 185 bng 15 250 50 0 empty empty empty 17 7 0 10 #fcfcfc
#000000 #000000;
#X obj 154 185 bng 15 250 50 0 empty empty empty 17 7 0 10 #fcfcfc
#000000 #000000;
#X obj 213 186 bng 15 250 50 0 empty empty empty 17 7 0 10 #fcfcfc
#000000 #000000;
#X obj 372 189 bng 15 250 50 0 empty empty empty 17 7 0 10 #fcfcfc
#000000 #000000;
#X obj 268 188 bng 15 250 50 0 empty empty empty 17 7 0 10 #fcfcfc
#000000 #000000;
#X obj 318 187 bng 15 250 50 0 empty empty empty 17 7 0 10 #fcfcfc
#000000 #000000;
#X obj 484 191 bng 15 250 50 0 empty empty empty 17 7 0 10 #fcfcfc
#000000 #000000;
#X obj 431 188 bng 15 250 50 0 empty empty empty 17 7 0 10 #fcfcfc
#000000 #000000;
#X obj 540 191 bng 15 250 50 0 empty empty empty 17 7 0 10 #fcfcfc
#000000 #000000;
#X text 16 85 ID;
#X obj 46 149 sel 1;
#X obj 100 149 sel 2;
#X obj 154 149 sel 3;
#X obj 372 150 sel 0;
#X obj 430 150 sel 0;
#X obj 484 149 sel 0;
#X obj 540 147 sel 0;
#X obj 420 350 random 4, f 11;
#X obj 720 88 notein;
#X floatatom 720 112 5 0 0 0 - - - 0;
#X text 782 280 C = 48;
#X text 782 304 D = 50;
#X text 784 329 E = 52;
#X text 784 348 G = 55;
#X text 784 371 A = 57;
#X msg 213 231 52;
#X msg 268 231 55;
#X msg 319 230 57;
#X msg 372 233 0;
#X msg 431 229 0;
#X msg 484 230 0;
#X msg 540 231 0;
#X obj 213 150 sel 4;
#X obj 268 150 sel 5;
#X obj 318 150 sel 6;
#X msg 46 235 52;
#X msg 100 233 55;
#X msg 154 231 52;
#X obj 420 379 + 70;
#X connect 0 0 10 0;
#X connect 6 0 1 0;
#X connect 7 0 2 0;
#X connect 10 0 22 0;
#X connect 10 0 23 0;
#X connect 10 0 24 0;
#X connect 10 0 25 0;
#X connect 10 0 26 0;
#X connect 10 0 27 0;
#X connect 10 0 28 0;
#X connect 10 0 44 0;
#X connect 10 0 45 0;
#X connect 10 0 46 0;
#X connect 11 0 47 0;
#X connect 11 0 29 0;
#X connect 12 0 48 0;
#X connect 12 0 29 0;
#X connect 13 0 49 0;
#X connect 13 0 29 0;
#X connect 14 0 37 0;
#X connect 14 0 29 0;
#X connect 15 0 40 0;
#X connect 15 0 29 0;
#X connect 16 0 38 0;
#X connect 16 0 29 0;
#X connect 17 0 39 0;
#X connect 17 0 29 0;
#X connect 18 0 42 0;
#X connect 18 0 29 0;
#X connect 19 0 41 0;
#X connect 19 0 29 0;
#X connect 20 0 43 0;
#X connect 20 0 29 0;
#X connect 22 0 11 0;
#X connect 23 0 12 0;
#X connect 24 0 13 0;
#X connect 25 0 15 0;
#X connect 26 0 19 0;
#X connect 27 0 18 0;
#X connect 28 0 20 0;
#X connect 29 0 50 0;
#X connect 30 0 31 0;
#X connect 37 0 6 0;
#X connect 38 0 6 0;
#X connect 39 0 6 0;
#X connect 40 0 6 0;
#X connect 41 0 6 0;
#X connect 42 0 6 0;
#X connect 43 0 6 0;
#X connect 44 0 14 0;
#X connect 45 0 16 0;
#X connect 46 0 17 0;
#X connect 47 0 6 0;
#X connect 48 0 6 0;
#X connect 49 0 6 0;
#X connect 50 0 7 0;
#X restore 314 97 pd Family Horizont 1;
#X f 25;
#N canvas -8 0 958 1016 Family 0;
#X obj 61 48 inlet;
#X obj 19 711 outlet;
#X text 105 48 ID;
#X text 72 712 MIDI;
#X obj 374 712 outlet;
#X text 309 711 Velocity;
#X floatatom 312 366 5 0 0 0 - - - 0;
#X floatatom 435 435 5 0 0 0 - - - 0;
#X text 521 369 Velocity;
#X text 347 369 Midi Note;
#X floatatom 61 103 5 0 0 0 - - - 0;
#X obj 61 204 bng 15 250 50 0 empty empty empty 17 7 0 10 #fcfcfc #000000
#000000;
#X obj 115 203 bng 15 250 50 0 empty empty empty 17 7 0 10 #fcfcfc
#000000 #000000;
#X obj 169 203 bng 15 250 50 0 empty empty empty 17 7 0 10 #fcfcfc
#000000 #000000;
#X obj 228 204 bng 15 250 50 0 empty empty empty 17 7 0 10 #fcfcfc
#000000 #000000;
#X obj 387 207 bng 15 250 50 0 empty empty empty 17 7 0 10 #fcfcfc
#000000 #000000;
#X obj 283 206 bng 15 250 50 0 empty empty empty 17 7 0 10 #fcfcfc
#000000 #000000;
#X obj 333 205 bng 15 250 50 0 empty empty empty 17 7 0 10 #fcfcfc
#000000 #000000;
#X obj 499 209 bng 15 250 50 0 empty empty empty 17 7 0 10 #fcfcfc
#000000 #000000;
#X obj 446 206 bng 15 250 50 0 empty empty empty 17 7 0 10 #fcfcfc
#000000 #000000;
#X obj 555 209 bng 15 250 50 0 empty empty empty 17 7 0 10 #fcfcfc
#000000 #000000;
#X text 31 103 ID;
#X obj 499 167 sel 0;
#X obj 555 166 sel 0;
#X msg 499 248 57;
#X msg 555 249 60;
#X obj 435 368 random 2, f 11;
#X text 782 280 C = 60;
#X text 782 304 D = 62;
#X text 784 329 E = 64;
#X text 784 348 G = 67;
#X text 784 371 A = 69;
#X obj 819 134 notein;
#X floatatom 819 158 5 0 0 0 - - - 0;
#X msg 61 253 62;
#X msg 283 249 62;
#X msg 333 248 62;
#X msg 387 250 69;
#X msg 447 247 69;
#X obj 61 167 sel 5;
#X obj 115 167 sel 6;
#X obj 169 167 sel 7;
#X obj 228 168 sel 8;
#X obj 283 168 sel 0;
#X obj 333 168 sel 0;
#X obj 387 168 sel 0;
#X obj 445 168 sel 0;
#X msg 115 251 62;
#X msg 169 249 62;
#X msg 228 249 64;
#X obj 435 397 + 50;
#X connect 6 0 1 0;
#X connect 7 0 4 0;
#X connect 10 0 22 0;
#X connect 10 0 23 0;
#X connect 10 0 39 0;
#X connect 10 0 40 0;
#X connect 10 0 41 0;
#X connect 10 0 42 0;
#X connect 10 0 43 0;
#X connect 10 0 44 0;
#X connect 10 0 45 0;
#X connect 10 0 46 0;
#X connect 11 0 34 0;
#X connect 11 0 26 0;
#X connect 12 0 47 0;
#X connect 12 0 26 0;
#X connect 13 0 48 0;
#X connect 13 0 26 0;
#X connect 14 0 49 0;
#X connect 14 0 26 0;
#X connect 15 0 37 0;
#X connect 15 0 26 0;
#X connect 16 0 35 0;
#X connect 16 0 26 0;
#X connect 17 0 36 0;
#X connect 17 0 26 0;
#X connect 18 0 24 0;
#X connect 18 0 26 0;
#X connect 19 0 38 0;
#X connect 19 0 26 0;
#X connect 20 0 25 0;
#X connect 20 0 26 0;
#X connect 22 0 18 0;
#X connect 23 0 20 0;
#X connect 24 0 6 0;
#X connect 25 0 6 0;
#X connect 26 0 50 0;
#X connect 32 0 33 0;
#X connect 34 0 6 0;
#X connect 35 0 6 0;
#X connect 36 0 6 0;
#X connect 37 0 6 0;
#X connect 38 0 6 0;
#X connect 39 0 11 0;
#X connect 40 0 12 0;
#X connect 41 0 13 0;
#X connect 42 0 14 0;
#X connect 43 0 16 0;
#X connect 44 0 17 0;
#X connect 45 0 15 0;
#X connect 46 0 19 0;
#X connect 47 0 6 0;
#X connect 48 0 6 0;
#X connect 49 0 6 0;
#X connect 50 0 7 0;
#X restore 237 131 pd Family Horizont 2;
#X f 33;
#N canvas -8 0 958 1016 Family 0;
#X obj 14 9 inlet;
#X obj 15 699 outlet;
#X text 59 9 ID;
#X text 66 699 MIDI;
#X obj 492 700 outlet;
#X text 425 702 Velocity;
#X floatatom 297 426 5 0 0 0 - - - 0;
#X floatatom 420 495 5 0 0 0 - - - 0;
#X text 506 429 Velocity;
#X text 332 429 Midi Note;
#X floatatom 46 61 5 0 0 0 - - - 0;
#X obj 46 264 bng 15 250 50 0 empty empty empty 17 7 0 10 #fcfcfc #000000
#000000;
#X obj 100 263 bng 15 250 50 0 empty empty empty 17 7 0 10 #fcfcfc
#000000 #000000;
#X obj 154 263 bng 15 250 50 0 empty empty empty 17 7 0 10 #fcfcfc
#000000 #000000;
#X obj 213 264 bng 15 250 50 0 empty empty empty 17 7 0 10 #fcfcfc
#000000 #000000;
#X obj 372 267 bng 15 250 50 0 empty empty empty 17 7 0 10 #fcfcfc
#000000 #000000;
#X obj 268 266 bng 15 250 50 0 empty empty empty 17 7 0 10 #fcfcfc
#000000 #000000;
#X obj 318 265 bng 15 250 50 0 empty empty empty 17 7 0 10 #fcfcfc
#000000 #000000;
#X obj 484 269 bng 15 250 50 0 empty empty empty 17 7 0 10 #fcfcfc
#000000 #000000;
#X obj 431 266 bng 15 250 50 0 empty empty empty 17 7 0 10 #fcfcfc
#000000 #000000;
#X obj 540 269 bng 15 250 50 0 empty empty empty 17 7 0 10 #fcfcfc
#000000 #000000;
#X text 16 163 ID;
#X obj 420 428 random 2, f 11;
#X text 782 280 C = 72;
#X text 782 304 D = 74;
#X obj 725 97 notein;
#X floatatom 725 121 5 0 0 0 - - - 0;
#X text 784 329 E = 76;
#X text 784 348 G = 79;
#X obj 596 270 bng 15 250 50 0 empty empty empty 17 7 0 10 #fcfcfc
#000000 #000000;
#X obj 652 269 bng 15 250 50 0 empty empty empty 17 7 0 10 #fcfcfc
#000000 #000000;
#X obj 707 270 bng 15 250 50 0 empty empty empty 17 7 0 10 #fcfcfc
#000000 #000000;
#X msg 318 308 72;
#X msg 372 310 72;
#X msg 431 307 79;
#X text 784 371 A = 81;
#X msg 484 308 81;
#X msg 540 310 76;
#X msg 594 307 72;
#X msg 650 302 72;
#X msg 706 299 74;
#X obj 318 228 sel 0;
#X obj 372 228 sel 0;
#X obj 430 227 sel 0;
#X obj 484 227 sel 0;
#X obj 540 226 sel 0;
#X obj 596 227 sel 0;
#X obj 652 227 sel 0;
#X obj 707 228 sel 0;
#X msg 154 309 74;
#X msg 213 309 74;
#X msg 268 309 74;
#X obj 46 227 sel 7;
#X obj 100 227 sel 8;
#X obj 154 227 sel 0;
#X obj 213 228 sel 0;
#X obj 268 228 sel 0;
#X msg 47 313 76;
#X msg 100 311 76;
#X obj 420 456 + 30;
#X connect 0 0 10 0;
#X connect 6 0 1 0;
#X connect 7 0 4 0;
#X connect 10 0 41 0;
#X connect 10 0 42 0;
#X connect 10 0 43 0;
#X connect 10 0 44 0;
#X connect 10 0 45 0;
#X connect 10 0 46 0;
#X connect 10 0 47 0;
#X connect 10 0 48 0;
#X connect 10 0 52 0;
#X connect 10 0 53 0;
#X connect 10 0 54 0;
#X connect 10 0 55 0;
#X connect 10 0 56 0;
#X connect 11 0 57 0;
#X connect 11 0 22 0;
#X connect 12 0 58 0;
#X connect 12 0 22 0;
#X connect 13 0 49 0;
#X connect 13 0 22 0;
#X connect 14 0 50 0;
#X connect 14 0 22 0;
#X connect 15 0 33 0;
#X connect 15 0 22 0;
#X connect 16 0 51 0;
#X connect 16 0 22 0;
#X connect 17 0 32 0;
#X connect 17 0 22 0;
#X connect 18 0 36 0;
#X connect 18 0 22 0;
#X connect 19 0 34 0;
#X connect 19 0 22 0;
#X connect 20 0 37 0;
#X connect 20 0 22 0;
#X connect 22 0 59 0;
#X connect 25 0 26 0;
#X connect 29 0 38 0;
#X connect 29 0 22 0;
#X connect 30 0 39 0;
#X connect 30 0 22 0;
#X connect 31 0 40 0;
#X connect 31 0 22 0;
#X connect 32 0 6 0;
#X connect 33 0 6 0;
#X connect 34 0 6 0;
#X connect 36 0 6 0;
#X connect 37 0 6 0;
#X connect 38 0 6 0;
#X connect 39 0 6 0;
#X connect 40 0 6 0;
#X connect 41 0 17 0;
#X connect 42 0 15 0;
#X connect 43 0 19 0;
#X connect 44 0 18 0;
#X connect 45 0 20 0;
#X connect 46 0 29 0;
#X connect 47 0 30 0;
#X connect 48 0 31 0;
#X connect 49 0 6 0;
#X connect 50 0 6 0;
#X connect 51 0 6 0;
#X connect 52 0 11 0;
#X connect 53 0 12 0;
#X connect 54 0 13 0;
#X connect 55 0 14 0;
#X connect 56 0 16 0;
#X connect 57 0 6 0;
#X connect 58 0 6 0;
#X connect 59 0 7 0;
#X restore 171 162 pd Family Horizont 3;
#X f 39;
#N canvas 990 192 883 712 Family 0;
#X obj 18 17 inlet;
#X obj 288 667 outlet;
#X text 60 18 ID;
#X text 339 668 Midi;
#X obj 522 665 outlet;
#X text 456 666 Velocity;
#X floatatom 288 387 5 0 0 0 - - - 0;
#X floatatom 437 452 5 0 0 0 - - - 0;
#X text 523 386 Velocity;
#X text 349 386 Midi Note;
#X floatatom 63 120 5 0 0 0 - - - 0;
#X obj 63 221 bng 15 250 50 0 empty empty empty 17 7 0 10 #fcfcfc #000000
#000000;
#X obj 117 220 bng 15 250 50 0 empty empty empty 17 7 0 10 #fcfcfc
#000000 #000000;
#X obj 171 220 bng 15 250 50 0 empty empty empty 17 7 0 10 #fcfcfc
#000000 #000000;
#X obj 230 221 bng 15 250 50 0 empty empty empty 17 7 0 10 #fcfcfc
#000000 #000000;
#X obj 389 224 bng 15 250 50 0 empty empty empty 17 7 0 10 #fcfcfc
#000000 #000000;
#X obj 285 223 bng 15 250 50 0 empty empty empty 17 7 0 10 #fcfcfc
#000000 #000000;
#X obj 335 222 bng 15 250 50 0 empty empty empty 17 7 0 10 #fcfcfc
#000000 #000000;
#X obj 501 226 bng 15 250 50 0 empty empty empty 17 7 0 10 #fcfcfc
#000000 #000000;
#X obj 448 223 bng 15 250 50 0 empty empty empty 17 7 0 10 #fcfcfc
#000000 #000000;
#X obj 557 226 bng 15 250 50 0 empty empty empty 17 7 0 10 #fcfcfc
#000000 #000000;
#X text 33 120 ID;
#X obj 285 185 sel 0;
#X obj 335 185 sel 0;
#X obj 389 185 sel 0;
#X obj 447 185 sel 0;
#X obj 501 184 sel 0;
#X obj 557 183 sel 0;
#X obj 437 385 random 2, f 11;
#X obj 437 416 + 1;
#X text 782 280 C = 84;
#X text 782 304 D = 86;
#X text 784 329 E = 88;
#X text 784 348 G = 91;
#X text 784 371 A = 93;
#X msg 64 270 86;
#X msg 117 268 86;
#X msg 230 266 84;
#X msg 171 266 84;
#X msg 285 266 0;
#X msg 335 265 0;
#X msg 389 267 0;
#X msg 449 264 0;
#X msg 501 265 0;
#X msg 557 266 0;
#X obj 63 184 sel 0;
#X obj 117 184 sel 0;
#X obj 171 184 sel 0;
#X obj 230 185 sel 0;
#X connect 0 0 10 0;
#X connect 6 0 1 0;
#X connect 7 0 4 0;
#X connect 10 0 22 0;
#X connect 10 0 23 0;
#X connect 10 0 24 0;
#X connect 10 0 25 0;
#X connect 10 0 26 0;
#X connect 10 0 27 0;
#X connect 10 0 45 0;
#X connect 10 0 46 0;
#X connect 10 0 47 0;
#X connect 10 0 48 0;
#X connect 11 0 35 0;
#X connect 11 0 28 0;
#X connect 12 0 36 0;
#X connect 12 0 28 0;
#X connect 13 0 38 0;
#X connect 13 0 28 0;
#X connect 14 0 37 0;
#X connect 14 0 28 0;
#X connect 15 0 41 0;
#X connect 15 0 28 0;
#X connect 16 0 39 0;
#X connect 16 0 28 0;
#X connect 17 0 40 0;
#X connect 17 0 28 0;
#X connect 18 0 43 0;
#X connect 18 0 28 0;
#X connect 19 0 42 0;
#X connect 19 0 28 0;
#X connect 20 0 44 0;
#X connect 20 0 28 0;
#X connect 22 0 16 0;
#X connect 23 0 17 0;
#X connect 24 0 15 0;
#X connect 25 0 19 0;
#X connect 26 0 18 0;
#X connect 27 0 20 0;
#X connect 28 0 29 0;
#X connect 29 0 7 0;
#X connect 35 0 6 0;
#X connect 36 0 6 0;
#X connect 37 0 6 0;
#X connect 38 0 6 0;
#X connect 39 0 6 0;
#X connect 40 0 6 0;
#X connect 41 0 6 0;
#X connect 42 0 6 0;
#X connect 43 0 6 0;
#X connect 44 0 6 0;
#X connect 45 0 11 0;
#X connect 46 0 12 0;
#X connect 47 0 13 0;
#X connect 48 0 14 0;
#X restore 70 197 pd Family Horizont 4;
#X f 51;
#X obj 237 296 Piano, f 36;
#X obj 235 617 outlet~;
#X obj 484 614 outlet~;
#X obj 598 24 inlet;
#X obj 598 88 switch~;
#X obj 661 25 tgl 15 0 empty empty empty 17 7 0 10 #fcfcfc #000000
#000000 0 1;
#N canvas 160 160 1530 681 L/R 0;
#X floatatom 100 180 5 0 0 0 - - - 0;
#X obj 100 40 r XState;
#X floatatom 100 64 6 0 0 0 - - - 0;
#X obj 100 87 / 960;
#X floatatom 100 111 5 0 0 0 - - - 0;
#X obj 100 145 scale 0.7 1, f 15;
#X floatatom 100 245 5 0 0 0 - - - 0;
#X floatatom 183 288 5 0 0 0 - - - 0;
#X obj 183 263 >= 0;
#X obj 100 328 *;
#X floatatom 100 360 5 0 0 0 - - - 0;
#X obj 101 203 / 2;
#X obj 100 396 expr 1 - $f1;
#X floatatom 100 420 5 0 0 0 - - - 0;
#X floatatom 199 463 5 0 0 0 - - - 0;
#X obj 199 438 >= 0;
#X obj 100 481 *;
#X floatatom 100 505 5 0 0 0 - - - 0;
#X obj 100 544 expr 1 - $f1;
#X floatatom 100 579 5 0 0 0 - - - 0;
#X floatatom 185 622 5 0 0 0 - - - 0;
#X obj 185 597 >= 0;
#X obj 100 640 *;
#X floatatom 100 664 5 0 0 0 - - - 0;
#X obj 100 698 outlet;
#X connect 0 0 11 0;
#X connect 1 0 2 0;
#X connect 2 0 3 0;
#X connect 3 0 4 0;
#X connect 4 0 5 0;
#X connect 5 0 0 0;
#X connect 6 0 8 0;
#X connect 6 0 9 0;
#X connect 7 0 9 1;
#X connect 8 0 7 0;
#X connect 9 0 10 0;
#X connect 10 0 12 0;
#X connect 11 0 6 0;
#X connect 12 0 13 0;
#X connect 13 0 16 0;
#X connect 13 0 15 0;
#X connect 14 0 16 1;
#X connect 15 0 14 0;
#X connect 16 0 17 0;
#X connect 17 0 18 0;
#X connect 18 0 19 0;
#X connect 19 0 22 0;
#X connect 19 0 21 0;
#X connect 20 0 22 1;
#X connect 21 0 20 0;
#X connect 22 0 23 0;
#X connect 23 0 24 0;
#X restore 334 331 pd L/R Balance;
#X floatatom 334 362 5 0 0 0 - - - 0;
#N canvas 32 32 1048 853 O/U 0;
#X floatatom 39 158 5 0 0 0 - - - 0;
#X floatatom 39 42 6 0 0 0 - - - 0;
#X floatatom 39 89 5 0 0 0 - - - 0;
#X obj 39 123 scale 0.7 1, f 15;
#X floatatom 39 223 5 0 0 0 - - - 0;
#X floatatom 122 266 5 0 0 0 - - - 0;
#X obj 122 241 >= 0;
#X obj 39 306 *;
#X floatatom 39 338 5 0 0 0 - - - 0;
#X obj 40 181 / 2;
#X obj 39 374 expr 1 - $f1;
#X floatatom 39 398 5 0 0 0 - - - 0;
#X floatatom 138 441 5 0 0 0 - - - 0;
#X obj 138 416 >= 0;
#X obj 39 459 *;
#X floatatom 39 483 5 0 0 0 - - - 0;
#X obj 39 676 outlet;
#X obj 39 18 r YState;
#X obj 39 65 / 540;
#X connect 0 0 9 0;
#X connect 1 0 18 0;
#X connect 2 0 3 0;
#X connect 3 0 0 0;
#X connect 4 0 6 0;
#X connect 4 0 7 0;
#X connect 5 0 7 1;
#X connect 6 0 5 0;
#X connect 7 0 8 0;
#X connect 8 0 10 0;
#X connect 9 0 4 0;
#X connect 10 0 11 0;
#X connect 11 0 14 0;
#X connect 11 0 13 0;
#X connect 12 0 14 1;
#X connect 13 0 12 0;
#X connect 14 0 15 0;
#X connect 15 0 16 0;
#X connect 17 0 1 0;
#X connect 18 0 2 0;
#X restore 327 443 pd O/U Balance;
#X floatatom 327 467 5 0 0 0 - - - 0;
#X obj 235 430 *~;
#X obj 484 433 *~;
#X obj 236 506 *~;
#X obj 485 508 *~;
#X connect 1 0 2 0;
#X connect 2 0 3 0;
#X connect 2 0 4 0;
#X connect 2 0 5 0;
#X connect 2 0 6 0;
#X connect 3 0 7 0;
#X connect 3 1 7 1;
#X connect 4 0 7 0;
#X connect 4 1 7 1;
#X connect 5 0 7 0;
#X connect 5 1 7 1;
#X connect 6 0 7 0;
#X connect 6 1 7 1;
#X connect 7 0 17 0;
#X connect 7 1 18 0;
#X connect 10 0 11 0;
#X connect 12 0 11 0;
#X connect 13 0 14 0;
#X connect 14 0 17 1;
#X connect 14 0 18 1;
#X connect 15 0 16 0;
#X connect 16 0 19 1;
#X connect 16 0 20 1;
#X connect 17 0 19 0;
#X connect 18 0 20 0;
#X connect 19 0 8 0;
#X connect 20 0 9 0;
#X restore 1221 289 pd Family;
#N canvas -8 7 958 1009 Colleagues 0;
#X obj 430 21 inlet;
#X obj 147 25 r ID;
#X floatatom 147 53 5 0 0 0 - - - 0;
#X obj 430 69 switch~;
#X obj 71 24 inlet;
#X obj 57 483 outlet~;
#X obj 269 479 outlet~;
#X text 119 482 dry output;
#X text 327 480 wet output;
#X obj 57 222 Marimba, f 46;
#N canvas -8 0 958 1016 Colleagues 0;
#X obj 21 19 inlet;
#X obj 24 583 outlet;
#X obj 217 585 outlet;
#X text 76 582 MIDI outlet;
#X text 267 587 Velocity Outlet;
#X floatatom 373 369 5 0 0 0 - - - 0;
#X floatatom 495 438 5 0 0 0 - - - 0;
#X text 582 372 Velocity;
#X text 408 372 Midi Note;
#X floatatom 122 106 5 0 0 0 - - - 0;
#X obj 122 207 bng 15 250 50 0 empty empty empty 17 7 0 10 #fcfcfc
#000000 #000000;
#X obj 176 206 bng 15 250 50 0 empty empty empty 17 7 0 10 #fcfcfc
#000000 #000000;
#X obj 230 206 bng 15 250 50 0 empty empty empty 17 7 0 10 #fcfcfc
#000000 #000000;
#X obj 289 207 bng 15 250 50 0 empty empty empty 17 7 0 10 #fcfcfc
#000000 #000000;
#X obj 448 210 bng 15 250 50 0 empty empty empty 17 7 0 10 #fcfcfc
#000000 #000000;
#X obj 344 209 bng 15 250 50 0 empty empty empty 17 7 0 10 #fcfcfc
#000000 #000000;
#X obj 394 208 bng 15 250 50 0 empty empty empty 17 7 0 10 #fcfcfc
#000000 #000000;
#X obj 560 212 bng 15 250 50 0 empty empty empty 17 7 0 10 #fcfcfc
#000000 #000000;
#X obj 507 209 bng 15 250 50 0 empty empty empty 17 7 0 10 #fcfcfc
#000000 #000000;
#X obj 616 212 bng 15 250 50 0 empty empty empty 17 7 0 10 #fcfcfc
#000000 #000000;
#X text 92 106 ID;
#X obj 506 171 sel 0;
#X obj 560 170 sel 0;
#X obj 616 169 sel 0;
#X obj 63 201 bng 15 250 50 0 empty empty empty 17 7 0 10 #fcfcfc #000000
#000000;
#X msg 63 246 1;
#X obj 495 398 + 50;
#X obj 495 370 random 10, f 11;
#X obj 230 170 sel 0;
#X obj 289 171 sel 0;
#X obj 344 171 sel 0;
#X obj 394 171 sel 0;
#X obj 448 171 sel 0;
#X obj 664 647 notein;
#X floatatom 664 671 5 0 0 0 - - - 0;
#X msg 230 251 55;
#X msg 289 252 53;
#X msg 344 252 48;
#X msg 394 251 53;
#X msg 448 253 55;
#X msg 508 249 53;
#X msg 560 251 48;
#X msg 616 252 53;
#X text 782 280 C = 48;
#X text 782 304 D = 50;
#X text 784 329 E = 52;
#X text 784 348 G = 55;
#X text 784 371 A = 57;
#X obj 122 170 sel 19;
#X obj 63 169 sel 18;
#X msg 176 254 1;
#X msg 122 256 52;
#X obj 176 170 sel 0;
#X connect 5 0 1 0;
#X connect 6 0 2 0;
#X connect 9 0 21 0;
#X connect 9 0 22 0;
#X connect 9 0 23 0;
#X connect 9 0 28 0;
#X connect 9 0 29 0;
#X connect 9 0 30 0;
#X connect 9 0 31 0;
#X connect 9 0 32 0;
#X connect 9 0 48 0;
#X connect 9 0 49 0;
#X connect 9 0 52 0;
#X connect 10 0 51 0;
#X connect 10 0 27 0;
#X connect 11 0 50 0;
#X connect 11 0 27 0;
#X connect 12 0 35 0;
#X connect 12 0 27 0;
#X connect 13 0 36 0;
#X connect 13 0 27 0;
#X connect 14 0 39 0;
#X connect 14 0 27 0;
#X connect 15 0 37 0;
#X connect 15 0 27 0;
#X connect 16 0 38 0;
#X connect 16 0 27 0;
#X connect 17 0 41 0;
#X connect 17 0 27 0;
#X connect 18 0 40 0;
#X connect 18 0 27 0;
#X connect 19 0 42 0;
#X connect 19 0 27 0;
#X connect 21 0 18 0;
#X connect 22 0 17 0;
#X connect 23 0 19 0;
#X connect 24 0 25 0;
#X connect 24 0 27 0;
#X connect 25 0 5 0;
#X connect 26 0 6 0;
#X connect 27 0 26 0;
#X connect 28 0 12 0;
#X connect 29 0 13 0;
#X connect 30 0 15 0;
#X connect 31 0 16 0;
#X connect 32 0 14 0;
#X connect 33 0 34 0;
#X connect 35 0 5 0;
#X connect 36 0 5 0;
#X connect 37 0 5 0;
#X connect 38 0 5 0;
#X connect 39 0 5 0;
#X connect 40 0 5 0;
#X connect 41 0 5 0;
#X connect 42 0 5 0;
#X connect 48 0 10 0;
#X connect 49 0 24 0;
#X connect 50 0 5 0;
#X connect 51 0 5 0;
#X connect 52 0 11 0;
#X restore 146 102 pd Colleagues Horizont 1;
#X f 33;
#N canvas -8 0 958 1016 Colleagues 0;
#X obj 21 19 inlet;
#X obj 24 583 outlet;
#X obj 217 585 outlet;
#X text 76 582 MIDI outlet;
#X text 267 587 Velocity Outlet;
#X floatatom 373 369 5 0 0 0 - - - 0;
#X floatatom 495 438 5 0 0 0 - - - 0;
#X text 582 372 Velocity;
#X text 408 372 Midi Note;
#X floatatom 122 106 5 0 0 0 - - - 0;
#X obj 122 207 bng 15 250 50 0 empty empty empty 17 7 0 10 #fcfcfc
#000000 #000000;
#X obj 176 206 bng 15 250 50 0 empty empty empty 17 7 0 10 #fcfcfc
#000000 #000000;
#X obj 230 206 bng 15 250 50 0 empty empty empty 17 7 0 10 #fcfcfc
#000000 #000000;
#X obj 289 207 bng 15 250 50 0 empty empty empty 17 7 0 10 #fcfcfc
#000000 #000000;
#X obj 448 210 bng 15 250 50 0 empty empty empty 17 7 0 10 #fcfcfc
#000000 #000000;
#X obj 344 209 bng 15 250 50 0 empty empty empty 17 7 0 10 #fcfcfc
#000000 #000000;
#X obj 394 208 bng 15 250 50 0 empty empty empty 17 7 0 10 #fcfcfc
#000000 #000000;
#X obj 560 212 bng 15 250 50 0 empty empty empty 17 7 0 10 #fcfcfc
#000000 #000000;
#X obj 507 209 bng 15 250 50 0 empty empty empty 17 7 0 10 #fcfcfc
#000000 #000000;
#X obj 616 212 bng 15 250 50 0 empty empty empty 17 7 0 10 #fcfcfc
#000000 #000000;
#X text 92 106 ID;
#X obj 506 171 sel 0;
#X obj 560 170 sel 0;
#X obj 616 169 sel 0;
#X obj 23 202 bng 15 250 50 0 empty empty empty 17 7 0 10 #fcfcfc #000000
#000000;
#X msg 23 247 1;
#X obj 495 398 + 50;
#X obj 495 370 random 10, f 11;
#X text 782 280 C = 60;
#X text 782 304 D = 62;
#X text 784 330 E = 64;
#X text 784 348 G = 67;
#X text 784 371 A = 69;
#X text 19 278 reset;
#X msg 176 254 60;
#X msg 508 250 0;
#X msg 560 251 0;
#X msg 616 252 0;
#X msg 289 252 67;
#X msg 344 252 67;
#X msg 394 251 67;
#X msg 448 253 67;
#X obj 122 170 sel 18;
#X obj 176 169 sel 19;
#X obj 230 170 sel 20;
#X obj 289 171 sel 21;
#X obj 394 171 sel 0;
#X obj 344 171 sel 0;
#X obj 23 170 sel 17;
#X msg 122 256 60;
#X msg 230 252 62;
#X obj 450 170 sel 0;
#X connect 0 0 9 0;
#X connect 5 0 1 0;
#X connect 6 0 2 0;
#X connect 9 0 21 0;
#X connect 9 0 22 0;
#X connect 9 0 23 0;
#X connect 9 0 42 0;
#X connect 9 0 43 0;
#X connect 9 0 44 0;
#X connect 9 0 45 0;
#X connect 9 0 46 0;
#X connect 9 0 47 0;
#X connect 9 0 48 0;
#X connect 9 0 51 0;
#X connect 10 0 49 0;
#X connect 10 0 27 0;
#X connect 11 0 34 0;
#X connect 11 0 27 0;
#X connect 12 0 50 0;
#X connect 12 0 27 0;
#X connect 13 0 38 0;
#X connect 13 0 27 0;
#X connect 14 0 41 0;
#X connect 14 0 27 0;
#X connect 15 0 39 0;
#X connect 15 0 27 0;
#X connect 16 0 40 0;
#X connect 16 0 27 0;
#X connect 17 0 36 0;
#X connect 17 0 27 0;
#X connect 18 0 35 0;
#X connect 18 0 27 0;
#X connect 19 0 37 0;
#X connect 19 0 27 0;
#X connect 21 0 18 0;
#X connect 22 0 17 0;
#X connect 23 0 19 0;
#X connect 24 0 25 0;
#X connect 24 0 27 0;
#X connect 25 0 5 0;
#X connect 26 0 6 0;
#X connect 27 0 26 0;
#X connect 34 0 5 0;
#X connect 35 0 5 0;
#X connect 36 0 5 0;
#X connect 37 0 5 0;
#X connect 38 0 5 0;
#X connect 39 0 5 0;
#X connect 40 0 5 0;
#X connect 41 0 5 0;
#X connect 42 0 10 0;
#X connect 43 0 11 0;
#X connect 44 0 12 0;
#X connect 45 0 13 0;
#X connect 46 0 16 0;
#X connect 47 0 15 0;
#X connect 48 0 24 0;
#X connect 49 0 5 0;
#X connect 50 0 5 0;
#X connect 51 0 14 0;
#X restore 124 126 pd Colleagues Horizont 2;
#X f 27;
#N canvas -8 0 958 1016 Colleagues 0;
#X obj 21 19 inlet;
#X obj 24 583 outlet;
#X obj 217 585 outlet;
#X text 76 582 MIDI outlet;
#X text 267 587 Velocity Outlet;
#X floatatom 373 369 5 0 0 0 - - - 0;
#X floatatom 495 438 5 0 0 0 - - - 0;
#X text 582 372 Velocity;
#X text 408 372 Midi Note;
#X floatatom 122 106 5 0 0 0 - - - 0;
#X obj 122 207 bng 15 250 50 0 empty empty empty 17 7 0 10 #fcfcfc
#000000 #000000;
#X obj 176 206 bng 15 250 50 0 empty empty empty 17 7 0 10 #fcfcfc
#000000 #000000;
#X obj 230 206 bng 15 250 50 0 empty empty empty 17 7 0 10 #fcfcfc
#000000 #000000;
#X obj 289 207 bng 15 250 50 0 empty empty empty 17 7 0 10 #fcfcfc
#000000 #000000;
#X obj 448 210 bng 15 250 50 0 empty empty empty 17 7 0 10 #fcfcfc
#000000 #000000;
#X obj 344 209 bng 15 250 50 0 empty empty empty 17 7 0 10 #fcfcfc
#000000 #000000;
#X obj 394 208 bng 15 250 50 0 empty empty empty 17 7 0 10 #fcfcfc
#000000 #000000;
#X obj 560 212 bng 15 250 50 0 empty empty empty 17 7 0 10 #fcfcfc
#000000 #000000;
#X obj 507 209 bng 15 250 50 0 empty empty empty 17 7 0 10 #fcfcfc
#000000 #000000;
#X obj 616 212 bng 15 250 50 0 empty empty empty 17 7 0 10 #fcfcfc
#000000 #000000;
#X text 92 106 ID;
#X obj 506 171 sel 0;
#X obj 560 170 sel 0;
#X obj 616 169 sel 0;
#X obj 63 201 bng 15 250 50 0 empty empty empty 17 7 0 10 #fcfcfc #000000
#000000;
#X msg 63 246 1;
#X obj 495 398 + 50;
#X obj 495 370 random 10, f 11;
#X obj 230 170 sel 0;
#X obj 289 171 sel 0;
#X obj 345 171 sel 0;
#X obj 394 171 sel 0;
#X obj 448 171 sel 0;
#X text 782 280 C = 72;
#X text 782 304 D = 74;
#X text 784 330 E = 76;
#X text 784 348 G = 79;
#X text 784 371 A = 81;
#X text 41 271 reset;
#X msg 230 252 0;
#X msg 289 252 0;
#X msg 344 252 0;
#X msg 394 251 0;
#X msg 448 253 0;
#X msg 507 250 0;
#X msg 560 251 0;
#X msg 616 252 0;
#X obj 63 169 sel 0;
#X obj 122 170 sel 22;
#X obj 176 169 sel 23;
#X msg 122 256 74;
#X msg 176 254 76;
#X connect 0 0 9 0;
#X connect 5 0 1 0;
#X connect 6 0 2 0;
#X connect 9 0 21 0;
#X connect 9 0 22 0;
#X connect 9 0 23 0;
#X connect 9 0 28 0;
#X connect 9 0 29 0;
#X connect 9 0 30 0;
#X connect 9 0 31 0;
#X connect 9 0 32 0;
#X connect 9 0 47 0;
#X connect 9 0 48 0;
#X connect 9 0 49 0;
#X connect 10 0 50 0;
#X connect 10 0 27 0;
#X connect 11 0 51 0;
#X connect 11 0 27 0;
#X connect 12 0 39 0;
#X connect 12 0 27 0;
#X connect 13 0 40 0;
#X connect 13 0 27 0;
#X connect 14 0 43 0;
#X connect 14 0 27 0;
#X connect 15 0 41 0;
#X connect 15 0 27 0;
#X connect 16 0 42 0;
#X connect 16 0 27 0;
#X connect 17 0 45 0;
#X connect 17 0 27 0;
#X connect 18 0 44 0;
#X connect 18 0 27 0;
#X connect 19 0 46 0;
#X connect 19 0 27 0;
#X connect 21 0 18 0;
#X connect 22 0 17 0;
#X connect 23 0 19 0;
#X connect 24 0 25 0;
#X connect 24 0 27 0;
#X connect 25 0 5 0;
#X connect 26 0 6 0;
#X connect 27 0 26 0;
#X connect 28 0 12 0;
#X connect 29 0 13 0;
#X connect 30 0 15 0;
#X connect 31 0 16 0;
#X connect 32 0 14 0;
#X connect 39 0 5 0;
#X connect 40 0 5 0;
#X connect 41 0 5 0;
#X connect 42 0 5 0;
#X connect 43 0 5 0;
#X connect 44 0 5 0;
#X connect 45 0 5 0;
#X connect 46 0 5 0;
#X connect 47 0 24 0;
#X connect 48 0 10 0;
#X connect 49 0 11 0;
#X connect 50 0 5 0;
#X connect 51 0 5 0;
#X restore 100 152 pd Colleagues Horizont 3;
#N canvas -8 0 958 1016 Colleagues 0;
#X obj 21 19 inlet;
#X obj 24 583 outlet;
#X obj 217 585 outlet;
#X text 76 582 MIDI outlet;
#X text 267 587 Velocity Outlet;
#X floatatom 366 385 5 0 0 0 - - - 0;
#X floatatom 489 454 5 0 0 0 - - - 0;
#X text 575 388 Velocity;
#X text 401 388 Midi Note;
#X floatatom 115 122 5 0 0 0 - - - 0;
#X obj 115 223 bng 15 250 50 0 empty empty empty 17 7 0 10 #fcfcfc
#000000 #000000;
#X obj 169 222 bng 15 250 50 0 empty empty empty 17 7 0 10 #fcfcfc
#000000 #000000;
#X obj 223 222 bng 15 250 50 0 empty empty empty 17 7 0 10 #fcfcfc
#000000 #000000;
#X obj 282 223 bng 15 250 50 0 empty empty empty 17 7 0 10 #fcfcfc
#000000 #000000;
#X obj 441 226 bng 15 250 50 0 empty empty empty 17 7 0 10 #fcfcfc
#000000 #000000;
#X obj 337 225 bng 15 250 50 0 empty empty empty 17 7 0 10 #fcfcfc
#000000 #000000;
#X obj 387 224 bng 15 250 50 0 empty empty empty 17 7 0 10 #fcfcfc
#000000 #000000;
#X obj 553 228 bng 15 250 50 0 empty empty empty 17 7 0 10 #fcfcfc
#000000 #000000;
#X obj 500 225 bng 15 250 50 0 empty empty empty 17 7 0 10 #fcfcfc
#000000 #000000;
#X obj 609 228 bng 15 250 50 0 empty empty empty 17 7 0 10 #fcfcfc
#000000 #000000;
#X text 85 122 ID;
#X obj 442 187 sel 0;
#X obj 499 187 sel 0;
#X obj 553 186 sel 0;
#X obj 609 185 sel 0;
#X obj 223 186 sel 0;
#X obj 282 187 sel 0;
#X obj 337 187 sel 0;
#X obj 388 187 sel 0;
#X obj 46 219 bng 15 250 50 0 empty empty empty 17 7 0 10 #fcfcfc #000000
#000000;
#X msg 46 268 1;
#X obj 489 387 random 1, f 11;
#X obj 489 417 + 30;
#X obj 46 186 sel 0;
#X obj 115 186 sel 0;
#X obj 169 186 sel 0;
#X msg 115 272 84;
#X msg 169 271 89;
#X msg 223 268 91;
#X msg 282 268 89;
#X msg 337 268 84;
#X msg 387 267 89;
#X msg 441 269 91;
#X msg 502 266 89;
#X msg 553 267 84;
#X msg 609 268 89;
#X text 782 280 C = 84;
#X text 782 304 D = 86;
#X text 784 330 E = 88;
#X text 784 348 G = 91;
#X text 784 371 A = 93;
#X connect 5 0 1 0;
#X connect 6 0 2 0;
#X connect 9 0 21 0;
#X connect 9 0 22 0;
#X connect 9 0 23 0;
#X connect 9 0 24 0;
#X connect 9 0 25 0;
#X connect 9 0 26 0;
#X connect 9 0 27 0;
#X connect 9 0 28 0;
#X connect 9 0 33 0;
#X connect 9 0 34 0;
#X connect 9 0 35 0;
#X connect 10 0 36 0;
#X connect 10 0 31 0;
#X connect 11 0 37 0;
#X connect 11 0 31 0;
#X connect 12 0 38 0;
#X connect 12 0 31 0;
#X connect 13 0 39 0;
#X connect 13 0 31 0;
#X connect 14 0 42 0;
#X connect 14 0 31 0;
#X connect 15 0 40 0;
#X connect 15 0 31 0;
#X connect 16 0 41 0;
#X connect 16 0 31 0;
#X connect 17 0 44 0;
#X connect 17 0 31 0;
#X connect 18 0 43 0;
#X connect 18 0 31 0;
#X connect 19 0 45 0;
#X connect 19 0 31 0;
#X connect 21 0 14 0;
#X connect 22 0 18 0;
#X connect 23 0 17 0;
#X connect 24 0 19 0;
#X connect 25 0 12 0;
#X connect 26 0 13 0;
#X connect 27 0 15 0;
#X connect 28 0 16 0;
#X connect 29 0 30 0;
#X connect 29 0 31 0;
#X connect 30 0 5 0;
#X connect 31 0 32 0;
#X connect 32 0 6 0;
#X connect 33 0 29 0;
#X connect 34 0 10 0;
#X connect 35 0 11 0;
#X connect 36 0 5 0;
#X connect 37 0 5 0;
#X connect 38 0 5 0;
#X connect 39 0 5 0;
#X connect 40 0 5 0;
#X connect 41 0 5 0;
#X connect 42 0 5 0;
#X connect 43 0 5 0;
#X connect 44 0 5 0;
#X connect 45 0 5 0;
#X restore 57 180 pd Colleagues Horizont 4;
#N canvas 256 256 450 300 L/R 0;
#X floatatom 66 169 5 0 0 0 - - - 0;
#X obj 66 29 r XState;
#X floatatom 66 53 6 0 0 0 - - - 0;
#X obj 66 76 / 960;
#X floatatom 66 100 5 0 0 0 - - - 0;
#X obj 66 134 scale 0.7 1, f 15;
#X floatatom 66 234 5 0 0 0 - - - 0;
#X floatatom 149 327 5 0 0 0 - - - 0;
#X obj 149 302 >= 0;
#X obj 66 367 *;
#X floatatom 66 399 5 0 0 0 - - - 0;
#X obj 67 192 / 2;
#X obj 66 435 expr 1 - $f1;
#X floatatom 66 459 5 0 0 0 - - - 0;
#X floatatom 166 547 5 0 0 0 - - - 0;
#X obj 166 522 >= 0;
#X obj 67 565 *;
#X floatatom 67 589 5 0 0 0 - - - 0;
#X obj 67 638 outlet;
#X connect 0 0 11 0;
#X connect 1 0 2 0;
#X connect 2 0 3 0;
#X connect 3 0 4 0;
#X connect 4 0 5 0;
#X connect 5 0 0 0;
#X connect 6 0 8 0;
#X connect 6 0 9 0;
#X connect 7 0 9 1;
#X connect 8 0 7 0;
#X connect 9 0 10 0;
#X connect 10 0 12 0;
#X connect 11 0 6 0;
#X connect 12 0 13 0;
#X connect 13 0 16 0;
#X connect 13 0 15 0;
#X connect 14 0 16 1;
#X connect 15 0 14 0;
#X connect 16 0 17 0;
#X connect 17 0 18 0;
#X restore 415 224 pd L/R Balance;
#X floatatom 415 248 5 0 0 0 - - - 0;
#N canvas 256 256 450 300 O/U 0;
#X floatatom 39 158 5 0 0 0 - - - 0;
#X floatatom 39 42 6 0 0 0 - - - 0;
#X floatatom 39 89 5 0 0 0 - - - 0;
#X obj 39 123 scale 0.7 1, f 15;
#X floatatom 39 223 5 0 0 0 - - - 0;
#X floatatom 122 266 5 0 0 0 - - - 0;
#X obj 122 241 >= 0;
#X obj 39 306 *;
#X floatatom 39 338 5 0 0 0 - - - 0;
#X obj 40 181 / 2;
#X obj 39 374 expr 1 - $f1;
#X floatatom 39 398 5 0 0 0 - - - 0;
#X floatatom 138 441 5 0 0 0 - - - 0;
#X obj 138 416 >= 0;
#X obj 39 459 *;
#X floatatom 39 483 5 0 0 0 - - - 0;
#X obj 39 522 expr 1 - $f1;
#X floatatom 39 557 5 0 0 0 - - - 0;
#X floatatom 124 600 5 0 0 0 - - - 0;
#X obj 124 575 >= 0;
#X obj 39 618 *;
#X floatatom 39 642 5 0 0 0 - - - 0;
#X obj 39 676 outlet;
#X obj 39 18 r YState;
#X obj 39 65 / 540;
#X connect 0 0 9 0;
#X connect 1 0 24 0;
#X connect 2 0 3 0;
#X connect 3 0 0 0;
#X connect 4 0 6 0;
#X connect 4 0 7 0;
#X connect 5 0 7 1;
#X connect 6 0 5 0;
#X connect 7 0 8 0;
#X connect 8 0 10 0;
#X connect 9 0 4 0;
#X connect 10 0 11 0;
#X connect 11 0 14 0;
#X connect 11 0 13 0;
#X connect 12 0 14 1;
#X connect 13 0 12 0;
#X connect 14 0 15 0;
#X connect 15 0 16 0;
#X connect 16 0 17 0;
#X connect 17 0 20 0;
#X connect 17 0 19 0;
#X connect 18 0 20 1;
#X connect 19 0 18 0;
#X connect 20 0 21 0;
#X connect 21 0 22 0;
#X connect 23 0 1 0;
#X connect 24 0 2 0;
#X restore 354 332 pd O/U Balance;
#X floatatom 354 356 5 0 0 0 - - - 0;
#X obj 56 316 *~;
#X obj 271 316 *~;
#X obj 270 392 *~;
#X obj 57 392 *~;
#X obj 58 448 *~ 3;
#X obj 270 445 *~ 2;
#X connect 0 0 3 0;
#X connect 1 0 2 0;
#X connect 2 0 11 0;
#X connect 2 0 13 0;
#X connect 2 0 10 0;
#X connect 2 0 12 0;
#X connect 9 0 18 0;
#X connect 9 0 19 0;
#X connect 10 0 9 0;
#X connect 10 1 9 1;
#X connect 11 0 9 0;
#X connect 11 1 9 1;
#X connect 12 0 9 0;
#X connect 12 1 9 1;
#X connect 13 0 9 0;
#X connect 13 1 9 1;
#X connect 14 0 15 0;
#X connect 15 0 19 1;
#X connect 15 0 18 1;
#X connect 16 0 17 0;
#X connect 17 0 20 1;
#X connect 17 0 21 1;
#X connect 18 0 21 0;
#X connect 19 0 20 0;
#X connect 20 0 23 0;
#X connect 21 0 22 0;
#X connect 22 0 5 0;
#X connect 23 0 6 0;
#X restore 578 708 pd Colleagues;
#N canvas -8 0 1920 1026 Help 0;
#X obj 59 818 outlet~;
#X obj 522 824 outlet~;
#X obj 57 16 inlet;
#X obj 358 23 r ID;
#X text 573 500 wet signal;
#X text 439 503 dry signal, f 20;
#X obj 1776 17 inlet;
#X obj 1776 58 switch~;
#N canvas 160 160 1078 725 Help 0;
#X obj 22 20 inlet;
#X floatatom 167 265 5 0 0 0 - - - 0;
#X obj 167 340 phasor~;
#X obj 167 162 bng 15 250 50 0 empty empty empty 17 7 0 10 #fcfcfc
#000000 #000000;
#X obj 233 162 bng 15 250 50 0 empty empty empty 17 7 0 10 #fcfcfc
#000000 #000000;
#X obj 297 163 bng 15 250 50 0 empty empty empty 17 7 0 10 #fcfcfc
#000000 #000000;
#X obj 355 162 bng 15 250 50 0 empty empty empty 17 7 0 10 #fcfcfc
#000000 #000000;
#X obj 167 290 mtof;
#X floatatom 167 316 5 0 0 0 - - - 0;
#X text 38 214 sets MIDI notes;
#X text 178 191 C;
#X text 247 189 F;
#X text 364 189 F;
#X text 308 190 G;
#X obj 169 439 *~;
#X obj 722 420 vline~, f 13;
#X msg 113 290 0;
#X obj 168 398 bob~, f 13;
#X obj 227 263 loadbang;
#X floatatom 300 355 5 0 8 0 - - - 0;
#X msg 227 355 150;
#X text 31 289 clear fq;
#X text 346 359 filter resonance;
#X text 255 355 fq;
#X text 98 397 low-pass;
#X text 750 339 envelope;
#X msg 300 327 3;
#X obj 415 132 sel 0;
#X obj 415 162 bng 15 250 50 0 empty empty empty 17 7 0 10 #fcfcfc
#000000 #000000;
#X obj 469 160 bng 15 250 50 0 empty empty empty 17 7 0 10 #fcfcfc
#000000 #000000;
#X obj 519 161 bng 15 250 50 0 empty empty empty 17 7 0 10 #fcfcfc
#000000 #000000;
#X obj 572 162 bng 15 250 50 0 empty empty empty 17 7 0 10 #fcfcfc
#000000 #000000;
#X obj 627 161 bng 15 250 50 0 empty empty empty 17 7 0 10 #fcfcfc
#000000 #000000;
#X obj 681 161 bng 15 250 50 0 empty empty empty 17 7 0 10 #fcfcfc
#000000 #000000;
#X obj 297 132 sel 0;
#X obj 355 130 sel 0;
#X obj 469 129 sel 0;
#X obj 519 130 sel 0;
#X obj 572 130 sel 0;
#X obj 627 130 sel 0;
#X obj 681 129 sel 0;
#X obj 722 176 bng 15 250 50 0 empty empty empty 17 7 0 10 #fcfcfc
#000000 #000000;
#X floatatom 167 93 5 0 0 0 - - - 0;
#X msg 722 367 0.7 10 \, 0.5 250 10 \, 0 500 260;
#X obj 169 510 outlet~;
#X obj 167 132 sel 0;
#X obj 234 131 sel 0;
#X msg 167 212 24;
#X msg 233 210 29;
#X msg 296 210 31;
#X msg 355 209 29;
#X msg 415 209 24;
#X msg 469 206 29;
#X msg 519 205 31;
#X msg 572 208 29;
#X msg 627 208 24;
#X msg 681 210 29;
#X text 809 105 C = 24;
#X text 807 127 D = 26;
#X text 809 150 E = 28;
#X text 811 175 G = 31;
#X text 813 197 A = 33;
#X connect 0 0 42 0;
#X connect 1 0 7 0;
#X connect 2 0 17 0;
#X connect 3 0 47 0;
#X connect 3 0 41 0;
#X connect 4 0 48 0;
#X connect 4 0 41 0;
#X connect 5 0 49 0;
#X connect 5 0 41 0;
#X connect 6 0 50 0;
#X connect 6 0 41 0;
#X connect 7 0 8 0;
#X connect 8 0 2 0;
#X connect 14 0 44 0;
#X connect 15 0 14 1;
#X connect 16 0 8 0;
#X connect 17 0 14 0;
#X connect 18 0 20 0;
#X connect 18 0 26 0;
#X connect 19 0 17 2;
#X connect 20 0 17 1;
#X connect 26 0 19 0;
#X connect 27 0 28 0;
#X connect 28 0 51 0;
#X connect 28 0 41 0;
#X connect 29 0 52 0;
#X connect 29 0 41 0;
#X connect 30 0 53 0;
#X connect 30 0 41 0;
#X connect 31 0 54 0;
#X connect 31 0 41 0;
#X connect 32 0 55 0;
#X connect 32 0 41 0;
#X connect 33 0 56 0;
#X connect 33 0 41 0;
#X connect 34 0 5 0;
#X connect 35 0 6 0;
#X connect 36 0 29 0;
#X connect 37 0 30 0;
#X connect 38 0 31 0;
#X connect 39 0 32 0;
#X connect 40 0 33 0;
#X connect 41 0 43 0;
#X connect 42 0 34 0;
#X connect 42 0 35 0;
#X connect 42 0 27 0;
#X connect 42 0 36 0;
#X connect 42 0 37 0;
#X connect 42 0 38 0;
#X connect 42 0 39 0;
#X connect 42 0 40 0;
#X connect 42 0 45 0;
#X connect 42 0 46 0;
#X connect 43 0 15 0;
#X connect 45 0 3 0;
#X connect 46 0 4 0;
#X connect 47 0 1 0;
#X connect 48 0 1 0;
#X connect 49 0 1 0;
#X connect 50 0 1 0;
#X connect 51 0 1 0;
#X connect 52 0 1 0;
#X connect 53 0 1 0;
#X connect 54 0 1 0;
#X connect 55 0 1 0;
#X connect 56 0 1 0;
#X restore 59 71 pd Help Horizont 1;
#N canvas -8 0 958 1016 Help 0;
#X obj 22 20 inlet;
#X floatatom 179 258 5 0 0 0 - - - 0;
#X obj 179 333 phasor~;
#X obj 179 155 bng 15 250 50 0 empty empty empty 17 7 0 10 #fcfcfc
#000000 #000000;
#X obj 245 155 bng 15 250 50 0 empty empty empty 17 7 0 10 #fcfcfc
#000000 #000000;
#X obj 309 156 bng 15 250 50 0 empty empty empty 17 7 0 10 #fcfcfc
#000000 #000000;
#X msg 309 203 43;
#X msg 367 202 41;
#X obj 367 155 bng 15 250 50 0 empty empty empty 17 7 0 10 #fcfcfc
#000000 #000000;
#X obj 179 283 mtof;
#X floatatom 179 309 5 0 0 0 - - - 0;
#X text 50 207 sets MIDI notes;
#X obj 181 432 *~;
#X obj 734 413 vline~, f 13;
#X msg 125 283 0;
#X obj 180 391 bob~, f 13;
#X obj 239 256 loadbang;
#X floatatom 312 348 5 0 8 0 - - - 0;
#X msg 239 348 150;
#X text 43 282 clear fq;
#X text 358 352 filter resonance;
#X text 267 348 fq;
#X text 110 390 low-pass;
#X text 762 332 envelope;
#X msg 312 320 3;
#X obj 427 125 sel 0;
#X obj 427 155 bng 15 250 50 0 empty empty empty 17 7 0 10 #fcfcfc
#000000 #000000;
#X obj 481 153 bng 15 250 50 0 empty empty empty 17 7 0 10 #fcfcfc
#000000 #000000;
#X obj 531 154 bng 15 250 50 0 empty empty empty 17 7 0 10 #fcfcfc
#000000 #000000;
#X obj 584 155 bng 15 250 50 0 empty empty empty 17 7 0 10 #fcfcfc
#000000 #000000;
#X obj 639 154 bng 15 250 50 0 empty empty empty 17 7 0 10 #fcfcfc
#000000 #000000;
#X obj 693 154 bng 15 250 50 0 empty empty empty 17 7 0 10 #fcfcfc
#000000 #000000;
#X obj 309 125 sel 0;
#X obj 367 123 sel 0;
#X obj 481 122 sel 0;
#X obj 531 123 sel 0;
#X obj 584 123 sel 0;
#X obj 639 123 sel 0;
#X obj 693 122 sel 0;
#X msg 427 202 36;
#X msg 481 199 41;
#X msg 531 198 43;
#X msg 584 201 41;
#X msg 639 201 36;
#X msg 693 203 41;
#X obj 734 169 bng 15 250 50 0 empty empty empty 17 7 0 10 #fcfcfc
#000000 #000000;
#X floatatom 179 86 5 0 0 0 - - - 0;
#X msg 734 360 0.7 10 \, 0.5 250 10 \, 0 500 260;
#X obj 181 503 outlet~;
#X text 809 105 C = 36;
#X text 807 127 D = 38;
#X text 809 150 E = 40;
#X text 811 175 G = 43;
#X text 813 197 A = 45;
#X obj 179 125 sel 15;
#X obj 245 124 sel 16;
#X msg 179 205 43;
#X msg 245 203 38;
#X connect 0 0 46 0;
#X connect 1 0 9 0;
#X connect 2 0 15 0;
#X connect 3 0 56 0;
#X connect 3 0 45 0;
#X connect 4 0 57 0;
#X connect 4 0 45 0;
#X connect 5 0 6 0;
#X connect 5 0 45 0;
#X connect 6 0 1 0;
#X connect 7 0 1 0;
#X connect 8 0 7 0;
#X connect 8 0 45 0;
#X connect 9 0 10 0;
#X connect 10 0 2 0;
#X connect 12 0 48 0;
#X connect 13 0 12 1;
#X connect 14 0 10 0;
#X connect 15 0 12 0;
#X connect 16 0 18 0;
#X connect 16 0 24 0;
#X connect 17 0 15 2;
#X connect 18 0 15 1;
#X connect 24 0 17 0;
#X connect 25 0 26 0;
#X connect 26 0 39 0;
#X connect 26 0 45 0;
#X connect 27 0 40 0;
#X connect 27 0 45 0;
#X connect 28 0 41 0;
#X connect 28 0 45 0;
#X connect 29 0 42 0;
#X connect 29 0 45 0;
#X connect 30 0 43 0;
#X connect 30 0 45 0;
#X connect 31 0 44 0;
#X connect 31 0 45 0;
#X connect 32 0 5 0;
#X connect 33 0 8 0;
#X connect 34 0 27 0;
#X connect 35 0 28 0;
#X connect 36 0 29 0;
#X connect 37 0 30 0;
#X connect 38 0 31 0;
#X connect 39 0 1 0;
#X connect 40 0 1 0;
#X connect 41 0 1 0;
#X connect 42 0 1 0;
#X connect 43 0 1 0;
#X connect 44 0 1 0;
#X connect 45 0 47 0;
#X connect 46 0 32 0;
#X connect 46 0 33 0;
#X connect 46 0 25 0;
#X connect 46 0 34 0;
#X connect 46 0 35 0;
#X connect 46 0 36 0;
#X connect 46 0 37 0;
#X connect 46 0 38 0;
#X connect 46 0 54 0;
#X connect 46 0 55 0;
#X connect 47 0 13 0;
#X connect 54 0 3 0;
#X connect 55 0 4 0;
#X connect 56 0 1 0;
#X connect 57 0 1 0;
#X restore 203 70 pd Help Horizont 2;
#N canvas -8 0 958 1016 Help 0;
#X obj 22 20 inlet;
#X floatatom 162 265 5 0 0 0 - - - 0;
#X obj 162 340 phasor~;
#X obj 162 162 bng 15 250 50 0 empty empty empty 17 7 0 10 #fcfcfc
#000000 #000000;
#X obj 228 162 bng 15 250 50 0 empty empty empty 17 7 0 10 #fcfcfc
#000000 #000000;
#X obj 292 163 bng 15 250 50 0 empty empty empty 17 7 0 10 #fcfcfc
#000000 #000000;
#X obj 350 162 bng 15 250 50 0 empty empty empty 17 7 0 10 #fcfcfc
#000000 #000000;
#X obj 162 290 mtof;
#X floatatom 162 316 5 0 0 0 - - - 0;
#X text 33 214 sets MIDI notes;
#X obj 164 439 *~;
#X obj 717 420 vline~, f 13;
#X msg 108 290 0;
#X obj 163 398 bob~, f 13;
#X obj 222 263 loadbang;
#X floatatom 295 355 5 0 8 0 - - - 0;
#X text 26 289 clear fq;
#X text 341 359 filter resonance;
#X text 250 355 fq;
#X text 93 397 low-pass;
#X text 745 339 envelope;
#X obj 410 132 sel 0;
#X obj 410 162 bng 15 250 50 0 empty empty empty 17 7 0 10 #fcfcfc
#000000 #000000;
#X obj 464 160 bng 15 250 50 0 empty empty empty 17 7 0 10 #fcfcfc
#000000 #000000;
#X obj 514 161 bng 15 250 50 0 empty empty empty 17 7 0 10 #fcfcfc
#000000 #000000;
#X obj 567 162 bng 15 250 50 0 empty empty empty 17 7 0 10 #fcfcfc
#000000 #000000;
#X obj 622 161 bng 15 250 50 0 empty empty empty 17 7 0 10 #fcfcfc
#000000 #000000;
#X obj 676 161 bng 15 250 50 0 empty empty empty 17 7 0 10 #fcfcfc
#000000 #000000;
#X obj 464 129 sel 0;
#X obj 514 130 sel 0;
#X obj 567 130 sel 0;
#X obj 622 130 sel 0;
#X obj 676 129 sel 0;
#X msg 464 206 41;
#X msg 514 205 43;
#X msg 567 208 41;
#X msg 622 208 36;
#X msg 676 210 41;
#X obj 717 176 bng 15 250 50 0 empty empty empty 17 7 0 10 #fcfcfc
#000000 #000000;
#X floatatom 162 93 5 0 0 0 - - - 0;
#X msg 410 209 48;
#X msg 718 367 0.3 10 \, 0.5 250 10 \, 0 500 260;
#X msg 222 355 300;
#X msg 295 327 3;
#X obj 163 508 outlet~;
#X text 809 105 C = 48;
#X text 807 127 D = 50;
#X text 809 150 E = 52;
#X text 811 175 G = 55;
#X text 813 197 A = 57;
#X msg 229 210 55;
#X msg 292 210 57;
#X msg 350 209 50;
#X obj 350 130 sel 0;
#X obj 292 132 sel 0;
#X obj 228 131 sel 0;
#X obj 162 132 sel 17;
#X msg 162 212 50;
#X connect 0 0 39 0;
#X connect 1 0 7 0;
#X connect 2 0 13 0;
#X connect 3 0 38 0;
#X connect 3 0 57 0;
#X connect 4 0 38 0;
#X connect 4 0 50 0;
#X connect 5 0 51 0;
#X connect 5 0 38 0;
#X connect 6 0 52 0;
#X connect 6 0 38 0;
#X connect 7 0 8 0;
#X connect 8 0 2 0;
#X connect 10 0 44 0;
#X connect 11 0 10 1;
#X connect 12 0 8 0;
#X connect 13 0 10 0;
#X connect 14 0 42 0;
#X connect 14 0 43 0;
#X connect 15 0 13 2;
#X connect 21 0 22 0;
#X connect 22 0 40 0;
#X connect 22 0 38 0;
#X connect 23 0 33 0;
#X connect 23 0 38 0;
#X connect 24 0 34 0;
#X connect 24 0 38 0;
#X connect 25 0 35 0;
#X connect 25 0 38 0;
#X connect 26 0 36 0;
#X connect 26 0 38 0;
#X connect 27 0 37 0;
#X connect 27 0 38 0;
#X connect 28 0 23 0;
#X connect 29 0 24 0;
#X connect 30 0 25 0;
#X connect 31 0 26 0;
#X connect 32 0 27 0;
#X connect 33 0 1 0;
#X connect 34 0 1 0;
#X connect 35 0 1 0;
#X connect 36 0 1 0;
#X connect 37 0 1 0;
#X connect 38 0 41 0;
#X connect 39 0 21 0;
#X connect 39 0 28 0;
#X connect 39 0 29 0;
#X connect 39 0 30 0;
#X connect 39 0 31 0;
#X connect 39 0 32 0;
#X connect 39 0 53 0;
#X connect 39 0 54 0;
#X connect 39 0 55 0;
#X connect 39 0 56 0;
#X connect 40 0 1 0;
#X connect 41 0 11 0;
#X connect 42 0 13 1;
#X connect 43 0 15 0;
#X connect 50 0 1 0;
#X connect 51 0 1 0;
#X connect 52 0 1 0;
#X connect 53 0 6 0;
#X connect 54 0 5 0;
#X connect 55 0 4 0;
#X connect 56 0 3 0;
#X connect 57 0 1 0;
#X restore 358 69 pd Help Horizont 3;
#N canvas 954 0 956 1016 Help 0;
#X obj 22 20 inlet;
#X obj 22 509 outlet~;
#X floatatom 167 265 5 0 0 0 - - - 0;
#X obj 167 340 phasor~;
#X obj 167 162 bng 15 250 50 0 empty empty empty 17 7 0 10 #fcfcfc
#000000 #000000;
#X obj 233 162 bng 15 250 50 0 empty empty empty 17 7 0 10 #fcfcfc
#000000 #000000;
#X obj 297 163 bng 15 250 50 0 empty empty empty 17 7 0 10 #fcfcfc
#000000 #000000;
#X obj 355 162 bng 15 250 50 0 empty empty empty 17 7 0 10 #fcfcfc
#000000 #000000;
#X obj 167 290 mtof;
#X floatatom 167 316 5 0 0 0 - - - 0;
#X text 38 214 sets MIDI notes;
#X text 178 191 C;
#X text 247 189 F;
#X text 364 189 F;
#X text 308 190 G;
#X obj 169 439 *~;
#X obj 722 420 vline~, f 13;
#X msg 113 290 0;
#X obj 168 398 bob~, f 13;
#X obj 227 263 loadbang;
#X floatatom 300 355 5 0 8 0 - - - 0;
#X msg 227 355 150;
#X text 31 289 clear fq;
#X text 346 359 filter resonance;
#X text 255 355 fq;
#X text 98 397 low-pass;
#X text 750 339 envelope;
#X msg 300 327 3;
#X obj 415 132 sel 0;
#X obj 415 162 bng 15 250 50 0 empty empty empty 17 7 0 10 #fcfcfc
#000000 #000000;
#X obj 469 160 bng 15 250 50 0 empty empty empty 17 7 0 10 #fcfcfc
#000000 #000000;
#X obj 519 161 bng 15 250 50 0 empty empty empty 17 7 0 10 #fcfcfc
#000000 #000000;
#X obj 572 162 bng 15 250 50 0 empty empty empty 17 7 0 10 #fcfcfc
#000000 #000000;
#X obj 627 161 bng 15 250 50 0 empty empty empty 17 7 0 10 #fcfcfc
#000000 #000000;
#X obj 681 161 bng 15 250 50 0 empty empty empty 17 7 0 10 #fcfcfc
#000000 #000000;
#X obj 297 132 sel 0;
#X obj 355 130 sel 0;
#X obj 469 129 sel 0;
#X obj 519 130 sel 0;
#X obj 572 130 sel 0;
#X obj 627 130 sel 0;
#X obj 681 129 sel 0;
#X obj 722 176 bng 15 250 50 0 empty empty empty 17 7 0 10 #fcfcfc
#000000 #000000;
#X floatatom 167 93 5 0 0 0 - - - 0;
#X msg 722 367 0.7 10 \, 0.5 250 10 \, 0 500 260;
#X obj 167 132 sel 0;
#X obj 234 131 sel 0;
#X msg 167 212 60;
#X msg 233 210 65;
#X msg 296 210 67;
#X msg 355 209 65;
#X msg 415 210 60;
#X msg 469 206 65;
#X msg 519 205 67;
#X msg 572 208 65;
#X msg 627 208 60;
#X msg 681 210 65;
#X connect 2 0 8 0;
#X connect 3 0 18 0;
#X connect 4 0 47 0;
#X connect 4 0 42 0;
#X connect 5 0 48 0;
#X connect 5 0 42 0;
#X connect 6 0 49 0;
#X connect 6 0 42 0;
#X connect 7 0 50 0;
#X connect 7 0 42 0;
#X connect 8 0 9 0;
#X connect 9 0 3 0;
#X connect 15 0 1 0;
#X connect 16 0 15 1;
#X connect 17 0 9 0;
#X connect 18 0 15 0;
#X connect 19 0 21 0;
#X connect 19 0 27 0;
#X connect 20 0 18 2;
#X connect 21 0 18 1;
#X connect 27 0 20 0;
#X connect 28 0 29 0;
#X connect 29 0 51 0;
#X connect 29 0 42 0;
#X connect 30 0 52 0;
#X connect 30 0 42 0;
#X connect 31 0 53 0;
#X connect 31 0 42 0;
#X connect 32 0 54 0;
#X connect 32 0 42 0;
#X connect 33 0 55 0;
#X connect 33 0 42 0;
#X connect 34 0 56 0;
#X connect 34 0 42 0;
#X connect 35 0 6 0;
#X connect 36 0 7 0;
#X connect 37 0 30 0;
#X connect 38 0 31 0;
#X connect 39 0 32 0;
#X connect 40 0 33 0;
#X connect 41 0 34 0;
#X connect 42 0 44 0;
#X connect 43 0 35 0;
#X connect 43 0 36 0;
#X connect 43 0 28 0;
#X connect 43 0 37 0;
#X connect 43 0 38 0;
#X connect 43 0 39 0;
#X connect 43 0 40 0;
#X connect 43 0 41 0;
#X connect 43 0 45 0;
#X connect 43 0 46 0;
#X connect 44 0 16 0;
#X connect 45 0 4 0;
#X connect 46 0 5 0;
#X connect 47 0 2 0;
#X connect 48 0 2 0;
#X connect 49 0 2 0;
#X connect 50 0 2 0;
#X connect 51 0 2 0;
#X connect 52 0 2 0;
#X connect 53 0 2 0;
#X connect 54 0 2 0;
#X connect 55 0 2 0;
#X connect 56 0 2 0;
#X restore 522 71 pd Help Horizont 4;
#N canvas 192 192 450 300 L/R 0;
#X floatatom 100 180 5 0 0 0 - - - 0;
#X obj 100 40 r XState;
#X floatatom 100 64 6 0 0 0 - - - 0;
#X obj 100 87 / 960;
#X floatatom 100 111 5 0 0 0 - - - 0;
#X obj 100 145 scale 0.7 1, f 15;
#X floatatom 100 245 5 0 0 0 - - - 0;
#X floatatom 183 288 5 0 0 0 - - - 0;
#X obj 183 263 >= 0;
#X obj 100 328 *;
#X floatatom 100 360 5 0 0 0 - - - 0;
#X obj 101 203 / 2;
#X obj 100 396 expr 1 - $f1;
#X floatatom 100 420 5 0 0 0 - - - 0;
#X floatatom 199 463 5 0 0 0 - - - 0;
#X obj 199 438 >= 0;
#X obj 100 481 *;
#X floatatom 100 505 5 0 0 0 - - - 0;
#X obj 100 544 expr 1 - $f1;
#X floatatom 100 579 5 0 0 0 - - - 0;
#X floatatom 185 622 5 0 0 0 - - - 0;
#X obj 185 597 >= 0;
#X obj 100 640 *;
#X floatatom 100 664 5 0 0 0 - - - 0;
#X obj 100 698 outlet;
#X connect 0 0 11 0;
#X connect 1 0 2 0;
#X connect 2 0 3 0;
#X connect 3 0 4 0;
#X connect 4 0 5 0;
#X connect 5 0 0 0;
#X connect 6 0 8 0;
#X connect 6 0 9 0;
#X connect 7 0 9 1;
#X connect 8 0 7 0;
#X connect 9 0 10 0;
#X connect 10 0 12 0;
#X connect 11 0 6 0;
#X connect 12 0 13 0;
#X connect 13 0 16 0;
#X connect 13 0 15 0;
#X connect 14 0 16 1;
#X connect 15 0 14 0;
#X connect 16 0 17 0;
#X connect 17 0 18 0;
#X connect 18 0 19 0;
#X connect 19 0 22 0;
#X connect 19 0 21 0;
#X connect 20 0 22 1;
#X connect 21 0 20 0;
#X connect 22 0 23 0;
#X connect 23 0 24 0;
#X restore 238 525 pd L/R Balance;
#N canvas 224 224 930 733 O/U 0;
#X floatatom 39 158 5 0 0 0 - - - 0;
#X floatatom 39 42 6 0 0 0 - - - 0;
#X floatatom 39 89 5 0 0 0 - - - 0;
#X obj 39 123 scale 0.7 1, f 15;
#X floatatom 39 223 5 0 0 0 - - - 0;
#X floatatom 122 266 5 0 0 0 - - - 0;
#X obj 122 241 >= 0;
#X obj 39 306 *;
#X floatatom 39 338 5 0 0 0 - - - 0;
#X obj 40 181 / 2;
#X obj 39 374 expr 1 - $f1;
#X floatatom 39 398 5 0 0 0 - - - 0;
#X floatatom 138 441 5 0 0 0 - - - 0;
#X obj 138 416 >= 0;
#X obj 39 459 *;
#X floatatom 39 483 5 0 0 0 - - - 0;
#X obj 39 522 expr 1 - $f1;
#X floatatom 39 557 5 0 0 0 - - - 0;
#X floatatom 124 600 5 0 0 0 - - - 0;
#X obj 124 575 >= 0;
#X obj 39 618 *;
#X floatatom 39 642 5 0 0 0 - - - 0;
#X obj 39 676 outlet;
#X obj 39 18 r YState;
#X obj 39 65 / 540;
#X connect 0 0 9 0;
#X connect 1 0 24 0;
#X connect 2 0 3 0;
#X connect 3 0 0 0;
#X connect 4 0 6 0;
#X connect 4 0 7 0;
#X connect 5 0 7 1;
#X connect 6 0 5 0;
#X connect 7 0 8 0;
#X connect 8 0 10 0;
#X connect 9 0 4 0;
#X connect 10 0 11 0;
#X connect 11 0 14 0;
#X connect 11 0 13 0;
#X connect 12 0 14 1;
#X connect 13 0 12 0;
#X connect 14 0 15 0;
#X connect 15 0 16 0;
#X connect 16 0 17 0;
#X connect 17 0 20 0;
#X connect 17 0 19 0;
#X connect 18 0 20 1;
#X connect 19 0 18 0;
#X connect 20 0 21 0;
#X connect 21 0 22 0;
#X connect 23 0 1 0;
#X connect 24 0 2 0;
#X restore 243 653 pd O/U Balance;
#X floatatom 238 549 5 0 0 0 - - - 0;
#X floatatom 243 677 5 0 0 0 - - - 0;
#X obj 58 764 *~;
#X obj 521 762 *~;
#X obj 522 631 *~;
#X obj 59 606 *~;
#X obj 59 492 *~ 2.5;
#X obj 522 500 *~ 1.5;
#X connect 3 0 8 0;
#X connect 3 0 9 0;
#X connect 3 0 10 0;
#X connect 3 0 11 0;
#X connect 6 0 7 0;
#X connect 8 0 20 0;
#X connect 9 0 20 0;
#X connect 9 0 21 0;
#X connect 10 0 20 0;
#X connect 10 0 21 0;
#X connect 11 0 20 0;
#X connect 11 0 21 0;
#X connect 12 0 14 0;
#X connect 13 0 15 0;
#X connect 14 0 19 1;
#X connect 14 0 18 1;
#X connect 15 0 16 1;
#X connect 15 0 17 1;
#X connect 16 0 0 0;
#X connect 17 0 1 0;
#X connect 18 0 17 0;
#X connect 19 0 16 0;
#X connect 20 0 19 0;
#X connect 21 0 18 0;
#X restore 1246 715 pd Help;
#X obj 578 745 s~ ColleaguesDry;
#X obj 699 745 s~ ColleaguesWet;
#X obj 1245 756 s~ HelpDry;
#X obj 1326 756 s~ HelpWet;
#X obj 1220 327 s~ FamilyDry;
#X obj 1321 327 s~ FamilyWet;
#X obj 562 316 s~ FriendsDry;
#X obj 662 315 s~ FriendsWet;
#X obj 904 446 s~ AmbienceL;
#X obj 1005 445 s~ AmbienceR;
#X msg 864 881 open SONIFICATION_TEST.wav;
#X text 863 857 creates an empty wav file;
#X text 962 514 start the sonification and its recording;
#X text 1564 395 reset the sonification to 1;
#X text 1531 535 start sonification;
#X text 1473 278 shows current ID;
#X text 1038 350 Turn Off Pad;
#X connect 0 0 2 0;
#X connect 1 0 49 0;
#X connect 1 1 50 0;
#X connect 2 0 5 0;
#X connect 4 0 0 0;
#X connect 6 0 38 1;
#X connect 7 0 6 0;
#X connect 8 0 39 1;
#X connect 9 0 8 0;
#X connect 12 0 40 1;
#X connect 13 0 12 0;
#X connect 15 0 37 1;
#X connect 16 0 15 0;
#X connect 22 0 1 1;
#X connect 23 0 22 0;
#X connect 29 0 30 0;
#X connect 29 0 36 1;
#X connect 31 0 30 0;
#X connect 32 0 33 0;
#X connect 34 0 35 0;
#X connect 37 0 47 0;
#X connect 37 1 48 0;
#X connect 38 0 45 0;
#X connect 38 1 46 0;
#X connect 39 0 41 0;
#X connect 39 1 42 0;
#X connect 40 0 43 0;
#X connect 40 1 44 0;
#X connect 51 0 36 0;
#X coords 0 0 3 3 85 60 0;
