#N canvas 1061 225 644 738 12;
#X obj 27 9 inlet;
#X obj 27 118 mtof;
#X obj 24 629 outlet~;
#N canvas 1112 237 592 524 stringVoice 0;
#X obj 43 257 phasor~;
#X floatatom 43 135 5 0 0 0 - - - 0;
#X obj 43 303 expr~ $v1 > $v2;
#X obj 217 204 *~ 0.4;
#X obj 217 228 +~ 0.5;
#X obj 217 180 osc~ 2.1;
#X obj 43 158 sig~;
#X obj 43 206 +~;
#X obj 101 136 osc~ 5;
#X obj 101 160 *~ 3;
#X obj 43 87 inlet;
#X obj 43 357 outlet~;
#X obj 217 50 loadbang;
#X obj 217 74 random 1000;
#X obj 217 122 + 1;
#X obj 101 33 loadbang;
#X obj 101 57 random 1000;
#X obj 101 105 + 1;
#X obj 101 81 * 0.005;
#X obj 217 98 * 0.002;
#X connect 0 0 2 0;
#X connect 1 0 6 0;
#X connect 2 0 11 0;
#X connect 3 0 4 0;
#X connect 4 0 2 1;
#X connect 5 0 3 0;
#X connect 6 0 7 0;
#X connect 7 0 0 0;
#X connect 8 0 9 0;
#X connect 9 0 7 1;
#X connect 10 0 1 0;
#X connect 12 0 13 0;
#X connect 13 0 19 0;
#X connect 14 0 5 0;
#X connect 15 0 16 0;
#X connect 16 0 18 0;
#X connect 17 0 8 0;
#X connect 18 0 17 0;
#X connect 19 0 14 0;
#X restore 27 171 pd stringVoice;
#X obj 26 459 *~;
#X obj 27 40 unpack i i;
#N canvas 224 224 939 632 envelope 1;
#X obj 35 36 inlet;
#X obj 218 97 sel 0;
#X msg 218 138 0;
#X obj 268 140 / 127;
#X floatatom 335 127 5 0 0 0 - - - 0;
#X text 264 96 if vel = 0 -> go to 0;
#X text 379 129 attack time;
#X floatatom 292 208 5 0 0 0 - - - 0;
#X text 338 207 release time;
#X obj 122 259 line~;
#X obj 85 292 *~;
#X obj 35 371 outlet~;
#X obj 269 162 pack 0 30;
#X obj 218 240 pack 0 500;
#X connect 0 0 1 0;
#X connect 1 0 2 0;
#X connect 1 1 3 0;
#X connect 2 0 13 0;
#X connect 3 0 12 0;
#X connect 4 0 12 1;
#X connect 7 0 13 1;
#X connect 9 0 10 0;
#X connect 9 0 10 1;
#X connect 10 0 11 0;
#X connect 12 0 9 0;
#X connect 13 0 9 0;
#X restore 324 109 pd envelope;
#N canvas 1112 237 592 524 stringVoice 0;
#X obj 43 257 phasor~;
#X floatatom 43 135 5 0 0 0 - - - 0;
#X obj 43 303 expr~ $v1 > $v2;
#X obj 217 204 *~ 0.4;
#X obj 217 228 +~ 0.5;
#X obj 217 180 osc~ 2.1;
#X obj 43 158 sig~;
#X obj 43 206 +~;
#X obj 101 136 osc~ 5;
#X obj 101 160 *~ 3;
#X obj 43 87 inlet;
#X obj 43 357 outlet~;
#X obj 217 50 loadbang;
#X obj 217 74 random 1000;
#X obj 217 122 + 1;
#X obj 101 33 loadbang;
#X obj 101 57 random 1000;
#X obj 101 105 + 1;
#X obj 101 81 * 0.005;
#X obj 217 98 * 0.002;
#X connect 0 0 2 0;
#X connect 1 0 6 0;
#X connect 2 0 11 0;
#X connect 3 0 4 0;
#X connect 4 0 2 1;
#X connect 5 0 3 0;
#X connect 6 0 7 0;
#X connect 7 0 0 0;
#X connect 8 0 9 0;
#X connect 9 0 7 1;
#X connect 10 0 1 0;
#X connect 12 0 13 0;
#X connect 13 0 19 0;
#X connect 14 0 5 0;
#X connect 15 0 16 0;
#X connect 16 0 18 0;
#X connect 17 0 8 0;
#X connect 18 0 17 0;
#X connect 19 0 14 0;
#X restore 142 170 pd stringVoice;
#X obj 142 137 * 1.004;
#X floatatom 40 142 5 0 0 0 - - - 0;
#X obj 25 535 lop~ 1000;
#X floatatom 100 462 5 0 0 0 - - - 0;
#X obj 118 410 * 1.5;
#X connect 0 0 5 0;
#X connect 1 0 8 0;
#X connect 1 0 3 0;
#X connect 1 0 9 0;
#X connect 3 0 4 0;
#X connect 4 0 10 0;
#X connect 5 0 1 0;
#X connect 5 1 6 0;
#X connect 6 0 4 1;
#X connect 7 0 4 0;
#X connect 8 0 7 0;
#X connect 9 0 3 0;
#X connect 9 0 12 0;
#X connect 10 0 2 0;
#X connect 11 0 10 1;
#X connect 12 0 11 0;
