#N canvas -8 0 958 1016 12;
#X obj 147 320 clone String_Synth 16;
#X obj 454 265 pack 0 0;
#X text 577 189 note has velocity 100 and lasts 500 ms;
#X floatatom 563 236 5 0 0 0 - - - 0;
#X text 610 239 velocity;
#X floatatom 402 238 5 0 0 0 - - - 0;
#X text 344 239 pitch;
#N canvas 1204 531 543 393 routing 0;
#X obj 111 105 inlet;
#X obj 111 262 outlet;
#X obj 111 149 poly 16 1;
#X obj 111 207 pack 0 0 0;
#X obj 111 179 - 1;
#X connect 0 0 2 0;
#X connect 2 0 4 0;
#X connect 2 1 3 1;
#X connect 2 2 3 2;
#X connect 3 0 1 0;
#X connect 4 0 3 0;
#X restore 147 283 pd routing;
#X obj 583 83 t b;
#X obj 583 107 random 50;
#X obj 583 131 + 50;
#X obj 583 48 bng 15 250 50 0 empty empty empty 17 7 0 10 #fcfcfc #000000
#000000;
#X floatatom 583 155 5 0 0 0 - - - 0;
#X text 662 107 velocity randomization;
#X obj 146 631 outlet~;
#X obj 136 93 inlet;
#X obj 374 51 inlet;
#X floatatom 136 117 5 0 0 0 - - - 0;
#X floatatom 374 75 5 0 0 0 - - - 0;
#X text 83 91 pitch;
#X text 422 51 velocity;
#X obj 249 82 notein, f 11;
#X obj 453 188 makenote 100 200;
#X obj 250 633 outlet~;
#X obj 147 352 *~ 0.3;
#X obj 146 573 *~ 0.5;
#X obj 250 580 *~ 0.5;
#X connect 0 0 24 0;
#X connect 1 0 7 0;
#X connect 7 0 0 0;
#X connect 8 0 9 0;
#X connect 9 0 10 0;
#X connect 10 0 12 0;
#X connect 11 0 8 0;
#X connect 15 0 17 0;
#X connect 16 0 18 0;
#X connect 17 0 22 0;
#X connect 18 0 22 1;
#X connect 21 0 22 0;
#X connect 21 1 22 1;
#X connect 22 0 5 0;
#X connect 22 0 1 0;
#X connect 22 1 3 0;
#X connect 22 1 1 1;
#X connect 24 0 25 0;
#X connect 24 0 26 0;
#X connect 25 0 14 0;
#X connect 26 0 23 0;
